<svg xmlns="http://www.w3.org/2000/svg" viewBox="0 0 500 230"><defs><style>.cls-1{fill:#fff;}</style></defs><g id="caas"><path class="cls-1" d="M129.66,23.9,114.47,51.64s-10.08-9.91-32.86-9.91S35.37,60.06,35.37,86.48,56,117,70.71,117s30.05-4.78,38.47-10.73h6.44s-15.85,25.1-20.14,31.21-10.74,7.76-28.74,7.76S0,141.14,0,88C0,35.46,52.21,12.83,86.23,12.83,105.06,12.83,121.24,19.93,129.66,23.9Z"/><path class="cls-1" d="M232.13,94.74c-13.66-.41-25.52-1.15-35.7-2.07l-4.84-31.94L174.37,90.12c-20.18-2.92-29.15-6.08-29.66-6.26l22.22,19L143,143.62h-37l38.64-59.77,44.75-69.2h27.41Z"/><path class="cls-1" d="M241.46,143.62H204.14l-6.06-40c10.15.15,22.3.2,35.74,0Z"/><path class="cls-1" d="M275.85,102.09c11.79-.67,23.94-1.6,36.13-2.84l-26,44.37H249Z"/><path class="cls-1" d="M373.56,86.71c-10,1.34-21.64,2.75-34.48,4l-4.54-30-18.75,32c-11.19.82-23,1.49-35.12,1.9l51.72-80h27.42Z"/><path class="cls-1" d="M384.41,143.62H347.09l-7.24-47.83c13.64-2,25-3.92,34.35-5.68Z"/><path class="cls-1" d="M500,21.58,479.81,43.05a28.74,28.74,0,0,0-20.7-8.69c-13.21,0-21.58,14.2-9,22.45s41.29,20.48,41.29,46.24-25.1,42.17-52.3,42.17-40.73-1.54-42.82-10.24-5.07-26-5.4-27.85,3.75-4,6.72-1.1,16.62,16.84,34.68,16.84,22.9-11.45,22.9-16.07S449,96.12,425,81.92s-20.64-42.24-7.59-54.61C430.16,15.2,461.64.45,500,21.58Z"/><path class="cls-1" d="M166.93,102.82l-15.56,26.57c163-1.9,230.13-35.64,245.15-40.76,12-4.07,15.76-7,15.23-7.69-9.37,3.41-29.34,8.55-71.9,14.85C261,107.47,173.2,102.82,166.93,102.82Z"/><path class="cls-1" d="M25.77,203.9a8,8,0,0,1-2.55,5.32,8.35,8.35,0,0,1-5.7,1.88,7.65,7.65,0,0,1-6.18-2.77A11.14,11.14,0,0,1,9,200.94v-2.09a12.4,12.4,0,0,1,1.08-5.33A8.12,8.12,0,0,1,13.17,190a8.5,8.5,0,0,1,4.6-1.24,7.86,7.86,0,0,1,5.56,1.94A8.07,8.07,0,0,1,25.77,196H22.88a6.24,6.24,0,0,0-1.62-3.77,4.89,4.89,0,0,0-3.49-1.17,5.13,5.13,0,0,0-4.3,2,9.3,9.3,0,0,0-1.57,5.79V201a9.62,9.62,0,0,0,1.48,5.64,4.78,4.78,0,0,0,4.14,2.09,5.54,5.54,0,0,0,3.67-1.08,6,6,0,0,0,1.69-3.77Z"/><path class="cls-1" d="M29.26,190.35a1.64,1.64,0,0,1,.41-1.13,1.82,1.82,0,0,1,2.44,0,1.6,1.6,0,0,1,.42,1.13,1.71,1.71,0,0,1-2.86,1.12A1.61,1.61,0,0,1,29.26,190.35Zm3,20.45H29.49V194.64h2.76Z"/><path class="cls-1" d="M42,207.05l4-12.41h2.82L43,210.8h-2.1l-5.86-16.16H37.9Z"/><path class="cls-1" d="M51.5,190.35a1.64,1.64,0,0,1,.41-1.13,1.55,1.55,0,0,1,1.22-.47,1.58,1.58,0,0,1,1.23.47,1.64,1.64,0,0,1,.41,1.13,1.49,1.49,0,0,1-1.64,1.57,1.58,1.58,0,0,1-1.22-.45A1.61,1.61,0,0,1,51.5,190.35Zm3,20.45H51.73V194.64h2.76Z"/><path class="cls-1" d="M61.91,210.8H59.15V187.86h2.76Z"/><path class="cls-1" d="M86.35,205.11H77.24l-2,5.69h-3l8.3-21.75h2.51l8.32,21.75H88.43Zm-8.24-2.35H85.5l-3.71-10.17Z"/><path class="cls-1" d="M98.45,207.05l4-12.41h2.83l-5.8,16.16h-2.1l-5.86-16.16h2.82Z"/><path class="cls-1" d="M108,190.35a1.64,1.64,0,0,1,.41-1.13,1.82,1.82,0,0,1,2.44,0,1.6,1.6,0,0,1,.42,1.13,1.71,1.71,0,0,1-2.86,1.12A1.61,1.61,0,0,1,108,190.35Zm3,20.45h-2.77V194.64h2.77Z"/><path class="cls-1" d="M125.34,210.8a5.83,5.83,0,0,1-.39-1.7,6.19,6.19,0,0,1-4.6,2,5.69,5.69,0,0,1-3.92-1.35,4.38,4.38,0,0,1-1.53-3.43,4.57,4.57,0,0,1,1.92-3.92,9,9,0,0,1,5.39-1.4h2.69v-1.27a3.16,3.16,0,0,0-.86-2.31,3.5,3.5,0,0,0-2.56-.86,4,4,0,0,0-2.48.75,2.22,2.22,0,0,0-1,1.81h-2.78a3.83,3.83,0,0,1,.86-2.34,5.85,5.85,0,0,1,2.33-1.78,7.82,7.82,0,0,1,3.24-.66,6.32,6.32,0,0,1,4.37,1.4,5,5,0,0,1,1.65,3.84V207a9.3,9.3,0,0,0,.56,3.54v.24Zm-4.59-2.11a4.85,4.85,0,0,0,2.47-.67,4.09,4.09,0,0,0,1.68-1.75V203h-2.16q-5.08,0-5.08,3a2.51,2.51,0,0,0,.87,2A3.28,3.28,0,0,0,120.75,208.69Z"/><path class="cls-1" d="M135.75,190.72v3.92h3v2.13h-3v10a2.25,2.25,0,0,0,.4,1.46,1.72,1.72,0,0,0,1.38.48,6.73,6.73,0,0,0,1.31-.18v2.23a8,8,0,0,1-2.12.3,3.44,3.44,0,0,1-2.8-1.12,4.86,4.86,0,0,1-.94-3.18v-10H130v-2.13H133v-3.92Z"/><path class="cls-1" d="M142,190.35a1.59,1.59,0,0,1,.41-1.13,1.53,1.53,0,0,1,1.21-.47,1.58,1.58,0,0,1,1.23.47,1.6,1.6,0,0,1,.42,1.13,1.57,1.57,0,0,1-.42,1.12,1.6,1.6,0,0,1-1.23.45,1.48,1.48,0,0,1-1.62-1.57Zm3,20.45h-2.76V194.64H145Z"/><path class="cls-1" d="M148.68,202.57a9.44,9.44,0,0,1,.94-4.27,6.94,6.94,0,0,1,2.6-2.93,7,7,0,0,1,3.8-1,6.83,6.83,0,0,1,5.34,2.28,8.8,8.8,0,0,1,2,6.08v.2a9.66,9.66,0,0,1-.91,4.23,6.8,6.8,0,0,1-2.58,2.92,7.14,7.14,0,0,1-3.86,1,6.79,6.79,0,0,1-5.33-2.29,8.74,8.74,0,0,1-2-6.05Zm2.78.33a6.9,6.9,0,0,0,1.25,4.31,4.22,4.22,0,0,0,6.68,0,7.53,7.53,0,0,0,1.24-4.62,6.92,6.92,0,0,0-1.26-4.31,4,4,0,0,0-3.35-1.65,3.94,3.94,0,0,0-3.3,1.63A7.47,7.47,0,0,0,151.46,202.9Z"/><path class="cls-1" d="M169.48,194.64l.09,2a5.88,5.88,0,0,1,4.84-2.33q5.11,0,5.16,5.78V210.8h-2.76V200.1a3.74,3.74,0,0,0-.8-2.58,3.19,3.19,0,0,0-2.44-.84,4,4,0,0,0-2.36.72,4.93,4.93,0,0,0-1.59,1.88V210.8h-2.76V194.64Z"/><path class="cls-1" d="M203.76,205.11h-9.12l-2,5.69h-3L198,189.05h2.51l8.32,21.75h-2.95Zm-8.25-2.35h7.4l-3.71-10.17Z"/><path class="cls-1" d="M221.08,209.2a5.84,5.84,0,0,1-4.73,1.9,5,5,0,0,1-3.94-1.5,6.5,6.5,0,0,1-1.36-4.45V194.64h2.76v10.44c0,2.45,1,3.67,3,3.67s3.51-.78,4.21-2.36V194.64h2.76V210.8h-2.63Z"/><path class="cls-1" d="M231.72,190.72v3.92h3v2.13h-3v10a2.25,2.25,0,0,0,.4,1.46,1.72,1.72,0,0,0,1.38.48,6.64,6.64,0,0,0,1.31-.18v2.23a8,8,0,0,1-2.12.3A3.42,3.42,0,0,1,229.9,210a4.81,4.81,0,0,1-.94-3.18v-10h-3v-2.13h3v-3.92Z"/><path class="cls-1" d="M240.73,196.59a5.86,5.86,0,0,1,4.78-2.25q5.12,0,5.16,5.78V210.8h-2.76V200.1a3.74,3.74,0,0,0-.8-2.58,3.18,3.18,0,0,0-2.44-.84,4,4,0,0,0-2.36.72,4.82,4.82,0,0,0-1.58,1.88V210.8H238V187.86h2.77Z"/><path class="cls-1" d="M254.08,202.57a9.56,9.56,0,0,1,.93-4.27,6.86,6.86,0,0,1,6.4-4,6.83,6.83,0,0,1,5.34,2.28,8.8,8.8,0,0,1,2,6.08v.2a9.65,9.65,0,0,1-.9,4.23,6.75,6.75,0,0,1-2.59,2.92,7.11,7.11,0,0,1-3.86,1,6.77,6.77,0,0,1-5.32-2.29,8.74,8.74,0,0,1-2-6.05Zm2.78.33a6.84,6.84,0,0,0,1.25,4.31,4.22,4.22,0,0,0,6.68,0,7.53,7.53,0,0,0,1.24-4.62,6.92,6.92,0,0,0-1.26-4.31,4,4,0,0,0-3.36-1.65,4,4,0,0,0-3.3,1.63A7.54,7.54,0,0,0,256.86,202.9Z"/><path class="cls-1" d="M280.07,197.12a8.23,8.23,0,0,0-1.36-.11,3.65,3.65,0,0,0-3.69,2.32V210.8h-2.76V194.64H275l0,1.86a4.31,4.31,0,0,1,3.86-2.16,2.82,2.82,0,0,1,1.22.21Z"/><path class="cls-1" d="M282.62,190.35a1.6,1.6,0,0,1,.42-1.13,1.52,1.52,0,0,1,1.21-.47,1.58,1.58,0,0,1,1.23.47,1.6,1.6,0,0,1,.42,1.13,1.57,1.57,0,0,1-.42,1.12,1.6,1.6,0,0,1-1.23.45,1.54,1.54,0,0,1-1.21-.45A1.57,1.57,0,0,1,282.62,190.35Zm3,20.45h-2.76V194.64h2.76Z"/><path class="cls-1" d="M293.78,190.72v3.92h3v2.13h-3v10a2.25,2.25,0,0,0,.41,1.46,1.7,1.7,0,0,0,1.37.48,6.72,6.72,0,0,0,1.32-.18v2.23a8,8,0,0,1-2.13.3A3.43,3.43,0,0,1,292,210a4.81,4.81,0,0,1-.94-3.18v-10h-2.94v-2.13H291v-3.92Z"/><path class="cls-1" d="M305.31,206.75l3.77-12.11h3l-6.5,18.65q-1.52,4-4.8,4l-.52-.05-1-.19v-2.24l.75.06a3.64,3.64,0,0,0,2.18-.57,4.08,4.08,0,0,0,1.3-2.08l.61-1.64-5.77-16h3Z"/><path class="cls-1" d="M321.34,202.57a9.44,9.44,0,0,1,.94-4.27,6.92,6.92,0,0,1,2.59-2.93,7.06,7.06,0,0,1,3.81-1,6.83,6.83,0,0,1,5.34,2.28,8.8,8.8,0,0,1,2,6.08v.2a9.65,9.65,0,0,1-.9,4.23,6.8,6.8,0,0,1-2.58,2.92,7.14,7.14,0,0,1-3.86,1,6.78,6.78,0,0,1-5.33-2.29,8.74,8.74,0,0,1-2-6.05Zm2.78.33a6.9,6.9,0,0,0,1.25,4.31,4.22,4.22,0,0,0,6.68,0,7.53,7.53,0,0,0,1.24-4.62,6.92,6.92,0,0,0-1.26-4.31,4,4,0,0,0-3.35-1.65,3.94,3.94,0,0,0-3.3,1.63A7.47,7.47,0,0,0,324.12,202.9Z"/><path class="cls-1" d="M340.88,210.8v-14h-2.55v-2.13h2.55V193a5.5,5.5,0,0,1,1.39-4,5.25,5.25,0,0,1,3.93-1.42,7.61,7.61,0,0,1,1.89.25l-.15,2.23a7.8,7.8,0,0,0-1.49-.13,2.71,2.71,0,0,0-2.08.78,3.25,3.25,0,0,0-.73,2.26v1.71h3.45v2.13h-3.45v14Z"/><path class="cls-1" d="M364.55,201.11a13.53,13.53,0,0,1-5.37-2.61,5,5,0,0,1-1.68-3.82,5.27,5.27,0,0,1,2.06-4.25,8.17,8.17,0,0,1,5.34-1.68,8.87,8.87,0,0,1,4,.87,6.55,6.55,0,0,1,2.72,2.39,6.11,6.11,0,0,1,1,3.33h-2.89a4,4,0,0,0-1.25-3.11,5.14,5.14,0,0,0-3.54-1.13,5.23,5.23,0,0,0-3.31.93,3.14,3.14,0,0,0-1.19,2.6,2.8,2.8,0,0,0,1.13,2.25,10.92,10.92,0,0,0,3.84,1.69,17.08,17.08,0,0,1,4.24,1.68,6.36,6.36,0,0,1,2.27,2.14,5.51,5.51,0,0,1,.74,2.88,5.09,5.09,0,0,1-2.06,4.24,8.8,8.8,0,0,1-5.51,1.59,10.22,10.22,0,0,1-4.18-.86,7,7,0,0,1-3-2.35,5.77,5.77,0,0,1-1.05-3.39h2.88a3.75,3.75,0,0,0,1.46,3.11,6.12,6.12,0,0,0,3.89,1.14,5.63,5.63,0,0,0,3.48-.92,3,3,0,0,0,1.21-2.53,3,3,0,0,0-1.12-2.47A12.82,12.82,0,0,0,364.55,201.11Z"/><path class="cls-1" d="M375.88,190.35a1.59,1.59,0,0,1,.41-1.13,1.53,1.53,0,0,1,1.21-.47,1.58,1.58,0,0,1,1.23.47,1.6,1.6,0,0,1,.42,1.13,1.57,1.57,0,0,1-.42,1.12,1.6,1.6,0,0,1-1.23.45,1.48,1.48,0,0,1-1.62-1.57Zm3,20.45H376.1V194.64h2.76Z"/><path class="cls-1" d="M385.9,194.64l.09,2a5.9,5.9,0,0,1,4.84-2.33c3.41,0,5.14,1.93,5.17,5.78V210.8h-2.77V200.1a3.69,3.69,0,0,0-.8-2.58,3.18,3.18,0,0,0-2.44-.84,4,4,0,0,0-2.36.72,5,5,0,0,0-1.58,1.88V210.8h-2.76V194.64Z"/><path class="cls-1" d="M399.51,202.58a9.54,9.54,0,0,1,1.74-6,6,6,0,0,1,9.25-.14l.14-1.79h2.52v15.77a6.6,6.6,0,0,1-1.86,5,6.89,6.89,0,0,1-5,1.8,8.46,8.46,0,0,1-3.42-.74,5.92,5.92,0,0,1-2.55-2l1.43-1.66a5.41,5.41,0,0,0,4.35,2.2,4.22,4.22,0,0,0,3.14-1.14,4.33,4.33,0,0,0,1.13-3.19v-1.39a5.68,5.68,0,0,1-4.52,1.91,5.51,5.51,0,0,1-4.6-2.29A10,10,0,0,1,399.51,202.58Zm2.78.32a7.21,7.21,0,0,0,1.12,4.29,3.63,3.63,0,0,0,3.13,1.56,4,4,0,0,0,3.84-2.37V199a4.09,4.09,0,0,0-3.81-2.32,3.69,3.69,0,0,0-3.15,1.57A7.9,7.9,0,0,0,402.29,202.9Z"/><path class="cls-1" d="M427.31,210.8a5.83,5.83,0,0,1-.39-1.7,6.19,6.19,0,0,1-4.6,2,5.69,5.69,0,0,1-3.92-1.35,4.39,4.39,0,0,1-1.54-3.43,4.57,4.57,0,0,1,1.92-3.92,9.06,9.06,0,0,1,5.4-1.4h2.69v-1.27a3.16,3.16,0,0,0-.86-2.31,3.5,3.5,0,0,0-2.56-.86,4,4,0,0,0-2.48.75,2.2,2.2,0,0,0-1,1.81h-2.78a3.83,3.83,0,0,1,.86-2.34,5.78,5.78,0,0,1,2.33-1.78,7.82,7.82,0,0,1,3.24-.66,6.32,6.32,0,0,1,4.37,1.4,5,5,0,0,1,1.65,3.84V207a9.1,9.1,0,0,0,.56,3.54v.24Zm-4.59-2.11a4.79,4.79,0,0,0,2.46-.67,4.06,4.06,0,0,0,1.69-1.75V203h-2.16q-5.08,0-5.08,3a2.53,2.53,0,0,0,.86,2A3.33,3.33,0,0,0,422.72,208.69Z"/><path class="cls-1" d="M447.62,202.9a9.62,9.62,0,0,1-1.69,5.94,5.39,5.39,0,0,1-4.57,2.26,5.92,5.92,0,0,1-4.63-1.87V217H434V194.64h2.52l.14,1.79a5.68,5.68,0,0,1,4.69-2.09,5.49,5.49,0,0,1,4.6,2.2,9.77,9.77,0,0,1,1.7,6.1Zm-2.76-.32a7.09,7.09,0,0,0-1.17-4.31,3.75,3.75,0,0,0-3.19-1.59,4.08,4.08,0,0,0-3.77,2.23v7.72a4.06,4.06,0,0,0,3.79,2.21,3.72,3.72,0,0,0,3.16-1.57A7.81,7.81,0,0,0,444.86,202.58Z"/><path class="cls-1" d="M450.4,202.57a9.56,9.56,0,0,1,.93-4.27,6.94,6.94,0,0,1,2.6-2.93,7.05,7.05,0,0,1,3.8-1,6.83,6.83,0,0,1,5.34,2.28,8.8,8.8,0,0,1,2,6.08v.2a9.65,9.65,0,0,1-.9,4.23,6.82,6.82,0,0,1-2.59,2.92,7.11,7.11,0,0,1-3.86,1,6.77,6.77,0,0,1-5.32-2.29,8.74,8.74,0,0,1-2-6.05Zm2.78.33a6.9,6.9,0,0,0,1.24,4.31,4.23,4.23,0,0,0,6.69,0,7.6,7.6,0,0,0,1.24-4.62,6.92,6.92,0,0,0-1.26-4.31,4,4,0,0,0-3.36-1.65,4,4,0,0,0-3.3,1.63A7.47,7.47,0,0,0,453.18,202.9Z"/><path class="cls-1" d="M476.39,197.12A8.23,8.23,0,0,0,475,197a3.65,3.65,0,0,0-3.69,2.32V210.8h-2.76V194.64h2.69l0,1.86a4.31,4.31,0,0,1,3.85-2.16,2.83,2.83,0,0,1,1.23.21Z"/><path class="cls-1" d="M485.35,211.1a7.07,7.07,0,0,1-5.35-2.16,8,8,0,0,1-2.06-5.77v-.51a9.77,9.77,0,0,1,.92-4.3,7.18,7.18,0,0,1,2.57-3,6.47,6.47,0,0,1,3.58-1.07,6,6,0,0,1,4.9,2.08,9,9,0,0,1,1.74,5.94v1.15H480.71a5.75,5.75,0,0,0,1.39,3.86,4.4,4.4,0,0,0,3.4,1.47,4.89,4.89,0,0,0,2.48-.59,6.24,6.24,0,0,0,1.78-1.59l1.69,1.32A6.8,6.8,0,0,1,485.35,211.1ZM485,196.61a3.7,3.7,0,0,0-2.81,1.22,5.9,5.9,0,0,0-1.41,3.41h8.1V201a5.3,5.3,0,0,0-1.13-3.26A3.49,3.49,0,0,0,485,196.61Z"/></g></svg>