<svg id="nus" xmlns="http://www.w3.org/2000/svg" viewBox="0 0 500 230"><defs><style>.cls-1{fill:#fff;}</style></defs><path class="cls-1" d="M201.06,133.84h4.56L216,152.71H216V133.84h3.36v23.43h-4.3L204.48,138h-.06v19.26h-3.36Z"/><path class="cls-1" d="M235.2,150.63c0,2.55-1.65,4.5-4.77,4.5a3,3,0,0,1-3.19-2.79c0-3,4.23-3.29,5.95-3.29.67,0,1.33.07,2,.07ZM226,144a8.06,8.06,0,0,1,5-1.74c3.15,0,4.23,1.51,4.23,4.47-1.24-.07-2.12-.07-3.36-.07-3.25,0-8,1.34-8,5.64,0,3.72,2.59,5.34,6.28,5.34a6.37,6.37,0,0,0,5.31-2.62h.06v2.21h3a26,26,0,0,1-.14-3.36v-7.08c0-4.66-2-7.08-6.88-7.08a10.91,10.91,0,0,0-5.64,1.61Z"/><path class="cls-1" d="M252.79,142.7h-4.54v9.37c0,2,1.22,3.06,2.66,3.06a3.93,3.93,0,0,0,2.15-.61v2.69a10,10,0,0,1-2.69.47c-3.26,0-5.27-1.55-5.27-5v-10h-3.86v-2.55h3.86v-4l3.15-1v5h4.54Z"/><path class="cls-1" d="M257.15,157.27h3.16V140.15h-3.16Zm3.36-24.5H257v3.56h3.56Z"/><path class="cls-1" d="M268.3,148.71c0-3.25,2-6.41,5.37-6.41s5.34,3.16,5.34,6.41c0,3.06-1.65,6.42-5.34,6.42S268.3,151.77,268.3,148.71Zm-3.36,0a8.71,8.71,0,1,0,17.42,0c0-5.2-3.49-9-8.69-9S264.94,143.51,264.94,148.71Z"/><path class="cls-1" d="M286.6,140.15h3v2.72h.07a6.16,6.16,0,0,1,5.6-3.12c4.43,0,6.42,2.75,6.42,7.35v10.17h-3.16v-8.86c0-4-.87-5.94-3.63-6.11-3.59,0-5.2,2.89-5.2,7v7.92H286.6Z"/><path class="cls-1" d="M317.28,150.63c0,2.55-1.65,4.5-4.77,4.5a3,3,0,0,1-3.19-2.79c0-3,4.23-3.29,5.94-3.29.67,0,1.35.07,2,.07Zm-9.2-6.59a8.06,8.06,0,0,1,5-1.74c3.16,0,4.24,1.51,4.24,4.47-1.24-.07-2.12-.07-3.36-.07-3.25,0-8,1.34-8,5.64,0,3.72,2.59,5.34,6.28,5.34a6.37,6.37,0,0,0,5.31-2.62h.06v2.21h3a26,26,0,0,1-.14-3.36v-7.08c0-4.66-2-7.08-6.88-7.08a10.91,10.91,0,0,0-5.64,1.61Z"/><path class="cls-1" d="M326.18,132.09h3.15v25.18h-3.15Z"/><path class="cls-1" d="M362,147.57c0,6.58-3.32,10.11-9.09,10.11s-9.1-3.53-9.1-10.11V133.84h3.36v13.3c0,4.5,1.4,7.58,5.74,7.58s5.74-3.08,5.74-7.58v-13.3H362Z"/><path class="cls-1" d="M367.74,140.15h3.06v2.72h.06a6.19,6.19,0,0,1,5.61-3.12c4.43,0,6.42,2.75,6.42,7.35v10.17h-3.16v-8.86c0-4-.88-5.94-3.63-6.11-3.59,0-5.21,2.89-5.21,7v7.92h-3.15Z"/><path class="cls-1" d="M388.65,140.15h3.16v17.12h-3.16Zm3.36-3.82h-3.55v-3.56H392Z"/><path class="cls-1" d="M405.17,157.27h-3.76l-6.14-17.12h3.46l4.63,14h.07l4.73-14h3.16Z"/><path class="cls-1" d="M416.59,147.07c.23-2.22,1.51-4.77,4.6-4.77,2.71,0,4.26,2.15,4.26,4.77Zm10.91,6.35a10.22,10.22,0,0,1-5.27,1.71,5.6,5.6,0,0,1-5.64-5.71h12.22c0-5.5-1.85-9.67-7.56-9.67-4.83,0-8,3.59-8,8.66,0,5.57,2.79,9.27,8.86,9.27a13.24,13.24,0,0,0,5.41-1.11Z"/><path class="cls-1" d="M433,140.15H436v2.65h.07a5.2,5.2,0,0,1,4.46-3.05,8.71,8.71,0,0,1,2.09.24v2.81a4.81,4.81,0,0,0-1.75-.3c-2.82,0-4.67,2.69-4.67,7v7.78H433Z"/><path class="cls-1" d="M444.82,153.91a8.4,8.4,0,0,0,3.93,1.22c1.44,0,3.22-.61,3.22-2.45,0-3.13-7.42-2.86-7.42-7.66,0-3.56,2.65-5.27,6.05-5.27a13.13,13.13,0,0,1,3.92.67l-.27,2.76a9.11,9.11,0,0,0-3.32-.88c-1.61,0-3,.67-3,2.09,0,3.48,7.42,2.48,7.42,8,0,3.66-2.92,5.34-6,5.34a9.89,9.89,0,0,1-4.7-.94Z"/><path class="cls-1" d="M459.55,140.15h3.16v17.12h-3.16Zm3.36-3.82h-3.55v-3.56h3.55Z"/><path class="cls-1" d="M477.58,142.7h-4.52v9.37c0,2,1.2,3.06,2.64,3.06a3.9,3.9,0,0,0,2.15-.61v2.69a9.84,9.84,0,0,1-2.68.47c-3.26,0-5.27-1.55-5.27-5v-10H466v-2.55h3.86v-4l3.16-1v5h4.52Z"/><path class="cls-1" d="M480.27,161.91a4.93,4.93,0,0,0,1.47.27c2.82,0,3.77-3.9,3.77-4.23a9,9,0,0,0-.61-1.82l-5.81-16h3.46l4.6,14.18h.07l4.7-14.18h3.19l-6.31,17.49c-1.18,3.29-2.42,7.09-6.58,7.09a10.33,10.33,0,0,1-2.15-.24Z"/><path class="cls-1" d="M203,188.39c0-3.25,2-6.41,5.38-6.41s5.33,3.16,5.33,6.41c0,3.05-1.64,6.41-5.33,6.41S203,191.44,203,188.39Zm-3.35,0a8.71,8.71,0,1,0,17.42,0c0-5.2-3.49-9-8.69-9S199.65,183.19,199.65,188.39Z"/><path class="cls-1" d="M223.34,182.38h-4v-2.55h4v-1.58c0-4.16,1.08-6.88,5.75-6.88a12.82,12.82,0,0,1,2.11.2l-.13,2.55a5.16,5.16,0,0,0-1.51-.2c-2.72,0-3.06,1.75-3.06,4.06v1.85H231v2.55H226.5V197h-3.16Z"/><path class="cls-1" d="M253.7,177a10.32,10.32,0,0,0-4.39-1c-1.89,0-4.1.67-4.1,3.12,0,4.5,10.07,3.46,10.07,11.18,0,5-3.86,7-8.56,7a15.79,15.79,0,0,1-4.8-1l.33-3.12a14.24,14.24,0,0,0,4.87,1.14c1.92,0,4.6-1.07,4.6-3.83,0-5.23-10.07-3.79-10.07-11.07,0-4.17,3.29-6.38,7.52-6.38a15.59,15.59,0,0,1,5,.83Z"/><path class="cls-1" d="M259.94,179.83h3.16V197h-3.16ZM263.3,176h-3.55v-3.55h3.55Z"/><path class="cls-1" d="M268.88,179.83h3.05v2.72H272a6.15,6.15,0,0,1,5.6-3.13c4.44,0,6.42,2.76,6.42,7.36V197h-3.16v-8.86c0-4-.87-5.94-3.63-6.11-3.59,0-5.2,2.89-5.2,7.05V197h-3.15Z"/><path class="cls-1" d="M296.37,194.4c-2.95,0-4.76-2.82-4.76-6,0-2.92,1.58-6.38,4.76-6.38,3.36,0,5,3.05,5,6.61C301.37,191.78,299.33,194.4,296.37,194.4Zm8.16-14.57h-2.92v2.55h-.07c-.94-1.84-2.61-3-5.64-3-5.17,0-7.65,4.71-7.65,9.11s2.41,8.42,7.31,8.42a7.14,7.14,0,0,0,5.75-2.65h.06V196c0,3.62-2,5.87-5.3,5.87a13.13,13.13,0,0,1-6.18-1.54l-.33,2.92a17.27,17.27,0,0,0,6.14,1.17c6.14,0,8.83-3,8.83-8.19Z"/><path class="cls-1" d="M320.07,190.3c0,2.55-1.64,4.5-4.77,4.5a3,3,0,0,1-3.18-2.79c0-3,4.23-3.28,5.94-3.28.67,0,1.34.07,2,.07Zm-9.19-6.58a8,8,0,0,1,5-1.74c3.16,0,4.23,1.51,4.23,4.46-1.24-.07-2.11-.07-3.35-.07-3.26,0-8,1.35-8,5.64,0,3.73,2.58,5.35,6.27,5.35a6.37,6.37,0,0,0,5.31-2.63h.07V197h2.95a29,29,0,0,1-.13-3.36v-7.08c0-4.67-2-7.09-6.88-7.09a10.89,10.89,0,0,0-5.64,1.62Z"/><path class="cls-1" d="M341.49,188.32c.07,2.69-1.34,6.48-4.74,6.48-3.55,0-5-3.52-5-6.38,0-3.18,1.65-6.44,5.07-6.44S341.56,185.24,341.49,188.32ZM328.57,204h3.15v-9.4h.07c1,1.58,2.68,2.76,5.71,2.76,5.17,0,7.35-4.57,7.35-9.27s-2.42-8.67-7.39-8.67a6.85,6.85,0,0,0-5.81,2.83h-.06v-2.42h-3Z"/><path class="cls-1" d="M351.29,188.39c0-3.25,2-6.41,5.37-6.41s5.34,3.16,5.34,6.41c0,3.05-1.64,6.41-5.34,6.41S351.29,191.44,351.29,188.39Zm-3.35,0a8.71,8.71,0,1,0,17.42,0c0-5.2-3.49-9-8.7-9S347.94,183.19,347.94,188.39Z"/><path class="cls-1" d="M369.59,179.83h3v2.65h.07a5.21,5.21,0,0,1,4.47-3.06,9.23,9.23,0,0,1,2.08.24v2.82a4.81,4.81,0,0,0-1.75-.3c-2.82,0-4.67,2.69-4.67,7V197h-3.15Z"/><path class="cls-1" d="M384.86,186.74c.24-2.21,1.51-4.76,4.6-4.76,2.72,0,4.27,2.15,4.27,4.76Zm10.91,6.35a10.09,10.09,0,0,1-5.27,1.71,5.6,5.6,0,0,1-5.64-5.7h12.22c0-5.51-1.84-9.68-7.55-9.68-4.83,0-8,3.6-8,8.67,0,5.57,2.78,9.27,8.86,9.27a13.14,13.14,0,0,0,5.4-1.11Z"/><path class="cls-1" d="M418.06,87.13c6.42,5.92,19.09,11.33,34.57,11.57,13.56.23,24.5-3.85,25.17-15.09,1.44-24.34-61-14.6-58.56-55.69C420.45,7.36,440.86.55,462.88.92c11.91.2,23.81,3,30.33,6.34l0,14.6A55.4,55.4,0,0,0,465,12.75c-14-.25-25.06,2.32-25.24,12.53-.38,21.3,62.59,16.19,60.18,56.94-1.35,23-23.65,30-47,29.56-13.43-.18-26.57-2.91-34.85-7.15Z"/><path class="cls-1" d="M359,111.9c-29,0-45.69-13-45.69-39.81v-68h21.74v68c0,16.65,8,26.75,23.94,26.75S383,88.74,383,72.09v-68h21.73v68C404.69,98.87,388,111.9,359,111.9Z"/><path class="cls-1" d="M278,4.09v76.6L228.19,9.51A13,13,0,0,0,217.6,4.09H201.11V108.53H215.6V31.89l49.73,71a13.17,13.17,0,0,0,10.77,5.67h16.4V4.09Z"/><path class="cls-1" d="M164.06,104.81a8.19,8.19,0,0,0-4.57-5.67c-5.84-3.1-13.46-.93-20.15,1.35a54.35,54.35,0,0,1-12.29,3.11c-4.32.67-18.77,2.54-23.33-1.24a4.39,4.39,0,0,1-1.38-2.49,6.5,6.5,0,0,1,1.13-4.05c1.15-1.26,3.84-1.88,8.23-1.88l11.18.18c.7.9,2.49,2.35,7,3.32,7.23,1.54,15.18-1,15.18-1a6.66,6.66,0,0,1-2.41-1.08,2.18,2.18,0,0,1-.88-1.81,9.11,9.11,0,0,0,3.91.7c2.89-.08,4.23-1.45,6.92-2.14a15.33,15.33,0,0,1,5.7-.12s-2.72-2.91-5.42-3.43a18.64,18.64,0,0,0-6.06.18,8,8,0,0,0,1.85-1.28,3.68,3.68,0,0,0,1-2,18,18,0,0,1-6.51,1.08c-3.28-.17-3-1.35-9.39-1.52C129,85,125,87.81,123.32,89.2c-5.15-.33-9.21-.51-11.59-.51-6.55,0-10.33,1.07-12.64,3.58a10.2,10.2,0,0,0-2.5,8.08,9,9,0,0,0,3.37,6.34c6.11,5.06,22.51,3.5,28.31,2.48a70.22,70.22,0,0,0,12.21-2.9l.21-.07c2.92-1,11.78-3.94,15.49-2a3.39,3.39,0,0,1,1.59,2.29,5.29,5.29,0,0,1,.21,1.4,3,3,0,0,1-.71,2c-3.38,4.14-16.11,4.85-21.64,5.14a44.08,44.08,0,0,0-9.21-1c-3.28,0-6,.19-8.94.41a93,93,0,0,1-19.93-.22,68.43,68.43,0,0,1-11.18-2.15,6.31,6.31,0,0,0-1.81-3.48c2.19.71,5-1.7,5.84-2.9,0-.11-3.89-1.14-4.12-3.66,0-.08,2.75.23,3.89-3.54-2.75-1.49-1.88-2-3.2-3.89a5.58,5.58,0,0,0-4.92-2.4,3.72,3.72,0,0,0,1.82-.46c1.2-.6,2-2.24,3.21-2.18-2.39-3.74-8.81-4.23-11.47-3.44.68-.85,1.73-1.79,1.75-3-3.55,1-7-.87-10.61-.19-3,.55-4.65,1.75-5.58,4.57H61c-.93-2.82-2.62-4-5.59-4.57-3.58-.68-7.06,1.17-10.61.19,0,1.17,1.07,2.11,1.75,3-2.66-.79-9.08-.3-11.47,3.44,1.19-.06,2,1.58,3.21,2.18a3.3,3.3,0,0,0,1.83.46,5.57,5.57,0,0,0-4.92,2.4C33.9,96.48,34.77,97,32,98.52c1.15,3.77,3.9,3.46,3.9,3.54-.23,2.52-4.12,3.55-4.12,3.66.8,1.2,3.64,3.61,5.83,2.9-1.8,2-2.1,3.55-1.68,5.57a38.88,38.88,0,0,1-7-6.39,65.77,65.77,0,0,1-2.16-6.49l-.59-1.94-.29-1c-.88-3.22-1.72-5.9-3.18-6.26a7.33,7.33,0,0,0-2.16-.2,4.39,4.39,0,0,0-2-1.87A3.85,3.85,0,0,0,16,89.86a6.62,6.62,0,0,1,1.83,2,3.64,3.64,0,0,1,.24.73,5.31,5.31,0,0,0-.82.55l-.12.1c-.17.14-.41.34-.66.57a1.59,1.59,0,0,0-.35-.08,3.76,3.76,0,0,0-2.51.28,7.72,7.72,0,0,1,1.66,1.11,5.57,5.57,0,0,0-1.11,3.29c0,.13,0,.27,0,.41a3.81,3.81,0,0,0-2.3.74,6.73,6.73,0,0,1,2.43,1.22,2.85,2.85,0,0,1,.23.26l-.14.15a3.21,3.21,0,0,0-.49,1.76A5.94,5.94,0,0,0,15.87,107l3.3,2.72a28.42,28.42,0,0,0,3.37,6c.27.34,2.11,3.51,4.06,6.86l.8,1.37c.42,2.06.89,4.62,1.1,6.64a45,45,0,0,1,0,7.66,4.91,4.91,0,0,0,3.41-1.64,15.27,15.27,0,0,1,.74,5.37,42.75,42.75,0,0,1-.66,5.07,24.27,24.27,0,0,0,4-2.74,14.82,14.82,0,0,0,2.28-2.86c1.89,1.21,7.3-.72,10-1.8a23.4,23.4,0,0,0,2.25,3.6c.39-1.62,2.12-2.43,2.93-3.73h.73c.1,1.78-.41,3.44,1.27,6.76A38.79,38.79,0,0,0,60,152.48c-.64,3-1.85,8.48-3.11,13a41.85,41.85,0,0,1-3.28,8.87c-1.92.09-5.46.21-6.58.16-2.69-.13-4.68.43-5.91,1.67-.09.09-.16.19-.24.28a4.32,4.32,0,0,0-2.6,1.08,3.9,3.9,0,0,0-1.18,2.23,6.56,6.56,0,0,1,2.58-.85l.23,0v.23a4,4,0,0,0,.41,1.18,2.52,2.52,0,0,0-.47.45,3.86,3.86,0,0,0-1,2.31,6.57,6.57,0,0,1,2.48-1c.34.54.73,1.11,1.14,1.66l-.14.18a3.83,3.83,0,0,0-.84,2.37,7.18,7.18,0,0,1,2.11-1.13,11.48,11.48,0,0,0,1,1c1.61,1.42,5.63.5,10.71-.86l3.16-.78a6.19,6.19,0,0,0,4.62-3,11.25,11.25,0,0,0,.81-2.07l.3-.89a23.54,23.54,0,0,1,2.64-5.47c0-.07,1.41-2.26,3.26-5.28,1.65-1.37,3.63-3,5.07-3.93,2.2-1.49,6.58-3.72,6.58-3.72a4.93,4.93,0,0,0-2.91-2.16,16,16,0,0,1,4.1-3.11,26,26,0,0,1,4.87-1.43,8.52,8.52,0,0,0-2.54-3,8.83,8.83,0,0,0,2-1.07c3.69-2.41,6.42-2.33,9-1.6a3.56,3.56,0,0,0-1.77-3.66,24,24,0,0,1,3.81-1.28c.84,1.45,1.8,3.05,2.23,3.67a75.79,75.79,0,0,0,7.09,8.74.45.45,0,0,1,.09.32c0,1-1.19,3.66-1.86,5.2l-.59,1.33-3,7.09c-1.36.08-5.3.29-6.68.22-2.62-.12-4.56.43-5.76,1.63a4.24,4.24,0,0,0-.41.46,4.59,4.59,0,0,0-2.72,1.27,4,4,0,0,0-1,2.3,6.66,6.66,0,0,1,2.52-1,3.88,3.88,0,0,1,.49,0,4.3,4.3,0,0,0,.45,1.21,2.59,2.59,0,0,0-.64.64,3.93,3.93,0,0,0-.85,2.38A6.55,6.55,0,0,1,90,177.14h.12c.27.41.55.82.85,1.23a1.81,1.81,0,0,0-.29.33,3.87,3.87,0,0,0-.84,2.38,6.58,6.58,0,0,1,2.35-1.19,10.44,10.44,0,0,0,1,1c1.55,1.37,4.85.55,9.35-.74l3.21-.84a6,6,0,0,0,4.51-2.9l.85-1.81a22.51,22.51,0,0,1,1.19-2.51c.52-.82,1.07-1.81,1.63-2.87.75-.65,1.45-1.24,2-1.62a57.76,57.76,0,0,1,5.08-3.1,3.13,3.13,0,0,0-2.22-1.75,14.51,14.51,0,0,1,3.21-2.65,14.51,14.51,0,0,1,3.72-1.16,16.35,16.35,0,0,0-3-2,8.92,8.92,0,0,0-1.85-.49,6.58,6.58,0,0,0-1.19-2.67c-1.27-2,.6-6.22,1.94-8.63a51.53,51.53,0,0,0,3.91,4.78l7.92,8.67a85.54,85.54,0,0,1-2.63,8.58,65.64,65.64,0,0,1-3.28,7.26c-1.56.09-5.1.27-6.4.21-2.61-.12-4.55.42-5.76,1.63a4,4,0,0,0-.5.62,4.15,4.15,0,0,0-2.33,1.23,3.93,3.93,0,0,0-1,2.32,4.2,4.2,0,0,1,2.5-1h.19a5.8,5.8,0,0,0,.48,1.2,2.51,2.51,0,0,0-.63.63,3.87,3.87,0,0,0-.84,2.38,6.47,6.47,0,0,1,2.42-1.21h.12c.34.52.71,1,1.09,1.54l0,0a3.85,3.85,0,0,0-.84,2.38,7.33,7.33,0,0,1,1.95-1.09,10.55,10.55,0,0,0,.82.82c1.55,1.37,4.86.55,9.38-.75l3.18-.83a6.07,6.07,0,0,0,4.51-2.9c.44-.72,2.41-5.32,3-6.65,1-2.39,2.07-4.86,3.13-7.11.53-.45,1-.86,1.44-1.14,1.77-1.23,5.57-3.4,5.57-3.4a3.15,3.15,0,0,0-2.21-1.75,21.26,21.26,0,0,1,3-2.4,14.13,14.13,0,0,1,3.93-1.4,19.41,19.41,0,0,0-3.12-1.95,11.82,11.82,0,0,0-2.6-.66,2.41,2.41,0,0,0-1.59-1.85,9.36,9.36,0,0,1-3.24-2.66c-1.95-2.3-2.24-6.68-2.24-11.05,0-1,0-1.93,0-2.86v-4.2a40.61,40.61,0,0,0-1.53-10.65c6.43-.59,18.23-1.89,23.06-7.8a9.45,9.45,0,0,0,2.18-6.11A12,12,0,0,0,164.06,104.81ZM39.18,140.13c-1.5-1.66-7.33-11.7-11.19-18.34-2.91-5-3.95-6.79-4.24-7.12a28.68,28.68,0,0,1-3.2-5.75l-.07-.17L17,105.84a4,4,0,0,1-1.38-3.24,1.47,1.47,0,0,0,1.32.05c1.3-.65,1.33-1.59,1.33-1.59a9.91,9.91,0,0,0-2.36-1.83,3.84,3.84,0,0,1,.36-2.57,2.71,2.71,0,0,1,.12.76,2,2,0,0,0,1.59.48,2.09,2.09,0,0,0,1.61-1.22,10.26,10.26,0,0,0-1.65-2l.25-.2.13-.11a3,3,0,0,1,.39-.28,2,2,0,0,0,.94.29c1.64.07,1.79-.9,1.79-.9h0a5.17,5.17,0,0,1,.91.14c.48.23,1.16,2,2,5.12l.3,1.08.59,1.94c1.31,4.31,2,6.4,2.42,7,1.87,2.48,5.61,5.49,9,8,.16.47.33,1,.51,1.5.63,1.89,2.78,5.22,3.56,6.92a9,9,0,0,1,.86,6c2.44-.31,4.33-1,5.37-2.6.53,3.34-.69,5.71.72,9.59C43.74,139.75,39.76,140.67,39.18,140.13ZM55.5,122.79a21.11,21.11,0,0,1-1-4c-.2-.06-2.79-1.79-2.79-1.79s0-5.15,0-5.13-6.5-7.94-6.54-7.88S47.44,100,47.44,100a.31.31,0,0,0,0-.07c-1-.69-3.41-2.69-2.12-5.11s4.49-1.52,5.42-1.14c.13-.13,7.07-3.15,7.16-3.09-.06,0,2.7,3.21,2.7,3.21s2.77-3.26,2.71-3.21c.09-.06,7,3,7.16,3.09.93-.38,4.06-1.42,5.42,1.14s-1.12,4.42-2.13,5.11l0,.07s2.26,4,2.24,3.95-6.54,7.88-6.53,7.88,0,5.13,0,5.13-2.57,1.73-2.77,1.79a21.91,21.91,0,0,1-1,4c-.15.34-2.62,1.07-5,1.11h-.19C58.12,123.86,55.64,123.13,55.5,122.79ZM117.56,152a4.71,4.71,0,0,0,.67,2.59,4.5,4.5,0,0,1,1,2.05c0,.57-.43,1-1.29,1.79s-2.2,3.45-3.67,6.45c-1.13,2.3-2.3,4.67-3.33,6.3a21.92,21.92,0,0,0-1.32,2.73l-.74,1.62a4.49,4.49,0,0,1-3.44,2.15l-3.35.87c-2.31.67-6,1.73-7.46,1.28a1.61,1.61,0,0,0,.63-1,2.91,2.91,0,0,0-.41-1.93,10.36,10.36,0,0,0-2.49.61l-.21-.3a2.32,2.32,0,0,0,.79-1.31,2.21,2.21,0,0,0-.35-1.72,10.68,10.68,0,0,0-2.06.45l-.14-.28a1.69,1.69,0,0,0,.86-1.06,2.36,2.36,0,0,0,0-1.3,6.55,6.55,0,0,1,4.28-.93c1.76.09,7.13-.24,7.35-.25l.5,0,3.4-8,.58-1.31c1.09-2.48,2-4.47,2-5.86a1.92,1.92,0,0,0-.53-1.44,73.44,73.44,0,0,1-6.91-8.54c-.36-.51-1.13-1.79-1.88-3.06a20.17,20.17,0,0,1,7.35.34,3.2,3.2,0,0,0-1.69-3,31.84,31.84,0,0,1,10.24-1.13,5.65,5.65,0,0,0,.37.57A15.49,15.49,0,0,0,119,142l.54.35c.41.58.75,1,1,1.31C119.66,145.06,117.56,148.87,117.56,152Zm43.52-39c-4.64,5.68-17,6.78-22.93,7.3l-1,.1.33,1a37.91,37.91,0,0,1,1.74,11.13v4.14c-.08,5.49-.17,11.72,2.6,15a10.82,10.82,0,0,0,3.73,3.05c.69.35.73.37.8,1.12a4.92,4.92,0,0,1-1.13,2.31l-1.07,1.68a140.46,140.46,0,0,0-6.9,14.51c-.69,1.68-2.52,5.89-2.84,6.42a4.5,4.5,0,0,1-3.44,2.16l-3.33.87c-2.12.61-5.42,1.56-7.07,1.36a1.76,1.76,0,0,0,.73-1.09,2.64,2.64,0,0,0-.36-1.88,9.71,9.71,0,0,0-2.87.77l-.31-.42a1.5,1.5,0,0,0,.76-1.18,3,3,0,0,0-.34-1.9,10.87,10.87,0,0,0-2.08.45l-.12-.23a2.53,2.53,0,0,0,.92-1,2.35,2.35,0,0,0,0-1.59,6.85,6.85,0,0,1,4.1-.8c1.45.06,5.4-.14,7-.24l.45,0,.21-.41a69.7,69.7,0,0,0,3.58-7.86,88.72,88.72,0,0,0,2.78-9.17l.09-.42-8.49-9.29a39.3,39.3,0,0,1-4.44-5.61l0-.07,0-.06a36.73,36.73,0,0,1-2.74-3.8l-.62-1a29.25,29.25,0,0,0-3.55-5,44,44,0,0,0-3.92-3.22l-1.17,1.06,2,3.41-33.91,9.91.21.77a20.08,20.08,0,0,1,.76,3.95,1.69,1.69,0,0,1,0,.25c-.4,1.3-10.3,17.49-13.65,22.85a25.72,25.72,0,0,0-2.8,5.79l-.31.91a12.62,12.62,0,0,1-.65,1.74A4.62,4.62,0,0,1,58.16,183l-3.27.81c-2.59.69-7.19,1.91-8.83,1.4a1.23,1.23,0,0,0,.58-.83,2.76,2.76,0,0,0-.19-2.25,10.26,10.26,0,0,0-2.7.7l-.35-.49a1.62,1.62,0,0,0,.7-.84,2.77,2.77,0,0,0,0-2.18,10.9,10.9,0,0,0-2.36.36l-.15-.32a2.19,2.19,0,0,0,1-.9,2.36,2.36,0,0,0,.14-1.56,7.27,7.27,0,0,1,4.17-.8c1.3.06,5.42-.09,7.17-.18l.42,0,.22-.36c.66-1.07,2-3.74,3.67-9.64,1.21-4.32,2.39-9.57,3.06-12.69,1.65-1.31,4.7-5.81,5.25-6.9,2.18-4.33.65-5.84,1.6-8.46-.26,2.52,2.79,3.21,3.33,5.43,5.44-7.34,2.85-10.09,3.58-14.67,1.05,1.57,2.93,2.3,5.37,2.6a9,9,0,0,1,.86-6c.78-1.7,2.93-5,3.56-6.93a29.08,29.08,0,0,0,1.31-4.48,70.66,70.66,0,0,0,11,2.09,94,94,0,0,0,20.23.23c2.88-.21,5.6-.42,8.81-.4a42.75,42.75,0,0,1,9,1l.11,0h.15c6.65-.36,19-1,22.89-5.73a5.05,5.05,0,0,0,.8-4.84,4.86,4.86,0,0,0-2.38-3.28c-4.33-2.3-13.36.72-16.75,1.85l-.22.07a67.93,67.93,0,0,1-12,2.84c-6.57,1.16-21.81,2.17-27-2.13a7.34,7.34,0,0,1-2.79-5.23,8.62,8.62,0,0,1,2.07-6.86c2-2.15,5.41-3.07,11.47-3.07,2.36,0,6.44.19,11.62.53l.85.91-.87.79-11.64-.19c-5,0-7.9.74-9.42,2.4a8.1,8.1,0,0,0-1.54,5.28,6,6,0,0,0,2,3.59c5,4.09,18.86,2.47,24.61,1.59A55.52,55.52,0,0,0,139.87,102c6.37-2.17,13.6-4.25,18.88-1.45a6.64,6.64,0,0,1,3.77,4.67A8.33,8.33,0,0,1,161.08,113Z"/><polygon class="cls-1" points="57.35 100.3 57.13 103.68 51.32 100.37 57.35 100.3"/><path class="cls-1" d="M64.87,103.76l.93,8.1-4.46,2.41c0,.23,0,2.7,0,2.89a9,9,0,0,0,1.75,1.06,4.89,4.89,0,0,0,2.88.24l.37-.09L66,119.44l-.13,0a7.35,7.35,0,0,1-3-.09,5.76,5.76,0,0,1-1.9-.92h-.69a6.3,6.3,0,0,1-1.94.92,7.35,7.35,0,0,1-3,.09l-.13,0-.3-1.07.36.09a4.89,4.89,0,0,0,2.88-.24,9.48,9.48,0,0,0,1.76-1.06c0-.19,0-2.72,0-2.92l-4.45-3.16h7.95V100.48l6.29,0h.79Z"/><path class="cls-1" d="M176.09,112.15V4.07H0V112.23c0,.09,0,.38,0,.84,0,5.1,1.11,32.12,22.83,66.35,23.74,37.45,62.9,49,64.56,49.5l.59.17.59-.17c1.66-.47,41-12,64.7-49.5C177,142.11,176.13,113.36,176.09,112.15ZM148.36,37.53a18.47,18.47,0,0,0,.77-3.14l.06-.4.34.21A17.29,17.29,0,1,1,123.39,49a17.21,17.21,0,0,1,3.19-10l.15-.21L127,39a11.84,11.84,0,0,1,2.39,2.09l.13.15-.11.18a13.67,13.67,0,1,0,19.1-3.57l-.16-.12ZM131.47,56.81l.12-.17a13.49,13.49,0,0,0,2.27-6.4V50l.2,0a18.16,18.16,0,0,0,3.09-.9l.37-.14v.4A17.09,17.09,0,0,1,134.36,59l-.15.22-.22-.15A12,12,0,0,1,131.61,57ZM113.21,31.14a17.28,17.28,0,1,1,17.25,17.62l-1.82-.13v-.26a11.89,11.89,0,0,1,.58-3.11l.06-.19,1.19.07a13.67,13.67,0,1,0-13.6-14.88v.2l-.2,0a18.53,18.53,0,0,0-3.1.9l-.37.14Zm21.65,5.56-.18.09-.14-.15a18.2,18.2,0,0,0-2.31-2.26l-.3-.25.34-.19a17.32,17.32,0,0,1,8.41-2.19h0l1.83.14,0,.26a11.89,11.89,0,0,1-.58,3.11l-.06.19-1.18-.08A13.74,13.74,0,0,0,134.86,36.7Zm-14.58-5A17.08,17.08,0,0,1,136,41.89l.11.23-.23.12a12.12,12.12,0,0,1-3,1l-.2,0-.09-.19A13.67,13.67,0,1,0,120.28,62.7a13.7,13.7,0,0,0,5.85-1.34l.18-.09.14.16a19.48,19.48,0,0,0,2.31,2.25l.3.25-.34.19a17.29,17.29,0,1,1-8.44-32.37Zm2.56,11-.07.19a19.16,19.16,0,0,0-.75,3.14l-.06.39-.35-.2a17.21,17.21,0,0,1-6.85-7.69l-.11-.24.23-.11a11.65,11.65,0,0,1,3-1.05l.21,0,.09.19a13.83,13.83,0,0,0,4.51,5.32ZM18.19,56.1V16.81l1-.17a99.88,99.88,0,0,1,16-1.32A45.29,45.29,0,0,1,50.77,18.4a45.29,45.29,0,0,1,15.59-3.08,99.88,99.88,0,0,1,16,1.32l1,.17V62.39l-1.42-.31a76.71,76.71,0,0,0-14.71-1.29,53.25,53.25,0,0,0-16,2.8l-.4.14-.4-.14a53.24,53.24,0,0,0-16-2.8,76.88,76.88,0,0,0-14.72,1.29l-1.42.31Zm131.45,121C128.31,210.77,92.9,223,88,224.61c-4.9-1.57-40.2-13.84-61.52-47.49S4.3,116.43,4.3,112.74c0-.26,0-.41,0-.43V74.05H171.79v38.18s0,.18,0,.45C171.8,116.46,171,143.45,149.64,177.12Z"/><path class="cls-1" d="M35.23,17.72a100.71,100.71,0,0,0-14.65,1.13V53.3a84.1,84.1,0,0,1,13.8-1.07,55.07,55.07,0,0,1,15.27,2.42V20.51A42.91,42.91,0,0,0,35.23,17.72ZM45.45,46.61a1.68,1.68,0,0,1-2.06.81,22.81,22.81,0,0,0-7.22-1.56,54.25,54.25,0,0,0-8.15.79,1.65,1.65,0,0,1-2-.91A1.37,1.37,0,0,1,27.07,44a55.44,55.44,0,0,1,9.1-.91,26.2,26.2,0,0,1,8.34,1.73A1.34,1.34,0,0,1,45.45,46.61Zm0-6.85a1.68,1.68,0,0,1-2.06.81A22.93,22.93,0,0,0,36.17,39a54.25,54.25,0,0,0-8.15.79,1.64,1.64,0,0,1-2-.92,1.36,1.36,0,0,1,1.05-1.73,54.25,54.25,0,0,1,9.1-.91A26.2,26.2,0,0,1,44.51,38,1.34,1.34,0,0,1,45.45,39.76Zm0-6.84a1.69,1.69,0,0,1-2.06.81,22.93,22.93,0,0,0-7.22-1.55A54.9,54.9,0,0,0,28,33a1.65,1.65,0,0,1-2-.91,1.37,1.37,0,0,1,1.05-1.74,55.44,55.44,0,0,1,9.1-.91,26.2,26.2,0,0,1,8.34,1.73A1.34,1.34,0,0,1,45.45,32.92Zm0-6.85a1.69,1.69,0,0,1-2.06.82,22.51,22.51,0,0,0-7.22-1.56,52.82,52.82,0,0,0-8.15.79,1.65,1.65,0,0,1-2-.92,1.36,1.36,0,0,1,1.05-1.73,55.44,55.44,0,0,1,9.1-.91,26.32,26.32,0,0,1,8.34,1.72A1.35,1.35,0,0,1,45.45,26.07Z"/><path class="cls-1" d="M66.42,17.72a43,43,0,0,0-14.53,2.83V54.68a55.22,55.22,0,0,1,15.38-2.45,84.1,84.1,0,0,1,13.8,1.07V18.85A100.71,100.71,0,0,0,66.42,17.72Zm9.34,28a1.65,1.65,0,0,1-2,.91,54.43,54.43,0,0,0-8.15-.79,22.81,22.81,0,0,0-7.22,1.56,1.68,1.68,0,0,1-2.06-.81,1.34,1.34,0,0,1,.94-1.79,26.2,26.2,0,0,1,8.34-1.73A55.1,55.1,0,0,1,74.7,44,1.37,1.37,0,0,1,75.76,45.74Zm0-6.85a1.65,1.65,0,0,1-2,.92A54.43,54.43,0,0,0,65.61,39a22.93,22.93,0,0,0-7.22,1.55,1.68,1.68,0,0,1-2.06-.81A1.34,1.34,0,0,1,57.27,38a26.2,26.2,0,0,1,8.34-1.73,53.92,53.92,0,0,1,9.09.91A1.36,1.36,0,0,1,75.76,38.89Zm0-6.84a1.65,1.65,0,0,1-2,.91,55.08,55.08,0,0,0-8.15-.78,22.93,22.93,0,0,0-7.22,1.55,1.69,1.69,0,0,1-2.06-.81,1.34,1.34,0,0,1,.94-1.79,26.2,26.2,0,0,1,8.34-1.73,55.1,55.1,0,0,1,9.09.91A1.37,1.37,0,0,1,75.76,32.05Zm0-6.85a1.66,1.66,0,0,1-2,.92,53,53,0,0,0-8.15-.79,22.51,22.51,0,0,0-7.22,1.56,1.69,1.69,0,0,1-2.06-.82,1.35,1.35,0,0,1,.94-1.79,26.32,26.32,0,0,1,8.34-1.72,55.1,55.1,0,0,1,9.09.91A1.36,1.36,0,0,1,75.76,25.2Z"/></svg>