<svg xmlns="http://www.w3.org/2000/svg" viewBox="0 0 500 230"><defs><style>.cls-1{fill:#fff;}</style></defs><g id="mindef"><path class="cls-1" d="M133.21,182.5c5.52-3.51,4.42-9.58,4.33-10.39-.3,1-2,1.11-5.24,3.51-2.88,2.15-2.78,5-2.39,7.5l1.76-.32Z"/><path class="cls-1" d="M142.36,180l.62-.24c4.16-3.75,3-9,2.87-9.75-.26,1-2,1.18-5.09,3.72-2.76,2.25-2.56,5.08-2.09,7.51l.22-.06C140.07,180.87,141.21,180.44,142.36,180Z"/><path class="cls-1" d="M100.54,172.11c-.09.81-1.2,6.88,4.32,10.39l1.54.3,1.76.32c.39-2.46.49-5.35-2.39-7.5C102.55,173.22,100.83,173.12,100.54,172.11Z"/><path class="cls-1" d="M92.22,170c-.1.74-1.29,6,2.87,9.75l.62.24c1.15.41,2.29.84,3.47,1.18l.22.06c.48-2.43.67-5.26-2.09-7.51C94.19,171.22,92.48,171.06,92.22,170Z"/><path class="cls-1" d="M94.34,47.12c4-.07,4.92-.42,5.9,0-.43-.7-3-6.55-9.5-6-.92.35-1.92.77-3,1.25,1.18,2.22,2.83,4.72,6.48,4.72Z"/><path class="cls-1" d="M86.78,50.55c4-.48,4.85-.93,5.87-.62-.5-.64-3.68-6.21-10.12-4.92-.9.5-1.82,1-2.77,1.62,1.31,1.91,3,4,6.12,4A7.28,7.28,0,0,0,86.78,50.55Z"/><path class="cls-1" d="M85,53.61c-.52-.56-3.75-5.19-9.31-4.28q-1.7,1.2-3.43,2.6c1.32,1.52,3,3,5.47,3a7.26,7.26,0,0,0,1.48-.16C83.13,53.91,83.94,53.39,85,53.61Z"/><path class="cls-1" d="M78.67,58.26c-.6-.52-4.77-4.81-10.68-2.61-.86.82-1.72,1.68-2.58,2.57,1.76,1.7,4,3.35,7.37,2.28C76.61,59.27,77.68,57.93,78.67,58.26Z"/><path class="cls-1" d="M73.14,63.51c-.71-.46-6-4.54-11.93-.49-.53.66-1.05,1.35-1.57,2,2,1.53,4.62,3.11,8,1.48C71.23,64.79,72.1,63.32,73.14,63.51Z"/><path class="cls-1" d="M67.93,70.4c-.68-.45-5.65-4.31-11.39-.83-.58.9-1.13,1.8-1.65,2.71,2,1.4,4.41,2.66,7.52,1.15C66,71.68,66.91,70.2,67.93,70.4Z"/><path class="cls-1" d="M63.31,77.24c-.7-.38-5.69-3.65-11-.24-.54,1.11-1.06,2.23-1.54,3.35,2,1.15,4.42,2,7.24.35C61.51,78.67,62.27,77.13,63.31,77.24Z"/><path class="cls-1" d="M59.6,83.3c-.78-.22-6.74-2.4-11,2.93h0q-.42,1.26-.78,2.52h0c2.3.79,5.07,1.4,7.62-1C58.22,85,58.6,83.42,59.6,83.3Z"/><path class="cls-1" d="M57.1,91c-.8-.15-6.83-1.74-10.74,3.63h0c-.21,1-.39,2.08-.55,3.12,2.36.54,5.12.77,7.41-1.84C55.85,92.87,56.08,91.18,57.1,91Z"/><path class="cls-1" d="M55.48,98.92c-.8-.08-6.75-1.2-10.28,4.16-.09,1.16-.14,2.32-.17,3.47,2.32.31,4.94.22,6.94-2.44C54.38,100.92,54.48,99.22,55.48,98.92Z"/><path class="cls-1" d="M45.05,111c.05,1.55.14,3.08.29,4.6,2.3-.08,4.74-.69,6.29-3.53,2-3.64,1.85-5.41,2.84-5.86C53.68,106.28,48.07,106.05,45.05,111Z"/><path class="cls-1" d="M137.83,47.12c1-.42,1.88-.07,5.9,0h.12c3.65,0,5.3-2.5,6.48-4.72-1.08-.48-2.08-.9-3-1.25C140.82,40.57,138.26,46.42,137.83,47.12Z"/><path class="cls-1" d="M145.42,49.93c1-.31,1.87.14,5.87.62a7.28,7.28,0,0,0,.9.06c3.09,0,4.81-2.07,6.12-4-.95-.59-1.87-1.12-2.77-1.62C149.1,43.72,145.92,49.29,145.42,49.93Z"/><path class="cls-1" d="M153.08,53.61c1-.22,1.86.3,5.79,1.14a7.26,7.26,0,0,0,1.48.16c2.48,0,4.15-1.46,5.47-3q-1.74-1.4-3.43-2.6C156.83,48.42,153.6,53.05,153.08,53.61Z"/><path class="cls-1" d="M170.08,55.65c-5.91-2.2-10.08,2.09-10.68,2.61,1-.33,2.06,1,5.89,2.24,3.35,1.07,5.61-.58,7.37-2.28C171.81,57.33,170.94,56.47,170.08,55.65Z"/><path class="cls-1" d="M164.93,63.51c1-.19,1.91,1.28,5.53,3,3.36,1.63,5.93,0,8-1.48-.52-.69-1-1.38-1.57-2C170.9,59,165.64,63.05,164.93,63.51Z"/><path class="cls-1" d="M170.14,70.4c1-.2,1.9,1.28,5.52,3,3.11,1.51,5.55.25,7.52-1.15-.52-.91-1.07-1.81-1.65-2.71C175.79,66.09,170.82,70,170.14,70.4Z"/><path class="cls-1" d="M174.76,77.24c1-.11,1.8,1.43,5.27,3.46,2.82,1.66,5.23.8,7.24-.35-.48-1.12-1-2.24-1.54-3.35C180.45,73.59,175.46,76.86,174.76,77.24Z"/><path class="cls-1" d="M178.47,83.3c1,.12,1.38,1.74,4.2,4.42,2.55,2.43,5.32,1.82,7.62,1h0q-.36-1.26-.78-2.52h0C185.21,80.9,179.25,83.08,178.47,83.3Z"/><path class="cls-1" d="M181,91c1,.22,1.25,1.91,3.88,4.92,2.29,2.61,5.05,2.38,7.41,1.84q-.22-1.56-.54-3.12h0C187.8,89.22,181.77,90.81,181,91Z"/><path class="cls-1" d="M192.87,103.08c-3.53-5.36-9.48-4.24-10.28-4.16,1,.3,1.1,2,3.51,5.19,2,2.66,4.62,2.75,6.94,2.44C193,105.4,193,104.24,192.87,103.08Z"/><path class="cls-1" d="M193,111c-3-5-8.63-4.76-9.42-4.79,1,.45.84,2.22,2.84,5.86,1.55,2.84,4,3.45,6.29,3.53C192.88,114.12,193,112.59,193,111Z"/><path class="cls-1" d="M186,120.68a6.93,6.93,0,0,0,5.76,4.23,48.09,48.09,0,0,0,.75-5.59c-2.84-4.67-8.12-5-8.9-5.06C184.59,114.83,184.26,116.66,186,120.68Z"/><path class="cls-1" d="M236.3,176.22a2.34,2.34,0,0,0,0-.26,2.37,2.37,0,0,0-1.19-2,3.29,3.29,0,0,0-2-.68,10.6,10.6,0,0,0,1-4.52,10.19,10.19,0,0,0-2.25-6.32,17.2,17.2,0,0,0-4-3.68,2.71,2.71,0,0,0-.25-.17,21.55,21.55,0,0,0-11.49-3.08,23.07,23.07,0,0,0-3.52.26,27.4,27.4,0,0,0-10.22,3.66,15.66,15.66,0,0,0-4.16,3.7l-8-2.4,2.57-1.68c1.63-1.08,3.06-2,4-2.66a6.1,6.1,0,0,0,2.73-3.5l1.18.31L199,150.43l-.15-.28a2.26,2.26,0,0,0-.16-.26l-.19-.3h0c-.91-1.07-5.06-4.51-7.48-6.48h0c1.63.64,3.36.82,6.22-2.07,2.68-2.7,2.86-3.63,3.86-3.78-.73-.17-7.85-.61-10.87,2.44h0c.23-.6.45-1.18.67-1.78s.43-1.19.64-1.79l.33-1c2.66.24,5.72,0,7.86-3.07,2.47-3.49,2.47-4.55,3.56-4.9-.73,0-6.07-1.24-9.6,1.75h0c.15-.64.3-1.28.43-1.93s.24-1.14.34-1.72c2.76,0,6.13-.18,8-3.7s1.4-4.46,2.4-4.93c-.82,0-7.46-.88-9.82,4.31h0l.14-1.5c.1-1.28.2-2.57.28-3.85h0c2.67-.36,6-.91,7.33-4.58s.77-4.45,1.66-5c-.76.15-7,.11-8.77,5.14h0c0-1.46.07-2.92,0-4.38h0c2.5-.47,5.48-1.24,6.53-4.85,1.11-3.77.49-4.47,1.31-5.09-.71.18-6.6.42-8.06,5.34v0h0c-.12-1.64-.32-3.27-.57-4.89h0c2.41-.79,5.23-1.94,5.82-5.62.62-3.89-.08-4.51.65-5.22-.69.27-6.58,1.27-7.34,6.42h0v0c-.27-1.17-.59-2.34-.93-3.49-.2-.65-.41-1.29-.62-1.94h0c2.38-1.06,5.33-2.47,5.52-6.39s-.58-4.47.07-5.26c-.74.4-8.07,2.46-6.32,9.55h0l0,0v0q-.56-1.55-1.2-3.06c-.37-1-.81-1.88-1.23-2.81h0c2.25-1.49,4.91-3.47,4.44-7.46s-1.37-4.54-.84-5.47c-.63.49-6.59,3.31-5.53,9h0c0-.05-.05-.09-.07-.14l-.9-1.66c-.3-.56-.63-1.1-.94-1.65-.21-.37-.42-.74-.64-1.1h0c2.11-1.43,4.46-3.35,4-7.06-.47-4-1.34-4.4-.81-5.31-.63.48-6.56,3.28-5.33,9h0l-.22-.33-1-1.57-1-1.6-.31-.46c2-1.6,4.18-3.69,3.45-7.36-.79-3.94-1.68-4.29-1.23-5.23-.59.53-6.37,3.85-4.55,9.52h0l-.86-1-.62-.73-.65-.69-1.32-1.38-.07-.06h0c1.57-1.77,3-4,1.88-7.2-1.33-3.8-2.7-4.83-2.39-5.83-.5.59-4.42,4.63-2.53,10.19h0c-.84-.73-1.66-1.47-2.54-2.14-.51-.42-1-.83-1.56-1.23,1.51-2,3-4.43,1.5-7.7C167,39,165.53,38,165.75,37c-.47.67-4.51,5.62-1,11.51q-2.61-1.86-5.36-3.5c1.25-2,2.25-4.49.59-7.43-2-3.5-3.51-4.28-3.38-5.32-.39.69-3.72,5.61-.43,10.92l-.06,0q-2.4-1.28-4.9-2.39c1-2.14,1.76-4.71-.2-7.45-2.33-3.28-3.94-3.89-3.92-4.94-.32.73-3.14,6,.79,11a58.62,58.62,0,0,0-5.83-2s-2.14-2.51-4.79-2.51c-3.38,0-4.25,1-5.49,1.24a5.05,5.05,0,0,1-1.71,0,7.15,7.15,0,0,0,1.48,1.29c1.91,1.27,2.81,2.07,4.42,1.44s3.08-1.72,5-1.17,1.77.56,6.7,2.71l2.36,1,.69.31c2.18,1,4.56,2,6.94,3.33l1.26.69a44.82,44.82,0,0,1,6.07,4.13l.39.32h0l1.09.92c2.33,1.94,4.64,4,6.86,6.24h0l.07.07a63.49,63.49,0,0,1,7.22,8.67c1.09,1.61,2.16,3.31,3.21,5.15h0a3.72,3.72,0,0,0,.19.34c1.1,2,2.18,4.12,3.21,6.47.25.58.51,1.17.75,1.79a105.09,105.09,0,0,1,4.48,13.7c.31,1.24.6,2.52.85,3.84a65.23,65.23,0,0,1,1.08,8.78h0v.07a66.6,66.6,0,0,1,0,7.86h0c0,.48-.06,1-.1,1.44q-.23,2.88-.72,5.88h0c-.19,1.16-.41,2.34-.67,3.52a75.11,75.11,0,0,1-2,7.32c-.19.59-.38,1.18-.59,1.77q-1.05,3.06-2.42,6.16c0,.06-.06.12-.08.18l-.82-.64-.33-.26c.16-.39.32-.78.49-1.17h0c-.41-4.29-5.54-8.79-6.18-9.17.63.83.09,1.64.08,5.58,0,.36,0,.68,0,1h0a12.68,12.68,0,0,0-2.76,0h0c0-.17,0-.35,0-.51,0-.6.1-1.21.16-1.82.11-.92.23-1.84.32-2.77l0,0a.43.43,0,0,0,0-.57c0-.1,0-.2,0-.3l.06-1h0a31.25,31.25,0,0,0,4.68-2.77h0a22.13,22.13,0,0,0,.45,2.24,7.54,7.54,0,0,0,5,5.5,3.05,3.05,0,0,0,.13-.32c.49-1.22.93-2.47,1.31-3.73a10.36,10.36,0,0,0-4.22-6.16h0l.45-.46-1.66-.29h0a12.77,12.77,0,0,0-2.27-.94,1.25,1.25,0,0,1,.39.67c-.51,0-1.05-.08-1.62-.08a38.43,38.43,0,0,0-6.14.6h0a1.89,1.89,0,0,1-.2-.2,1,1,0,0,1-.14-.15l0,0-.06-.12.07-.27c.08-.08.2-.09.41,0a2,2,0,0,0,1.05,0h0l.58-.14-.5-.35a1.35,1.35,0,0,1-.17-.17,1.27,1.27,0,0,1-.13-.22l0-.13v-.07l0-.12a.89.89,0,0,0-.29-.39c-.24-.16-.42-.24-.58-.36a1.12,1.12,0,0,1-.38-.4,2,2,0,0,1-.36-1.09,1.46,1.46,0,0,1,.58-.94c.63-.58,1.39-1.05,2.11-1.61a8,8,0,0,0,1.83-2.06,5.85,5.85,0,0,0,.6-1.26,3.58,3.58,0,0,0,.09-.35,2.47,2.47,0,0,0,0-.36l.06-.67a8.11,8.11,0,0,0-.07-1.9h0a5,5,0,0,0-.2-.85,6.28,6.28,0,0,0-.6-1.25c-.23-.39-.47-.78-.72-1.14-.49-.75-1-1.49-1.55-2.21s-1.1-1.41-1.68-2.1-1.22-1.32-1.84-2-1.23-1.29-1.77-2a5.9,5.9,0,0,1-.69-1.07,1.44,1.44,0,0,1-.18-.54,2.43,2.43,0,0,1,.08-.56,6.08,6.08,0,0,1,.56-1.15,4.64,4.64,0,0,0,.56-1.3,5.54,5.54,0,0,0,0-1.41,7.52,7.52,0,0,0-.28-1.35c-.08-.31-.19-.63-.3-.94l-.18.06.17-.06a12,12,0,0,0-2.38-3.77l0,0-.22-.25-.19.28A14.08,14.08,0,0,0,167.37,88a15.36,15.36,0,0,0-.87,2l-.15.53a3.53,3.53,0,0,0-.1.55q0,.35-.06.69l.79,0a6.84,6.84,0,0,1,1.35-3.57.14.14,0,0,1,.25.09c0,.29-.07.68-.1.92-.07.5-.13,1-.17,1.51-.1,1-.15,2-.16,3a.13.13,0,0,0,.11.13.13.13,0,0,0,.15-.11c.19-1,.4-2,.65-2.91.07-.25.14-.5.22-.76a1,1,0,0,1,.34-.52.4.4,0,0,1,.41-.1,1,1,0,0,1,.47.4c0,.1.07.2.11.29h0c.1.3.18.58.26.88a6.73,6.73,0,0,1,.17.85c0,.09,0,.15,0,.19l0,.19c0,.21,0,.42,0,.61a2.81,2.81,0,0,1,0,.3v.14l0,.11a4.39,4.39,0,0,1-.47,1,6.75,6.75,0,0,0-.63,1.32,2.75,2.75,0,0,0-.11.87,2.25,2.25,0,0,0,.25.83,5.7,5.7,0,0,0,.61,1,1.1,1.1,0,0,1-.17.25,2.41,2.41,0,0,1-.44.46,1.82,1.82,0,0,1-.53.33,1.07,1.07,0,0,1-.29.06s0,0-.06,0c-.29-.5-.57-1-.82-1.54a15.05,15.05,0,0,1-.79-1.88,11.75,11.75,0,0,1-.45-2,14.11,14.11,0,0,1-.21-2v-.37l-.79,0v.41a15.45,15.45,0,0,0,.17,2.15,12.17,12.17,0,0,0,1.28,4.12c.32.66.65,1.3,1,1.91.19.31.37.61.58.92s.42.59.62.87c.86,1.14,1.71,2.28,2.62,3.38.23.28.45.55.7.82l.73.78c.48.52.95,1,1.37,1.59l.29.41c0,.07.07.14.09.2a.87.87,0,0,1,0,.21,7,7,0,0,1,.06,1,6.41,6.41,0,0,1-.27,2,1.21,1.21,0,0,1-.48.67s0,0,0,0a.26.26,0,0,1-.11-.12,2.22,2.22,0,0,1-.23-.41,3.11,3.11,0,0,1-.16-.46,3.87,3.87,0,0,0-.15-.53c-.12-.34-.26-.68-.38-1-.28-.67-.58-1.33-.89-2a13.38,13.38,0,0,0-1.08-1.9c-.46-.59-1-1.08-1.44-1.6-.23-.23-.45-.47-.67-.71a.35.35,0,0,0-.16-.16c-.22-.23-.41-.46-.62-.68-.47-.52-.93-1.06-1.35-1.62a11.78,11.78,0,0,1-1.06-1.78,20.79,20.79,0,0,1-1.47-4c-.37-1.35-.58-2.74-.84-4.14s-.49-2.8-.79-4.2a16.38,16.38,0,0,0-.57-2.08,11.51,11.51,0,0,0-.91-2,6.44,6.44,0,0,0-.69-.89c-.25-.24-.34-.44-.25-.66a.67.67,0,0,1,.24-.26.51.51,0,0,1,.17-.07h.18a2.29,2.29,0,0,1,.87.33l0,0,.64.41-.23-.71a5.16,5.16,0,0,1-.19-1,1.12,1.12,0,0,1,.18-.77l.06-.06.09,0a1.36,1.36,0,0,1,.21-.1,2.53,2.53,0,0,1,.44-.14,5.11,5.11,0,0,1,1-.08h.39l-.07-.34c0-.27-.1-.55-.13-.82a3.14,3.14,0,0,1,0-.8.42.42,0,0,1,0-.16s0-.06,0-.06a.05.05,0,0,1,0,0,1.22,1.22,0,0,1,.25-.26A4.65,4.65,0,0,1,166,77l0,0,.14-.09v-.16c0-.6-.06-1.19-.08-1.79s0-1.2,0-1.8a3,3,0,0,1,0-.42.58.58,0,0,1,0-.19s0,0,0-.05l0-.06a5.65,5.65,0,0,1,.6-.6c.44-.39.91-.76,1.38-1.12l0,0,.42-.32-.51-.15a5.37,5.37,0,0,0-.67-.15c-.22,0-.45-.07-.67-.09a6.61,6.61,0,0,0-1.33,0,.92.92,0,0,1-.19-.13c-.09-.09-.17-.18-.27-.27l-.55-.53a14.52,14.52,0,0,0-1.19-1c-.43-.3-.86-.6-1.32-.87s-.91-.5-1.38-.73a12.55,12.55,0,0,0-1.39-.46c-.48-.12-1-.21-1.43-.28a13.77,13.77,0,0,0-1.44-.15,8.39,8.39,0,0,0-1.41,0,3.56,3.56,0,0,1-1.14-.56,5.27,5.27,0,0,1-.51-.43,1.23,1.23,0,0,1-.29-.47l-.31-.86-.21.85c-.14.53-.28,1.06-.4,1.61a7,7,0,0,0-.17.82c0,.13-.05.27-.07.42a2.91,2.91,0,0,0,0,.32c-.36.31-.71.64-1.06,1a6.61,6.61,0,0,0-1,1.25,1.67,1.67,0,0,0-.08.2,1.36,1.36,0,0,0-.07.22c0,.13-.06.26-.1.39s-.08.51-.11.76-.07.53-.09.79,0,.26,0,.39a2.28,2.28,0,0,0,0,.37,2.67,2.67,0,0,1-.38.85,1.07,1.07,0,0,1-.14.16c-.07.06-.16.12-.24.2a1,1,0,0,0-.2.31.94.94,0,0,0-.08.36,1,1,0,0,0,0,.33.61.61,0,0,0,.2.36,1.49,1.49,0,0,0,.55.33l.13,0h0s0,0,0,.05l0,.08a2.42,2.42,0,0,1,.07.47,4.17,4.17,0,0,1-.5,2,8.06,8.06,0,0,1-1.2,1.72A20.15,20.15,0,0,1,146,81.45a8.76,8.76,0,0,1-1.64,1.3,4.32,4.32,0,0,1-.95.39c-.33.09-.69.17-1,.24-.71.14-1.42.24-2.13.32a41.79,41.79,0,0,1-4.34.28c-1.43,0-2.89,0-4.37.15a11.93,11.93,0,0,0-2.18.46,5.36,5.36,0,0,0-1,.45,5.09,5.09,0,0,0-.93.69,4.25,4.25,0,0,0-.72,1h1.2A7,7,0,0,1,131.77,85a16.67,16.67,0,0,1,4,.08,37.17,37.17,0,0,0,6.27-.6l.22,0,.06.13a1.53,1.53,0,0,0,.19.3,1.8,1.8,0,0,0,.53.44,1.9,1.9,0,0,0,.63.19,3.16,3.16,0,0,0,.32,0h.29v0l-.28-.08-.28-.1a1.62,1.62,0,0,1-.46-.31,1,1,0,0,1-.29-.42,1,1,0,0,1-.08-.22v-.06a15.14,15.14,0,0,0,1.55-.5c0,.09.07.19.12.28a1.09,1.09,0,0,0,.27.33,1.26,1.26,0,0,0,.32.25,1.66,1.66,0,0,0,.39.15,1.09,1.09,0,0,0,.44,0,1.81,1.81,0,0,0,.35-.13,2.11,2.11,0,0,0,.29-.2v0a2.81,2.81,0,0,1-.64,0,.79.79,0,0,1-.5-.26,1.19,1.19,0,0,1-.29-.48,1.1,1.1,0,0,1-.06-.26v0a39.44,39.44,0,0,0,3.23-3c.33-.4.46-.28.59-.18a2.77,2.77,0,0,1,.65.94c.32.63.22.85-.75,1.85a16,16,0,0,1-2.21,1.89h0s0,0-.06,0l-.66.48a18.82,18.82,0,0,1-2.34,1.27h1.65V92c.06.23.11.46.17.69.13.5.28,1,.43,1.49.09.25.17.5.26.74a6.48,6.48,0,0,0,.26.63,6.65,6.65,0,0,1-.43.84,2.56,2.56,0,0,1-.63.77.45.45,0,0,1-.17.11.12.12,0,0,1-.08,0,.5.5,0,0,1-.13,0l-.55.08-.46.06h0V88.07H94.14V98.5h-.09a2.35,2.35,0,0,1-.37,0A2.51,2.51,0,0,1,93,98.2a5.26,5.26,0,0,1-1.28-1l-.63-.61-.32-.32-.3-.3a20.54,20.54,0,0,1-2-2.43,21.86,21.86,0,0,1,2.44-1.42c.48-.24,1-.46,1.45-.65l.18-.07.15,0,.1,0v-.79l-.27,0a1.82,1.82,0,0,0-.25.07l-.2.08c-.51.21-1,.44-1.51.69a22.46,22.46,0,0,0-2.51,1.46c-1.09-1.69-2.49-3.27-4.51-3.18v0a4.26,4.26,0,0,0,.1-.89,5.29,5.29,0,0,0,0-.67,2.7,2.7,0,0,0,1.58.42A6.88,6.88,0,0,0,87.72,88a5.38,5.38,0,0,1-1.09-3.1h.08a4.74,4.74,0,0,0,2.37-.86c.28.09.55.2.85.31s.69.27,1,.39a14.91,14.91,0,0,0,2.15.66,10.74,10.74,0,0,0,2.25.28h1.12c.37,0,.75,0,1.11,0,1.5-.08,3-.35,4.39-.49a19.09,19.09,0,0,1,2.13-.1,10.4,10.4,0,0,1,2.08.27,8.08,8.08,0,0,1,1.93.76,5.29,5.29,0,0,1,.92.62h1.22a7.28,7.28,0,0,0-1.73-1.35,9.16,9.16,0,0,0-2.14-.84,10.68,10.68,0,0,0-2.25-.3,18.56,18.56,0,0,0-2.25.09c-1.48.15-2.91.4-4.35.47-.36,0-.71,0-1.06,0H95.4a10.4,10.4,0,0,1-2.09-.27,15.92,15.92,0,0,1-2-.63l-1-.4-.44-.16h0a1,1,0,0,0,.14-.27,3.93,3.93,0,0,1-2.52-1.91,4.36,4.36,0,0,0,.68-3.54,3.53,3.53,0,0,1-1.37.34h-.28a1.06,1.06,0,0,1-.84-1.53c.32-.71,1.14-1.11,1.54-2.25a5.77,5.77,0,0,1-.79.07c-2.49,0-3.65-2.27-4.22-3A14.49,14.49,0,0,0,82,67.63a3.32,3.32,0,0,1-2,.49c-1,0-2.15-.19-3.59-.26-.41,0-.79,0-1.12,0a5.8,5.8,0,0,0-3.48.86,14.64,14.64,0,0,0-3.68,4,23.41,23.41,0,0,1-2.91,3.12A3.89,3.89,0,0,0,67.56,77a1.81,1.81,0,0,0,.4,0c-.07.92-.17,5.42-.17,5.42a3.58,3.58,0,0,1,.94-.14,1.8,1.8,0,0,1,.66.11c.64.29-.07,1.88-1.28,2.81a4,4,0,0,0,1.94.68,5.12,5.12,0,0,0,1.87-.42,7.46,7.46,0,0,1-1.38,3.75,4.49,4.49,0,0,0,1.37.24,2.54,2.54,0,0,0,1.76-.67,11.63,11.63,0,0,0,.94,3.06v0c0,.11,0,.19,0,.3.06.84.19,1.65.29,2.46a19.2,19.2,0,0,1,.17,2.39,8.92,8.92,0,0,1-.26,2.3c-.09.39-.19.8-.27,1.22,0,.21-.08.41-.11.63s0,.18-.06.27a1.86,1.86,0,0,1,0,.27,4.08,4.08,0,0,1-.4,1,6.6,6.6,0,0,1-.6,1,15.29,15.29,0,0,1-1.55,1.79c-.56.57-1.19,1.09-1.78,1.7a8,8,0,0,0-.83,1,3.77,3.77,0,0,0-.56,1.22,4.16,4.16,0,0,0-.16.63l-.06.29-.07.28a9.17,9.17,0,0,1-.35,1.12c-.07.17-.15.35-.24.52a5,5,0,0,1-.26.48.7.7,0,0,1-.27.25,3,3,0,0,1-.45.11,7.12,7.12,0,0,1-1.14,0,3.49,3.49,0,0,1-1-.15,2,2,0,0,1-.79-.54,5.15,5.15,0,0,1-.42-.62l.35-.4a6.55,6.55,0,0,1,.73-.64c.25-.2.53-.38.77-.6a5.71,5.71,0,0,0,.67-.72,7,7,0,0,0,.56-.78c.19-.27.38-.53.59-.78.39-.51.85-1,1.26-1.48a19.93,19.93,0,0,0,2.15-3.23l.48-.84c.16-.28.31-.58.46-.86l.23-.43.21-.45c.14-.29.28-.58.4-.88a15.33,15.33,0,0,0,1.18-3.77c0-.16,0-.33,0-.5s0-.34,0-.51a6.77,6.77,0,0,0-.09-1,5.44,5.44,0,0,0-.26-1l-.2-.48c-.07-.16-.18-.31-.26-.46a4.84,4.84,0,0,0-1.46-1.46,5.29,5.29,0,0,0-1.92-.76,3.39,3.39,0,0,0-1-.08c-.19,0-.36,0-.54.07a3.23,3.23,0,0,0-.51.14,5,5,0,0,0-1.77,1A9.38,9.38,0,0,0,64,92.36,17.27,17.27,0,0,0,63,94a29.57,29.57,0,0,0-1.72,3.48l-.4.87c-.12.3-.26.61-.37.91-.22.61-.43,1.23-.61,1.85-.38,1.23-.71,2.48-1,3.73-.15.62-.29,1.25-.43,1.87a17.32,17.32,0,0,1-.48,1.82,7.1,7.1,0,0,1-.75,1.66,15.45,15.45,0,0,1-1.06,1.57L55,113.31h0a7.17,7.17,0,0,0-.59.94h0c-1,.12-5.88.5-8.66,4.8a1.83,1.83,0,0,0-.16.26c0,.47.07.94.12,1.4,0,.24,0,.47.08.7l.09.7c.06.45.13.89.2,1.33l.18,1.08.08.38.41-.07a6.84,6.84,0,0,0,5.34-4.16c1.66-3.85,1.43-5.7,2.27-6.34a3.66,3.66,0,0,0-.3.8,4.74,4.74,0,0,0,0,2.09,9.3,9.3,0,0,0,.66,1.9l.54,1.18.21-1.3c.07-.4.16-.82.26-1.22.05-.19.11-.39.17-.59s.13-.37.21-.54a5.3,5.3,0,0,1,.62-1,1.79,1.79,0,0,1,0,.24h0a4.55,4.55,0,0,0,0,.53,10.77,10.77,0,0,0,0,2.12l.09.66.54-.39a17.76,17.76,0,0,0,1.89-1.5c.3-.27.59-.56.87-.86.14-.15.28-.33.42-.49.15.21.3.4.47.6a4.62,4.62,0,0,0,1,.93,3.1,3.1,0,0,0,.66.32,2.82,2.82,0,0,0,.74.11c.13,0,.24,0,.34,0h.32a5.45,5.45,0,0,0,.68,0,6.57,6.57,0,0,0,2.5-1c.37-.21.74-.44,1.1-.69l.29-.22,0,.71.09,1.69a10.52,10.52,0,0,1,0,1.68,6,6,0,0,0,0,.85c0,.27,0,.56,0,.83l.06.79a1.62,1.62,0,0,1-.07.62,2.18,2.18,0,0,1-.8,1,51.93,51.93,0,0,0-11.48-1.74c-.59,0-1.13,0-1.63.08h0a1.32,1.32,0,0,1,.39-.67,12.77,12.77,0,0,0-2.27.94h0l-1.66.29.46.46h0a10.34,10.34,0,0,0-4,5.46,7.15,7.15,0,0,0-.2.7h0c.18.6.37,1.19.58,1.77.09.26.18.52.28.78s.29.79.45,1.18a3.05,3.05,0,0,0,.13.32l.13,0A7.57,7.57,0,0,0,54,128.26a22.13,22.13,0,0,0,.45-2.24,43.07,43.07,0,0,0,9.37,4.86h0s0,.05.06.08a.89.89,0,0,1,.17.93,1.56,1.56,0,0,1-.81.72,2.83,2.83,0,0,1-.59.15,2.35,2.35,0,0,1-.59,0h0L60,132.52l1.79,1a3.59,3.59,0,0,1,1.89,2.1,7.12,7.12,0,0,1,.18,1.52c0,.28,0,.54.09.82a.28.28,0,0,0,0,.09h0c-3.5-1.06-5.79-1.59-6.9-1.83H57c0-.42.06-.87.06-1.38,0-3.94-.55-4.75.08-5.58-.61.36-5.26,4.43-6.07,8.52h0l-.53.37-.4.26c-.19.12-.37.25-.56.39-.64-1.55-1.25-3.1-1.78-4.63-.21-.59-.4-1.18-.59-1.77q-1.18-3.7-2-7.32c-.26-1.18-.48-2.36-.66-3.52h0q-.5-3-.73-5.88c0-.49-.07-1-.1-1.44h0a66.6,66.6,0,0,1,0-7.86v-.07h0a65.23,65.23,0,0,1,1.08-8.78c.25-1.32.54-2.6.86-3.84a103.68,103.68,0,0,1,4.47-13.7c.24-.62.5-1.21.75-1.79,1-2.35,2.11-4.49,3.21-6.47a3.72,3.72,0,0,0,.19-.34h0c1.05-1.84,2.12-3.54,3.21-5.15a64.22,64.22,0,0,1,7.22-8.67l.09-.08c2.22-2.24,4.53-4.3,6.86-6.24.37-.31.73-.63,1.11-.93l.39-.32a44.82,44.82,0,0,1,6.07-4.13l1.26-.69c2.38-1.29,4.76-2.38,6.94-3.33l.69-.31,2.36-1c4.93-2.15,4.79-2.15,6.7-2.71s3.38.53,5,1.17,2.51-.17,4.42-1.44a7.15,7.15,0,0,0,1.48-1.29,5.05,5.05,0,0,1-1.71,0c-1.24-.2-2.11-1.24-5.49-1.24-2.65,0-4.79,2.51-4.79,2.51a58.62,58.62,0,0,0-5.83,2c3.93-5,1.11-10.27.79-11,0,1.05-1.59,1.66-3.92,4.94-2,2.74-1.22,5.31-.2,7.45q-2.5,1.11-4.9,2.39l-.06,0c3.29-5.31,0-10.23-.43-10.92.13,1-1.4,1.82-3.38,5.32-1.66,2.94-.66,5.4.59,7.43q-2.75,1.63-5.36,3.5c3.47-5.89-.57-10.84-1-11.51.22,1-1.23,1.93-2.89,5.59-1.48,3.27,0,5.74,1.5,7.7-.52.4-1.05.81-1.56,1.23-.88.67-1.7,1.41-2.54,2.14h0c1.89-5.56-2-9.6-2.53-10.19.31,1-1.05,2-2.39,5.83-1.11,3.18.31,5.43,1.88,7.2h0l-.07.06L62.4,58l-.66.69-.62.73-.86,1h0c1.82-5.67-4-9-4.55-9.52.45.94-.44,1.29-1.23,5.23-.73,3.67,1.46,5.76,3.46,7.36l-.32.46-1,1.6-1,1.57-.22.33h0c1.23-5.71-4.7-8.51-5.33-9,.53.91-.34,1.32-.81,5.31-.43,3.71,1.92,5.63,4,7.06h0c-.22.36-.43.73-.64,1.1-.31.55-.64,1.09-.94,1.65l-.9,1.66s-.05.09-.07.14h0c1.06-5.72-4.9-8.54-5.53-9,.54.93-.35,1.36-.84,5.47s2.19,6,4.44,7.46h0c-.42.93-.85,1.86-1.23,2.81s-.83,2-1.2,3.06v0a0,0,0,0,0,0,0h0C48,78.12,40.71,76.06,40,75.66c.65.79-.11,1.33.07,5.26s3.14,5.33,5.52,6.39h0c-.21.65-.42,1.29-.61,1.94-.35,1.15-.66,2.32-.93,3.49v0h0c-.76-5.15-6.65-6.15-7.34-6.42.74.71,0,1.33.65,5.22.59,3.68,3.41,4.83,5.82,5.62h0c-.25,1.62-.45,3.25-.56,4.89h0v0c-1.46-4.92-7.35-5.16-8.06-5.34.82.62.2,1.32,1.31,5.09,1,3.61,4,4.38,6.53,4.85h0c0,1.46,0,2.92,0,4.38h0c-1.73-5-8-5-8.77-5.14.89.58.29,1.31,1.66,5s4.66,4.22,7.33,4.58h0c.08,1.28.18,2.57.28,3.85l.14,1.5h0c-2.36-5.19-9-4.26-9.81-4.31,1,.47.47,1.3,2.39,4.93s5.23,3.7,8,3.7c.1.58.21,1.15.34,1.72s.28,1.29.44,1.93h0c-3.53-3-8.87-1.8-9.6-1.75,1.09.35,1.09,1.41,3.56,4.9,2.14,3,5.2,3.31,7.86,3.07.11.33.22.65.34,1,.21.6.41,1.2.63,1.79s.45,1.18.67,1.78h0c-3-3.05-10.14-2.61-10.87-2.44,1,.15,1.18,1.08,3.86,3.78a9.84,9.84,0,0,0,2.73,2.06c-2.42,1.78-7.33,5.45-8.23,6.5h0l-.11.17-.08.13-.13.19a0,0,0,0,0,0,0,3.8,3.8,0,0,0-.72,2.59v0c.24,1.92,2.15,3.21,2.93,3.75s1.86,1.24,3.12,2.07,3,2,4.68,3.11l-5.16,1.54a15.61,15.61,0,0,0-4.15-3.7,27.33,27.33,0,0,0-10.22-3.66,23.17,23.17,0,0,0-3.52-.26,21.67,21.67,0,0,0-11.5,3.08l-.24.17a17.4,17.4,0,0,0-4,3.68,10.17,10.17,0,0,0-2.24,6.32,10.6,10.6,0,0,0,1,4.52,3.34,3.34,0,0,0-2,.68,2.34,2.34,0,0,0-1.17,2,2.3,2.3,0,0,0,0,.26l-.43.44a3.61,3.61,0,0,0-1.31,3,3.14,3.14,0,0,0,2.18,2.85,4.4,4.4,0,0,0,1,1.93,3.56,3.56,0,0,0,2.65,1.14,4.38,4.38,0,0,0,2.69-.68,8.13,8.13,0,0,1,1.67-.75c2.31-.76,3.13-1,4.09-1.22a6,6,0,0,0,2.93-1.43l.25-.23c.41-.37.41-.37.73-.48l.16-.06c.35-.12.62-.19,1-.29s.79-.2,1.43-.4l.81-.24c2-.63,6.6-2,9.33-2.94a11.43,11.43,0,0,0,2.88.27h.28c2.28,0,3.37-.11,4-.46a7.14,7.14,0,0,0,4.53,1.65,2.82,2.82,0,0,0,2.81-2.68A3.14,3.14,0,0,0,42,172.2a3,3,0,0,0-.53.05c0-.22.08-.44.12-.7l12.07-3.68c.3.24.6.47.88.71,6.15,5,11.13,12.44,12.39,18.53l.93,4.47,1.9-4.15c1.15-2.5,2.46-5.12,3.5-7.11h0l.5.09a7.59,7.59,0,0,0,5.16-.69c.63.3,1.3.64,2,1h0a18.56,18.56,0,0,0-4.74,3.77c1.09-.7,1.64.33,6.58.65a7.57,7.57,0,0,0,4-.72h0l1.95,1.45h0a16.05,16.05,0,0,0-3.13,3.45c.93-.8,1.59.1,6.28-.21,3.9-.26,5.67-2.79,6.86-5.28l1.61.44,1.83.45,2.52.64h.06c-5.74.71-10.17,6.24-10.59,7.07.93-.8,1.59.11,6.28-.21,4.35-.29,6-3.38,7.24-6.12l1.76.47c.92.24,1.82.49,2.72.75l.88.25.6.18-.86.35-.87.37c-.29.13-.58.26-.88.41l-.87.43C104,192.57,99.61,195,97,198l2.74,3.65c1-.77,1.91-1.56,2.88-2.31s1.92-1.51,2.91-2.21a63.7,63.7,0,0,1,6.06-4c.52-.29,1-.61,1.57-.89l1.6-.82,1.64-.75.84-.35.83-.34,1-.38h0l1,.38.83.34.84.35,1.64.75,1.6.82c.54.28,1,.6,1.57.89a63.7,63.7,0,0,1,6.06,4c1,.7,1.95,1.48,2.92,2.21s1.92,1.54,2.87,2.31l2.74-3.65c-2.62-3-7-5.39-13.16-8.61a34.33,34.33,0,0,0-3.49-1.56,39.35,39.35,0,0,0-5.39-1.63c-.69-.16-1.37-.3-2-.43-4.12-.78-8.08-1.1-11.66-1.78a60.72,60.72,0,0,1-6-1.4l.07-.16a10,10,0,0,0-1.17-.17c-2.07-.64-4.24-1.45-6.93-2.56l-2.49-1-1.64-.7h0l-.08-.16c-.23-.51-.49-1-.76-1.61s-.55-1.06-.85-1.61l0-.05a.1.1,0,0,1,0,.05h0a10.25,10.25,0,0,0,2.31,2.22h0l2.26,1c.79-2.49,1.55-5.56-1.2-8.26q-.73-.71-1.35-1.23c8.51,2,20.13,4.12,31.55,4.12,11.94,0,24.1-2.54,32.3-4.72h0a25.39,25.39,0,0,0-2.09,1.83,6.46,6.46,0,0,0-1.67,6.58h0c-.43.84-.81,1.61-1.15,2.34-.17.38-.32.74-.46,1.08l-.26.62h0l-.3.12-.66.26-.63.24-1.22.46-.59.21c-.19.08-.38.14-.58.21l-.56.19-1.28.42a9.43,9.43,0,0,0-1.17.17l.06.16-.72.2-.49.14-.4.1-.91.23a.27.27,0,0,0-.12,0c-.51.12-1,.23-1.58.34-.2,0-.39.09-.59.12a6,6,0,0,1-.61.12c-.2,0-.41.08-.62.12l-1.27.23-.68.1c-.26.05-.53.09-.8.12l-1.78.26-2.08.28-.8.11-1,.13-2,.32c-.39.07-.79.13-1.18.21l-.1,0,.3.08c.63.19,1.27.36,1.89.58l1.87.65.78.32h0c.91-.26,1.81-.51,2.72-.75l1.76-.47c1.19,2.74,2.89,5.83,7.24,6.12,4.69.32,5.35-.59,6.28.21-.42-.83-4.85-6.35-10.59-7.07h.06l2.52-.64,1.84-.45,1.6-.44c1.19,2.49,3,5,6.86,5.28,4.69.31,5.35-.59,6.29.21a18.46,18.46,0,0,0-5.06-4.9h0c.64-.49,1.28-.94,1.92-1.38h0a7.4,7.4,0,0,0,5.9,2.1c4.93-.32,5.5-1.35,6.58-.65a19.75,19.75,0,0,0-6.76-4.77h0c.89-.45,1.7-.83,2.42-1.14h0a7.87,7.87,0,0,0,2.92,1.66c1.11,2.18,2.56,5.13,3.73,7.8l1.91,4.41.92-4.71a27.5,27.5,0,0,1,3.68-8.6l.13.06-.1-.1h0a48.54,48.54,0,0,1,9.12-10.8c.52-.44,1.06-.89,1.64-1.34l15,4.56a4.59,4.59,0,0,0,.13.7,3.19,3.19,0,0,0-.54-.05,3.14,3.14,0,0,0-3.44,3.48,2.82,2.82,0,0,0,2.82,2.68,7.18,7.18,0,0,0,4.53-1.65c.63.35,1.72.46,4,.46h.28a11.24,11.24,0,0,0,2.86-.27c2.74.91,7.32,2.31,9.35,2.94l.8.24c.64.2,1.07.31,1.43.4s.62.17,1,.29l.18.06c.31.11.31.11.72.48l.25.23a6.06,6.06,0,0,0,2.94,1.43c.95.24,1.76.46,4.08,1.22a7.88,7.88,0,0,1,1.67.75,4.38,4.38,0,0,0,2.69.68,3.56,3.56,0,0,0,2.65-1.14,4.51,4.51,0,0,0,1.05-1.93,3.15,3.15,0,0,0,2.19-2.85,3.63,3.63,0,0,0-1.31-3ZM234.81,181l-.66.22v.69a2.16,2.16,0,0,1-2,1.9,2.71,2.71,0,0,1-1.79-.43,11.26,11.26,0,0,0-1.37-.66h.86a3.73,3.73,0,0,0,.8-.1h.05l.14,0,.11,0,.24-.09.05,0,.18-.08.16-.09.06,0a2.18,2.18,0,0,0,.95-1.19,1.49,1.49,0,0,0,.06-.51.08.08,0,0,0,0-.05l0-.05-.09,0-.05,0h0l0,0h0a3.41,3.41,0,0,1-.77.44,4.72,4.72,0,0,1-.55.21,3.87,3.87,0,0,1-.59.13l-.07,0-.14,0-.61.1c-.52.09-1.06.21-1.63.26s-1.08.09-1.65.21h0c-1-.31-1.59-.48-2.25-.64a4.16,4.16,0,0,1-2.16-1l-.25-.22a6.42,6.42,0,0,0-.6-.5c4.47,1,5.94.56,7.56-.24l.27-.14a5.4,5.4,0,0,0,2.73-3.46l.22-.15a2.09,2.09,0,0,1,2.17,0,2.74,2.74,0,0,1,.33.3l-.82.47.66.56a3.49,3.49,0,0,1-1.63.84c-.27.07-.55.13-.85.18l-.29,0a25,25,0,0,0,2.8,0h0l.12-.87v-.06h0l.16.13s.32.29.88.86.9,1,.83,1.56C236.17,180.21,236,180.68,234.81,181ZM215.2,165a5.74,5.74,0,0,1,4.32-2.18c.36,0,.7,0,1,0a7.47,7.47,0,0,1,6.62,3.35,9.61,9.61,0,0,1,1.56,4.38c0,1.64-.48,2.1-1.32,2.32l-1,.27.05,0a2.65,2.65,0,0,1,.52.48h0a2.12,2.12,0,0,1,.24.37,2.68,2.68,0,0,1,.21.49,2.91,2.91,0,0,1,.1.59v.14h0a2.66,2.66,0,0,1-.22,1,3.05,3.05,0,0,1-.6.83,3.21,3.21,0,0,1-1.64.85l-.15-.23a12.63,12.63,0,0,0,.78-1.38,3.43,3.43,0,0,0,.2-.59s0-.09,0-.14a.25.25,0,0,0,0-.12v-.12a.36.36,0,0,0,0-.11.54.54,0,0,0,0-.22c0-.09-.06-.19-.09-.28a2.82,2.82,0,0,0-.23-.46,1.32,1.32,0,0,0-.36-.4,3.4,3.4,0,0,0-.69-.35l0-.13c-.88-.11-1.84-.26-2.85-.45a2.59,2.59,0,0,1,0,.92,3.13,3.13,0,0,1-.38,1.09,3.83,3.83,0,0,1-1.49,1.47l-.21-.17c.11-.66.24-1.26.31-1.8a3.59,3.59,0,0,0,0-.72,1.12,1.12,0,0,0-.12-.48,1.35,1.35,0,0,0-.26-.32,4.26,4.26,0,0,0-.55-.38c-.31-.18-.67-.35-1.06-.56-.86-.26-1.71-.54-2.48-.81a3,3,0,0,1-.62,1.73,3.2,3.2,0,0,1-1.43,1.11l-.21-.17c.07-.59.16-1.11.23-1.57a3.61,3.61,0,0,0,0-1.13,1.93,1.93,0,0,0-.09-.31,3.38,3.38,0,0,0-.19-.35.4.4,0,0,0-.21-.13.26.26,0,0,1,0-.08c.07-.23.15-.46.23-.69s.17-.51.26-.76h0A13.15,13.15,0,0,1,215.2,165Zm-.5-1.06a6.36,6.36,0,0,1,2.23-1.59A6.36,6.36,0,0,0,214.7,163.94Zm16.35-.8a9.21,9.21,0,0,1,2,5.67c0,.24,0,.49,0,.71s0,.23,0,.34,0,.3-.06.44a1,1,0,0,1,0,.16c0,.14-.05.28-.08.42s0,.21-.08.31l-.09.31-.18.56a0,0,0,0,0,0,0c-.06.16-.12.3-.18.43l-.13.28-.12.27-.12.22c-.06.1-.11.2-.17.29h0l-.18.07-.14,0-.57-.32-.42.53-.05.07a3.16,3.16,0,0,1-.8.77l.11,0h.09a.71.71,0,0,1,.2,0l.08,0-.29.84h0s0,0-.06,0l-.05,0,0,0-.05,0-.1-.07-.11-.07h0l0,0,0,0,0,0h0l-.07-.06-.2-.16-.05,0h0l-.12-.09-.12-.1,0,0-.14-.12-.08-.07-.18-.15-.09-.07,0,0-.16-.16-.05,0-.11-.12-.09-.1a3.12,3.12,0,0,0,.49-.17h0a1.23,1.23,0,0,0,.23-.11l.21-.11.23-.18,0,0,.12-.1.07-.07.07-.08a3.45,3.45,0,0,0,.25-.37l.1-.19,0-.07a1.22,1.22,0,0,0,.09-.27,0,0,0,0,0,0,0,.56.56,0,0,0,0-.12.19.19,0,0,1,0-.08h0s0,0,0,0,0-.19.05-.29l0-.23a1.36,1.36,0,0,0,0-.2c0-.16,0-.32,0-.47v-.16c0-1.51-1.51-8.78-9.25-8.78-.39,0-.76,0-1.11.05a12.41,12.41,0,0,1,8.09-.36,15.21,15.21,0,0,1,3.53,1.75,15.15,15.15,0,0,0-2.91-2.82A15.46,15.46,0,0,1,231.05,163.14ZM196,170a8.54,8.54,0,0,0-.85-.26l-.16-.06-1.28-.39-1.39-.42-.08,0c-.52-.17-1.07-.33-1.65-.5-.75-.24-1.55-.49-2.39-.74l-1.27-.39-.34-.1-1.85-.57c-.66-.19-1.33-.4-2-.61h0l-1.73-.53h0l-1.72-.52h0l-.13,0-5.44-1.66L173,163l-.28-.08-.78-.24-3.1-.94.14-.07,1-.39,1.22-.48,1.15-.46.07,0,.55-.22,1.81.54,2.39.72h0l1.47.44,2.94.88.13,0,.32.1,1.81.54,1.82.54,10.88,3.27.13,0,.91.27.65.2.42.12,1,.3.23.07.24.07,1,.3,1.84.55.66.2c0,.07,0,.12,0,.18a2.62,2.62,0,0,1-.19.71s0,0,0,0l0,0-.09.13a.76.76,0,0,1-.08.11,2.34,2.34,0,0,1-.2.27,2.79,2.79,0,0,1-.28.32l-.05.05-.07.06-.2.17-.21.15-.24.11a.28.28,0,0,1-.13,0l-.11,0a.77.77,0,0,1-.3,0l-.75-.24h0l-.42-.13-.29-.09-.07,0-.36-.11-.08,0-.06,0h0l-.44-.13-.36-.12-1-.29-.06,0h0l.09,0-.11,0h0l-.32-.09-.68-.21-.07,0ZM52.39,166.86,52,167l-.86.26-1.25.38-.2.06-1.44.45-1,.3c-.52.16-1,.31-1.51.47l-2.67.81-1.17.36-.14,0-.89.27-.19.05-.57.18h0l-.57.17L39,171l-.23.07-.66.2-.1,0-.11,0-.19,0-.18.06-.08,0h0l-.75.24a.77.77,0,0,1-.3,0,1.71,1.71,0,0,1-.78-.4,4.26,4.26,0,0,1-.71-.79l-.19-.27a1.54,1.54,0,0,1-.16-.5,3.63,3.63,0,0,1-.06-.41l.65-.2,1.84-.55.73-.22.51-.15.5-.15.72-.22.43-.13.65-.19,1-.31,8-2.39,1.83-.54,2.57-.78,1-.31,8.61-2.58,1.25.47.86.32.29.1.51.2.53.19.18.07.66.25-1,.32-1.65.51-4.19,1.27-.56.17-1.27.39-.55.17-.22.06-2.43.74-1.75.54-.86.26ZM12.94,158.5h0l1.7.18a14.81,14.81,0,0,0-2.45.5l-.5.15c-.23.06-.44.13-.66.21a15,15,0,0,1,1.9-1Zm60.45-21.05a1.13,1.13,0,0,0-.3-.63,1.67,1.67,0,0,0-.42-.32,3.44,3.44,0,0,0-.39-.19c-.25-.11-.5-.21-.73-.33a2.69,2.69,0,0,1-1.07-.91,2.25,2.25,0,0,1-.34-1.32,3.43,3.43,0,0,1,.06-.55q2.16.7,4.67,1.44c4.26,1.24,15.64,4.68,30,9l-12.3,3.7-.33-.09-.91-.21-1.21-.31-.21,0A145.25,145.25,0,0,1,74,141.49c-1.1-.42-2.23-.83-3.35-1.24l.76-.35a5,5,0,0,0,1.49-1,1.91,1.91,0,0,0,.51-.93,2.66,2.66,0,0,0,0-.28v-.21Zm5.94-9.65v-.07a.49.49,0,0,0,0-.11.44.44,0,0,0-.12-.17.31.31,0,0,0-.09-.07h0l0,0h0l-.14,0-.23,0h-.15l-.27,0c-.28,0-.55,0-.84,0h-.08l.09-.1a1.49,1.49,0,0,0,.12-.14l.73-.86c.28-.34.55-.7.8-1s.5-.73.73-1.13a7.05,7.05,0,0,0,.91-2.62,9.31,9.31,0,0,0-.11-2.75c-.16-.87-.34-1.71-.42-2.52a10.29,10.29,0,0,1,0-1.36c.57-1.34.78-1.63,1.3-1.63s1.27.77,1.74,1.52.91,4.58-.37,8a10.87,10.87,0,0,0,2.45-7.32c0-.52,0-.9,0-1.18a.09.09,0,0,0,0,.06l.07.23c0,.18.1.34.15.51a10.61,10.61,0,0,1,0,4.31c-.14.72-.32,1.42-.53,2.15s-.39,1.43-.54,2.18c-.07.37-.14.75-.18,1.13a4,4,0,0,0,0,1.2,2.08,2.08,0,0,0,.18.62,2.14,2.14,0,0,0,.41.52,2.91,2.91,0,0,0,1.09.62,7.31,7.31,0,0,0,2.31.27c.38,0,.74,0,1.1,0a1.94,1.94,0,0,1,.46.07l0,0v.08a9.36,9.36,0,0,1-2,.55l0,.27a9.25,9.25,0,0,1,3.52-.18h0a0,0,0,0,1,0,0,.75.75,0,0,0,.07.12.59.59,0,0,0,.17.18l0,.06a1,1,0,0,1,0,.46,2,2,0,0,1-.38,1.07,1.18,1.18,0,0,1-.28.23,2.86,2.86,0,0,1-.51,0h-.21l-.27,0-.33,0-.34-.12a9.18,9.18,0,0,0-1.25-.24c-.41,0-.83-.07-1.25-.07H86l-.34,0h0v.27l1.23.09a3.42,3.42,0,0,1,.45,0h.16a3.18,3.18,0,0,1,.43.06h0l.18,0a9.13,9.13,0,0,1,1.18.24l.39.12.18.21.29.29s0,0,0,0h0s0,0-.07.07l-.27.12-.23.07h0l-.11,0-.32.05a5.54,5.54,0,0,1-1.15,0l-.23,0-.14,0a2.61,2.61,0,0,1-.36-.08h0l-.12,0-.67-.15-1.57-.39a7.89,7.89,0,0,0-1.19-.14c-.14,0-.28,0-.43,0h-.42l-.66,0-.54,0c-.33,0-.66-.07-1-.1l-.61-.07-.8-.09-.64-.08v-.09a3.51,3.51,0,0,1,0-.55v-.06a.5.5,0,0,0,0-.12,1.55,1.55,0,0,0,0-.21,1.72,1.72,0,0,1,.07-.21.76.76,0,0,1,0-.11c.08-.22.16-.44.25-.66l0-.11a2.32,2.32,0,0,0,.12-.42.34.34,0,0,0,0-.12.36.36,0,0,0,0-.11s0-.1,0-.17A.45.45,0,0,0,79.33,127.8Zm64.59-6.35V104.71a1.08,1.08,0,0,0,.18-.11l.22-.2a.81.81,0,0,0,.18.19,1.4,1.4,0,0,0,.62.31,1.24,1.24,0,0,0,.71-.09l.29-.2.2-.19,1.59-1.56a8.3,8.3,0,0,1,1.59-1.41,1.61,1.61,0,0,1,.93-.25,6.69,6.69,0,0,1,.78,0,2.53,2.53,0,0,0,0,.27,1.69,1.69,0,0,0,.23.51,3.35,3.35,0,0,0,.33.4l.33.32c.21.21.42.43.62.65l.29.34.11.16.08.12a1.78,1.78,0,0,1-.05.79s0,.11-.07.15l-.1.15a1.83,1.83,0,0,1-.3.33c-.2.24-.41.47-.6.74a1.89,1.89,0,0,0-.26.44,2.22,2.22,0,0,0-.17.47,8.14,8.14,0,0,0-.24,1.88,8.66,8.66,0,0,0,.16,1.9,14.9,14.9,0,0,0,.5,1.8,15.29,15.29,0,0,0,.65,1.75,18.8,18.8,0,0,0,1.9,3.22c.17.25.36.5.55.75s.19.24.3.38l.13.14.1.16a2.05,2.05,0,0,1,.11,1.57,7.31,7.31,0,0,1-.42.77c-.16.27-.32.52-.48.78-.33.5-.68,1-1,1.5-.18.25-.37.5-.55.73s-.2.23-.29.32a.57.57,0,0,1-.13.1l-.21.14a4.84,4.84,0,0,1-.72.49,1.5,1.5,0,0,1-.77.15,2.79,2.79,0,0,0-1,.18,4.78,4.78,0,0,0-.87.45,3.19,3.19,0,0,0-.72.7,1.62,1.62,0,0,0-.28.45l-.16.45a4.89,4.89,0,0,0-.2,1.94,2.33,2.33,0,0,0,.25.88l-8.47,2.54A20.74,20.74,0,0,0,143.92,121.45ZM170,128.81a.57.57,0,0,0,.18.12l.06.07c.4.46.81.92,1.19,1.39a1.47,1.47,0,0,1,.1.13l-.62.22-.76.27c-.25.1-.52.18-.78.27l-1.56.54c-.38.12-.77.24-1.17.38l-1.44.45-1,.31-1.32.39-2.21.66-1.12.33-1.22.37-5.21,1.55c-.55.18-1.13.34-1.72.53l-.89.26-1.67.5c-.32.11-.65.2-1,.3l-1,.3c-1.78.53-3.67,1.1-5.65,1.71l-2,.6-2.29.7-3.5,1.05-1.23.37c-.4.14-.81.26-1.23.38l-.69-.2q.54-.4,1.08-.84t1.29-1l.51-.46c.42-.36.83-.72,1.24-1.1h0l35.52-10.67Zm2.37,3.05a.9.9,0,0,1,.05.35.37.37,0,0,1-.1.26,1.05,1.05,0,0,1-.64.34l-.18,0h-.24l-.48,0a7.23,7.23,0,0,0-.93.16,4.76,4.76,0,0,0-1.78.76,3.22,3.22,0,0,0-1.2,1.57,2.71,2.71,0,0,0,.1,2,4.27,4.27,0,0,0,.46.73,62.19,62.19,0,0,0-6.12,2.27l-.75.33a145.47,145.47,0,0,1-14.22,5.48l-.23.07-.91.29-.21.06-.94.27-.08,0c-3.55-1.06-7.13-2.14-10.72-3.2,14.33-4.35,25.71-7.79,30-9,3.55-1,6.55-2,9.07-3A1.19,1.19,0,0,0,172.35,131.86Zm-57.27,33.88-1.22,0-1-7.28-.21,7.25-1.18,0,.26-9.2,1.89.05,1,6.32,1.31-6.26,1.9.06-.25,9.2-1.18,0,.19-7.25Zm-14.67-8.89.2-1.54,5,.61-.19,1.56-1.86-.24-1,7.59-1.26-.15,1-7.59Zm-2.83-2a3.4,3.4,0,0,1,1.41.49,1.79,1.79,0,0,1,.57,1,3.66,3.66,0,0,1,0,1.49,3.15,3.15,0,0,1-.72,1.65,1.81,1.81,0,0,1-1.35.62,3.11,3.11,0,0,1,.55.87,11.39,11.39,0,0,1,.47,1.6l.46,1.89-1.5-.25L96.94,162c-.22-.76-.36-1.26-.45-1.45a1,1,0,0,0-.31-.43,1.54,1.54,0,0,0-.6-.22l-.27,0-.64,3.8-1.23-.21,1.34-8.1.12-.74,0-.24.48.07,1.49.25Zm-5.29.6L91,155.1h0l-.57-.13-.1,0h0l-.09.38-.18.75-.17.75,0,.1,3.08.71-.34,1.52-3.09-.72L89,160.88l3.42.8L92,163.19l-4.66-1.07,1.12-4.86.17-.75.18-.75.19-.87.4-1.75,4,.94.5.11-.18.76-.17.74h0ZM58.12,142.7l1.41.47.24,3.92,2.55-3,1.37.47-3.88,4.32-1.23,3.67-1.21-.4,1.24-3.68Zm100-15v-.34h0a2.31,2.31,0,0,1,.29.24ZM146,162.28l-1.24.28-3.8-5.29,1.34,5.85-1.16.27-2-9,.64-.14.56-.12.26.37,3.62,5.05-1-4.24-.18-.76-.17-.75h0l0-.1,0-.15.48-.11.67-.15.2.91.17.75h0l.18.73Zm-74.82-8.5,2-5.77,1.12.41-1.76,4.94-.29.78-.27.77h0l-.77,2.17L70,156.65,70,155.53l0-.68v0l0-.67-.22-4L68,154.72l-.29.77h0l-.1.3-.41-.15-.7-.25.08-.26,3-8.41,1.17.41.35,6.64v0Zm8.76-1.24a3.87,3.87,0,0,1-.06.46l-1.23-.07h-.07a2.21,2.21,0,0,0,0-.68h0a1.3,1.3,0,0,0-.14-.52.27.27,0,0,0-.06-.1,1.24,1.24,0,0,0-.67-.54,1.53,1.53,0,0,0-1.48.29,3.06,3.06,0,0,0-.86,1.15,5.52,5.52,0,0,0-.33.8s0,.05,0,.08c-.08.24-.15.46-.2.68h0a4,4,0,0,0-.1,1.89,1.53,1.53,0,0,0,.74,1h0l.22.09a1.7,1.7,0,0,0,.46.07,2,2,0,0,0,.34,0,2.42,2.42,0,0,0,.36-.1,2,2,0,0,0,.5-.22h0l.15-.42.21-.66-1.38-.48.5-1.47,2.59.87L79,155.94h0l-.45,1.34-.29.84a2.48,2.48,0,0,1-.48.27,3.68,3.68,0,0,1-.35.15,4.73,4.73,0,0,1-.6.17,3.08,3.08,0,0,1-1.58-.1,2.6,2.6,0,0,1-.76-.39,2.41,2.41,0,0,1-.62-.65l0,0s0,0,0,0a3.73,3.73,0,0,1-.49-1.84,6.4,6.4,0,0,1,.07-1.14,6.94,6.94,0,0,1,.15-.74,5,5,0,0,1,.21-.7.14.14,0,0,0,0-.07,6.64,6.64,0,0,1,1.21-2.25,3.65,3.65,0,0,1,1.55-1.18,2.4,2.4,0,0,1,1.69,0,2.33,2.33,0,0,1,1.49,1.23,1.78,1.78,0,0,1,.14.37,2.68,2.68,0,0,1,.11.66c0,.1,0,.2,0,.3a2.55,2.55,0,0,1,0,.39Zm84.69,1.23.6.88.33.46.6.86-.12,0-1.18.43-1.22-1.78-.29.1-2.08.74,0,.51.06.59.1,1-1.27.46-.1-1.12-.06-.77-.1-1.21-.16-2-.06-.71-.06-.71-.25-3,1.27-.45L164,152.9Zm-56.31-3.94h-.24l-1.62-.16h-.09l-.8-.09-.8-.08-3-.39,10.55-3.17h0l.29.09h.05l0,0c1,.62,2,1.15,2.88,1.58l-.84.25-1.44.44L111,149l-2.4.72-.25.09Zm19.4-.63-2.19-.67-3-.9c.86-.43,1.83-1,2.86-1.58h0l.35-.11,9.72,2.91-1.09.19-1.58.26h-.11l-.75.11-.75.11-1.69.2h-.09Zm-10.29-.74a3.26,3.26,0,0,0,3.27,0l5.18,1.58a112,112,0,0,1-13.83.06Zm37.42,1.69,2.85-.93.48,1.48-.71.23-1.06.35v0l.26.77.44,1.33.69,2.11.53,1.61.46,1.4-.18.06-1,.34-.24-.71h0l-.49-1.47-.54-1.67-1.13-3.41h0l-1.77.58L153,151l-.07-.2.81-.27Zm-25.56,5.79a3,3,0,0,1,1.35.08,2.35,2.35,0,0,1,.9.7,4.26,4.26,0,0,1,.75,1.38,9,9,0,0,1,.46,2.17,9.19,9.19,0,0,1,0,2.09,4.72,4.72,0,0,1-.42,1.46,2.32,2.32,0,0,1-.74.86,2.63,2.63,0,0,1-1.22.4l-2.37.26-1-9.14Zm5.56-.77,1.32-.22,4.05,8.64-1.36.24-.9-2-2.48.43-.16,2.14-1.33.23Zm13.68,1.06-.23-.77h0l-.29-1-.59-2h0l1.21-.36.23.81.89,3h0l.23.77,0,.16c.07.23.13.43.18.61.13.4.23.68.29.84a1.66,1.66,0,0,0,.65.78,1.07,1.07,0,0,0,.9.09,1.15,1.15,0,0,0,.62-.42,1.2,1.2,0,0,0,.18-.5,1.93,1.93,0,0,0,0-.24,3,3,0,0,0-.08-.47c0-.21-.1-.46-.18-.76h0c-.05-.16-.09-.34-.15-.52l-.74-2.55h0l-.41-1.42-.27-.92,1-.3.19-.06.4,1.39.51,1.75.44,1.51c.13.45.24.84.33,1.2,0,.11.06.24.08.35h0c.06.28.12.52.15.74s0,.23,0,.33a2.41,2.41,0,0,1,0,.38,2.27,2.27,0,0,1-.35,1.11,2.18,2.18,0,0,1-1.31.91,2.37,2.37,0,0,1-1.6,0,2.4,2.4,0,0,1-1.11-.91,11.41,11.41,0,0,1-1-2.65l0-.13Zm29.07-4.52-1.22-1.77-2.37.85.22,2.14-1.27.46-.82-9.5,1.26-.46,5.5,7.82Zm-5.17,1.89-1.11.42-2.55-6.79,1.38,7.24-.39.15-1.11-.33-3.36-5.75,2,5.34.3.78.25.68-.14,0-1,.36-.28-.73-.3-.78-.28-.79-2.38-6.32,1.77-.66,3.28,5.48-1.15-6.29,1.79-.67Zm-107-8.42,1.26.47-.74,9.51-1.3-.47.18-2.14-2.35-.86-1.21,1.79L59.94,153Zm16.92,24.25h0a5.82,5.82,0,0,0-1.15-2.82h0l2.54.69a10.39,10.39,0,0,0,.61,5.21C83.7,171.51,83,170.48,82.29,169.43ZM81.8,159.3l.21-.77.22-.76.34-1.19.53-1.89h0l.87-3.07,2,.55a5.72,5.72,0,0,1,1.4.53,1.5,1.5,0,0,1,.45.59,1.75,1.75,0,0,1,.12.32,1.87,1.87,0,0,1,.07.22.09.09,0,0,1,0,0,2.85,2.85,0,0,1,0,.78v0a5.08,5.08,0,0,1-.16.89s0,.06,0,.09a2.52,2.52,0,0,1-.15.44h0a3.58,3.58,0,0,1-.43.83,1.26,1.26,0,0,1-.19.25,2,2,0,0,1-1,.7,3.06,3.06,0,0,1-1.46-.13l-.18-.05-.8-.22-.17.62-.23.77-.55,1.95-1.22-.35Zm38.81-2.77,1.34-.05,2.84,9.12-1.38.05-.62-2.07-2.52.09-.45,2.1-1.35,0Zm40-29.58a3.07,3.07,0,0,1,.24-.29,4,4,0,0,0,.3-.37.66.66,0,0,0,.14-.29.68.68,0,0,0,0-.4,3.08,3.08,0,0,0-.31-.44c-.09-.11-.17-.24-.26-.36a5.59,5.59,0,0,1-.43-.75,2.14,2.14,0,0,1-.13-.38v-.08l.07.07.09.09.15.09a.94.94,0,0,0,.28.1,1.94,1.94,0,0,0,.54,0,1.15,1.15,0,0,0,.26,0,1,1,0,0,0,.32-.13.9.9,0,0,0,.15-.19.46.46,0,0,0,.06-.16c0-.1,0-.19,0-.27l0-.45a4.57,4.57,0,0,1,.17-.85c.1-.25.23-.57.32-.85a1,1,0,0,1,.11-.25l.05,0c.52.5,1,1,1.53,1.58,0,0,0,.06,0,.08a.58.58,0,0,0,.36.34l.6.66c.49.53,1,1.08,1.45,1.61Zm.32-9.18a10.05,10.05,0,0,0-.19,3.27c.06.69-.22,1.3-.45,1.28h0a1.22,1.22,0,0,0-1.31.25c-.41.39-.17.64,0,1.22v.11l.06.25a2.83,2.83,0,0,1,0,.6c-.06,1.18-.3,1.32-.37,1.33s-.12-.15-.36-.22a1,1,0,0,1-.2-.26c-.12-.31-.81-.32-1,0a4.18,4.18,0,0,0-.23,1.1,1.52,1.52,0,0,0,0,.28l0,.48,0,.59v.34c0,.13,0,.25,0,.36s0,.32,0,.46a.11.11,0,0,0,0,.05,2.67,2.67,0,0,0-.46.29l-.13.1h0l-.09,0-.07.06-.17.15-.08.09-.08.07-.14.14-.31.27a12.34,12.34,0,0,1-1.41.94l-.21.12-.11.06h-.06l0-.11a1.8,1.8,0,0,1-.06-.36,3.6,3.6,0,0,1,0-.67h0l0-.11a4.17,4.17,0,0,1,.39-.71s0,0,0,0a4.38,4.38,0,0,1,.59-.7h0a.11.11,0,0,0,0-.09.13.13,0,0,0,0-.06s0,0,0,0a.13.13,0,0,0-.18,0l-.25.18h0a.16.16,0,0,0-.08.06l-.14.11a.05.05,0,0,0,0,0l-.25.23-.16.18a.39.39,0,0,0-.08.1c-.06.06-.1.12-.15.18a.1.1,0,0,1,0,.05l0,0h0c-.05.09-.1.18-.14.27a1.45,1.45,0,0,0-.12.25c0,.09,0,.18-.06.26v0a2.81,2.81,0,0,0,0,.5,2,2,0,0,0,0,.53h-.25c-.3,0-.59,0-.89,0h-.32a2.53,2.53,0,0,1-.28-.1l-.26-.13v-.18l0-.25a2.42,2.42,0,0,1,.13-.48.27.27,0,0,1,0-.12,2,2,0,0,1,.29-.56l.12-.16h0a.27.27,0,0,1,.08-.07.88.88,0,0,1,.24-.2l0,0a.14.14,0,0,0,.06-.14.13.13,0,0,0-.15-.1,1.93,1.93,0,0,0-.71.33,3.12,3.12,0,0,0-.49.47.21.21,0,0,0,0,.06,3.22,3.22,0,0,0-.42.62l-.09.19-.08.15h0l-.1-.07h0l-.09-.09a1.6,1.6,0,0,1-.38-.47l0-.06a1.65,1.65,0,0,1-.2-.65,4.3,4.3,0,0,1,0-.72l.16-.07c.05-.05.08-.12.15-.16a1.54,1.54,0,0,1,.41-.27l.25-.11a1.84,1.84,0,0,1,.25-.09l.57-.19h0a.11.11,0,0,0,.08-.12.13.13,0,0,0-.12-.15,2.64,2.64,0,0,0-.63,0,2.48,2.48,0,0,0-.65.12,1.34,1.34,0,0,0-.27.13,2.13,2.13,0,0,1,.08-.27,2.36,2.36,0,0,1,.15-.25,2.76,2.76,0,0,1,.53-.48,2.38,2.38,0,0,1,1.31-.44,2.59,2.59,0,0,0,1.23-.22,5.29,5.29,0,0,0,.9-.55l.16-.1a2,2,0,0,0,.3-.23l.38-.39c.21-.26.42-.51.61-.76.39-.49.75-1,1.1-1.54.17-.25.34-.52.51-.8l.25-.41a3.64,3.64,0,0,0,.25-.52,2.81,2.81,0,0,0,.18-.69l.46.11a5.79,5.79,0,0,0,.6.12l.32,0h.16l.1,0a.28.28,0,0,0,.12,0,.13.13,0,0,0,0-.19.08.08,0,0,0,0,0l-.06,0-.08,0h-.2l-.26-.08c-.17-.06-.34-.14-.53-.22l-.62-.3a3.13,3.13,0,0,0-.34-1.13,2.1,2.1,0,0,0-.19-.3l-.13-.17-.08-.07c-.06-.08-.17-.2-.25-.31l-.52-.71s0-.07-.07-.1h.4a2.93,2.93,0,0,1,1,.22,7.32,7.32,0,0,1,1,.49,10.13,10.13,0,0,1,.94.62.1.1,0,0,0,.07,0,.12.12,0,0,0,.1,0,.13.13,0,0,0,0-.18,7.25,7.25,0,0,0-.91-.75,7.38,7.38,0,0,0-1-.62,4,4,0,0,0-1.19-.38c-.31,0-.62,0-.92-.05-.16-.24-.31-.47-.46-.72s-.4-.71-.6-1.07l.27-.14a3,3,0,0,1,.65-.25,4.43,4.43,0,0,1,.72-.09,6.94,6.94,0,0,1,.79,0,4.29,4.29,0,0,1,1.48.3,8,8,0,0,1,1.39.73h.07a.13.13,0,0,0,.1,0,.15.15,0,0,0,0-.2,6.82,6.82,0,0,0-1.35-1,4.27,4.27,0,0,0-1.64-.49c-.28,0-.55,0-.83-.05a3.74,3.74,0,0,0-.88.07,2.54,2.54,0,0,0-.84.33l-.21.14c-.21-.48-.39-1-.56-1.46,0-.09-.06-.19-.1-.29h.07a.58.58,0,0,0,.27-.09,2.69,2.69,0,0,1,.48-.24c.17-.07.36-.12.54-.18a4,4,0,0,1,.62-.05,5.24,5.24,0,0,1,1.25.11,3.84,3.84,0,0,1,1.17.43.14.14,0,0,0,.17,0,.18.18,0,0,0,.07.05,19.11,19.11,0,0,1,2.72,2.67A4.17,4.17,0,0,1,160.93,117.77Zm-4.61-6.59a6.7,6.7,0,0,0-1.32-.26,3.89,3.89,0,0,0-1.39.09,2.8,2.8,0,0,0-.67.28l-.15.09c-.08-.25-.14-.5-.19-.73a8.34,8.34,0,0,1-.15-1.42,2.33,2.33,0,0,1,.47-.14,3.51,3.51,0,0,1,.8-.11,2.47,2.47,0,0,1,.81.07,4.42,4.42,0,0,1,.79.22h0a.16.16,0,0,0,.17-.06.14.14,0,0,0-.06-.18,4,4,0,0,0-.83-.34,3.91,3.91,0,0,0-.88-.17,4.47,4.47,0,0,0-.9,0,3,3,0,0,0-.37.08,6,6,0,0,1,.15-1.31,1,1,0,0,1,.1-.3,1.65,1.65,0,0,1,.18-.31,5.63,5.63,0,0,1,.52-.64c.09-.13.2-.24.32-.39a.85.85,0,0,0,.09-.14l.1-.16c.06-.11.09-.23.14-.33s0-.16.05-.23l.42.36.8.84c.34.39.71.79,1.09,1.18a6.29,6.29,0,0,1,.38,2.81,2.44,2.44,0,0,0,.26,1.47A3.73,3.73,0,0,0,156.32,111.18Zm-62.18-5.5-.06.07.06-.07Zm0,.17v15.6a20.68,20.68,0,0,0,4.17,11.74c-2.28-.69-4.49-1.34-6.58-2a.75.75,0,0,0,.15-.16,2.46,2.46,0,0,0,.55-1.49,2.71,2.71,0,0,0,0-.4,1,1,0,0,0-.15-.49,1,1,0,0,0-.18-.18l-.07-.07s0,0,0,0l0-.06a.56.56,0,0,0,0-.08l-.1-.1-.12-.07a2,2,0,0,0-.74-.31l-.5-.11-.1-.16a.8.8,0,0,0-.42-.24,2.47,2.47,0,0,0-.63-.08c-.4,0-.77,0-1.14,0a6.91,6.91,0,0,1-2.1-.21,2.08,2.08,0,0,1-.85-.47,1.13,1.13,0,0,1-.28-.34,1.42,1.42,0,0,1-.13-.44,6.34,6.34,0,0,1,.16-2.1c.15-.71.32-1.43.53-2.15s.4-1.45.53-2.19a11,11,0,0,0,0-4.56l-.15-.55,0-.15-.06-.15a2.59,2.59,0,0,0-.14-.29,7.69,7.69,0,0,0-.73-.93c-.53-.56-1.08-1.07-1.64-1.58l-.77-.75c-.13-.13-.25-.26-.34-.37l-.08-.12s0,0,0,0l.14-.18c.09-.1.19-.22.3-.32l.2-.2c.21-.2.42-.38.65-.57,1.12-.92,2.35-1.77,3.56-2.61.61-.42,1.22-.82,1.84-1.22s1-.62,1.57-.88a2.4,2.4,0,0,0,.36.8,2.73,2.73,0,0,0,1,.94,2.83,2.83,0,0,0,1.3.4,3.21,3.21,0,0,0,.69,0,2.23,2.23,0,0,0,.39-.13h0ZM77.61,131.48l0,.08.1.14a.53.53,0,0,0,.17.15l.11.06,0,0a1,1,0,0,0,.17,0l.14,0c.31,0,.57,0,.85.05h.26l6.3,1.89,17.93,5.38h0c.57.53,1.17,1.05,1.75,1.55s1.38,1.13,2.06,1.65l.31.24-.68.2h0c-.41-.12-.83-.24-1.23-.38l-1.23-.37-3.49-1.05-2-.59-.33-.11-2-.6q-3-.92-5.65-1.71l-1-.3c-.33-.1-.66-.19-1-.3l-1.67-.5-.89-.26L85,136.26l-5.19-1.55c-.43-.14-.85-.26-1.24-.37l-1.1-.33-2.22-.66c-1.66-.48-3.18-.95-4.6-1.42a4.47,4.47,0,0,1,.64-.81,8.17,8.17,0,0,1,1.47-1.1Zm148.17,27.34a4.32,4.32,0,0,1,.43.22,8.89,8.89,0,0,1,.82.5q-.42-.15-.84-.27t-.87-.24l-.43-.1a3.43,3.43,0,0,0-.44-.09l-.84-.14.68-.06.93-.09h0Zm-8.11-2.14-.36,0,.28,0Zm-2.79,0h0Zm-15.42,6.71a.85.85,0,0,0,.11-.14c.13-.15.26-.29.41-.44l.1-.1c.08-.1.17-.18.25-.27l.23-.2.34-.31a1.92,1.92,0,0,1,.22-.18,15.2,15.2,0,0,1,1.65-1.21l.41-.26.84-.49a2.39,2.39,0,0,0,.22-.12l.34-.18.33-.16.8-.38.4-.17c.3-.14.61-.26.91-.37s.42-.17.63-.24L208,158l.67-.22.62-.18.48-.14.49-.13.94-.21.55-.11c.33-.07.66-.12,1-.17l.87-.11.55,0h.13a1.51,1.51,0,0,1,.3,0l.28,0h0l.58,0c.47,0,.93,0,1.39,0h.32l.36,0h.13c.47,0,.93.07,1.39.13a14.41,14.41,0,0,1,1.51.25l.62.13c.45.11.89.23,1.31.35s1.09.35,1.59.54l-1-.12-7.42-.9a15.09,15.09,0,0,0-5.73.51c-4.56,1.22-8.67,4.07-10.22,6.06h0l-.43-.13A.69.69,0,0,1,199.46,163.38Zm-3.57-8.16c-1.48,1.08-4.33,2.86-7.52,5h0l-1.7-.51-1.77-.53-1.45-.43-.56-.17-1.45-.44-1.13-.33-.89-.27c1.81-.72,3.57-1.41,5.19-2,3.66-1.41,6.59-2.5,7.72-2.8l.33-.09a15.33,15.33,0,0,1,2.25-.38,10.65,10.65,0,0,1,1.6,0h0a3.4,3.4,0,0,1-.25.67,1.07,1.07,0,0,0,.28-.67h0a3.31,3.31,0,0,1,.68.12h.05l.77.19C197.93,153.31,197.35,154.17,195.89,155.22Zm2.15-2.66ZM178.74,126l4.49-1.34c-.31.24-.7.53-1.19.85l-.64.42c-.43.26-.91.54-1.46.85l-.17.09c-.25.13-.5.28-.77.41h0c0-.1,0-.2,0-.3a4.22,4.22,0,0,0,0-.49,1.36,1.36,0,0,0-.08-.28l0-.08-.06-.08,0-.05Zm-7.12-23-1.05-1.38-.32-.43c-.1-.12-.19-.27-.3-.4s-.12-.2-.18-.3l0,0a3.65,3.65,0,0,0,.24-.31,4.23,4.23,0,0,1,.45-.5,5.19,5.19,0,0,1,.49-.43l.19-.13c.51.6,1,1.16,1.58,1.7l.66.7-.23.29a6.16,6.16,0,0,1-.56.58,4.69,4.69,0,0,1-.63.47A2.25,2.25,0,0,1,171.62,103Zm2.54,3.09-.31-.34c-.23-.26-.46-.52-.68-.79s-.61-.75-.89-1.13l.3-.34c.19-.2.38-.41.58-.6s.39-.39.59-.57l.27-.23c.18.21.37.4.55.61q.8.89,1.53,1.86c-.09.12-.18.26-.28.37a5.67,5.67,0,0,1-.58.62,2.58,2.58,0,0,1-.74.42A3.4,3.4,0,0,1,174.16,106.1Zm.57.59.16-.16a5.37,5.37,0,0,1,.73-.52c.25-.15.5-.31.75-.49l.3-.19c.38.51.76,1,1.11,1.57.24.36.48.72.71,1.1.1.19.22.37.3.55h0a2.58,2.58,0,0,1-1.06.68,4.36,4.36,0,0,1-.79.2h-.33a.16.16,0,0,0,0,0,1.25,1.25,0,0,0-.08-.36.81.81,0,0,0-.08-.2.61.61,0,0,0-.09-.16,3.47,3.47,0,0,0-.34-.51C175.59,107.63,175.16,107.17,174.73,106.69ZM145.25,98.1c.57-.06,1.3-1,1.6-1.5a3.36,3.36,0,0,0,.93-.69l.35-.39,0,0a2.39,2.39,0,0,0,.23.22,2.33,2.33,0,0,0,.53.3,3.18,3.18,0,0,0,1.12.28,8.75,8.75,0,0,0,2.11-.12,7.34,7.34,0,0,0,2-.66,7.47,7.47,0,0,0,1.71-1.16.14.14,0,0,0,0-.17.14.14,0,0,0-.19,0,9.07,9.07,0,0,1-1.77.87,7.72,7.72,0,0,1-1.88.41,10.24,10.24,0,0,1-1.92,0,2.81,2.81,0,0,1-.84-.22A2.37,2.37,0,0,1,149,95l-.14-.12-.06-.06s0,0,0,0a10.38,10.38,0,0,0,1.45-2.4c.06-.12.12-.24.17-.37l.29.23a1.86,1.86,0,0,0,.56.24,3.82,3.82,0,0,0,.56.06,12.89,12.89,0,0,0,2.08-.15.13.13,0,0,0,.11-.13.13.13,0,0,0-.13-.14h0a11,11,0,0,1-2-.1,3,3,0,0,1-.45-.11,1.22,1.22,0,0,1-.35-.2,1.41,1.41,0,0,1-.33-.4c.22-.46.45-.91.7-1.33.45-.77,1-1.47,1.45-2.27v0a.09.09,0,0,0,0-.12.11.11,0,0,0-.14,0c-.18.15-.37.29-.54.45s-.33.33-.48.5a10.23,10.23,0,0,0-.88,1.09c-.26.38-.49.77-.71,1.16h0a.38.38,0,0,0-.22.47l-.41.79c-.16.32-.33.63-.5.94a3.69,3.69,0,0,1-.29-.52,5.88,5.88,0,0,1-.35-1,11.07,11.07,0,0,1-.24-1.42,8.7,8.7,0,0,1,0-.89.15.15,0,0,0-.12-.13.12.12,0,0,0-.15.11,9.73,9.73,0,0,0-.13,1.21c0,.4,0,.81,0,1.22a6.88,6.88,0,0,0,.19,1.25,4.36,4.36,0,0,0,.51,1.19c-.09.12-.17.24-.26.35-.27.35-.56.7-.86,1,0,0-.17,0-.27-.2a16.7,16.7,0,0,1-.43-3.79,11.83,11.83,0,0,1,.44-2.65c0-.88-.78-1.53-.65-2.31a1.9,1.9,0,0,1,.91-1.12l-.4-.29.4.28c.38-.27.86-.56,1.36-.91a3.59,3.59,0,0,1,2.9-1,7.46,7.46,0,0,1,3.63.78,3.56,3.56,0,0,0-.88-.75c-.36-.24-.2-.49,0-.53a8.87,8.87,0,0,0,2.46-.27,8.38,8.38,0,0,1-5-1.72c0-.15,0-.4-.54-1a4.34,4.34,0,0,1-.89-2.17,5,5,0,0,1,.49-1.84,1,1,0,0,0-.3-1.07c-.25-.24-.36-.53-.28-1.83h0v-.11a1.1,1.1,0,0,0,0-.26h0c0-.13,0-.28,0-.41s0-.09,0-.13c0-.25,0-.5.09-.73s.07-.49.12-.72a2.72,2.72,0,0,1,.07-.33l0-.08,0,0a.92.92,0,0,1,0-.09,6,6,0,0,1,.84-1c.33-.33.7-.66,1.08-1l.25-.63h0a.64.64,0,0,1,0-.07,1.42,1.42,0,0,1,0-.16,3.21,3.21,0,0,0,.08-.36c0-.24.09-.51.12-.78s.58.17.83.31a2.22,2.22,0,0,0,.81.27l.18,0,.11,0a8.74,8.74,0,0,1,.93,0h.34c.45,0,.9,0,1.35.1a12.1,12.1,0,0,1,1.34.23,9.61,9.61,0,0,1,1.25.4c.45.21.9.43,1.32.68a12.52,12.52,0,0,1,1.23.82,14.41,14.41,0,0,1,1.12,1l.53.54.31.3.09.07.1.09a1.72,1.72,0,0,0,.31.17l.32,0h0c.39,0,1.15-.11.62.24a4.21,4.21,0,0,0-.4.28,4.51,4.51,0,0,0-.42.39.84.84,0,0,0-.13.21,2.18,2.18,0,0,0-.11.27c0,.11,0,.22-.06.31l-.05.26,0,.24a17.23,17.23,0,0,0-.08,1.87,2.81,2.81,0,0,1-.31,1.64,2.66,2.66,0,0,0-.42.45s0,0-.05.09a.37.37,0,0,0-.07.14.63.63,0,0,0-.09.25l0,.1v.09a1.11,1.11,0,0,0,0,.17c0,.41.2,1-.21,1.11a3.11,3.11,0,0,0-.6.26,2.59,2.59,0,0,0-.31.19l-.14.12c-.06.06-.13.11-.18.17a1.45,1.45,0,0,0-.3.79c0,.25,0,.72-.27.68a1.38,1.38,0,0,1-.2,0l-.25,0a1.11,1.11,0,0,0-.42.16,1.35,1.35,0,0,0-.63,1.65l.11.2.12.19.12.14.11.11a4.31,4.31,0,0,1,.55.74,7.37,7.37,0,0,1,.54,1.09l0,0h0a12.66,12.66,0,0,1-.79,1.26,10.55,10.55,0,0,1-1,1.16A12.15,12.15,0,0,1,159,89a8.91,8.91,0,0,1-1.26.84h0a.12.12,0,0,0-.06.16.12.12,0,0,0,.16.09,8.75,8.75,0,0,0,1.45-.68,11.81,11.81,0,0,0,1.32-.9,12.19,12.19,0,0,0,1.2-1.08c.2-.2.39-.43.58-.64l.13.43c.08.33.16.66.23,1s.09.45.13.67a.46.46,0,0,0-.17.17h0a12.69,12.69,0,0,1-.79,1.13,10.11,10.11,0,0,1-.91,1c-.34.34-.68.66-1.05,1a12.11,12.11,0,0,1-1.12.84.11.11,0,0,0-.06.1.13.13,0,0,0,0,.06.13.13,0,0,0,.17.06,12.11,12.11,0,0,0,1.29-.67,13.67,13.67,0,0,0,1.21-.83,12.75,12.75,0,0,0,1.14-1c.19-.18.38-.37.55-.56.13.71.26,1.42.38,2.13l0,.17a9.68,9.68,0,0,1-.61.82c-.28.34-.58.68-.9,1s-.62.62-1,.92a11.57,11.57,0,0,1-1,.83h0a.12.12,0,0,0,0,.17.13.13,0,0,0,.18,0,13.46,13.46,0,0,0,1.15-.76c.37-.27.72-.56,1.07-.86a12.91,12.91,0,0,0,1-1c.11-.11.21-.21.3-.32l.2,1c.08.51.2,1,.33,1.54a8.51,8.51,0,0,1-.59.93,7.58,7.58,0,0,1-.88,1c-.32.32-.64.62-1,.91s-.73.57-1.11.81a.15.15,0,0,0-.05.12.13.13,0,0,0,0,.06.14.14,0,0,0,.17.06c.42-.23.81-.47,1.21-.73s.76-.53,1.14-.83a10.47,10.47,0,0,0,1-1c.11-.12.21-.25.31-.37.2.68.41,1.34.66,2-.23.37-.43.75-.69,1.09a10.88,10.88,0,0,1-.87,1.06,11,11,0,0,1-1,.94,8.76,8.76,0,0,1-1.13.82h0a.14.14,0,0,0-.05.18.14.14,0,0,0,.17.07,8.76,8.76,0,0,0,1.28-.69,9.8,9.8,0,0,0,1.18-.85,10.16,10.16,0,0,0,1.08-1c.16-.19.32-.37.48-.57.1.22.19.44.31.66a13.88,13.88,0,0,0,.81,1.46,1.66,1.66,0,0,1-.14.41c-.08.2-.2.41-.32.65a10.66,10.66,0,0,0-.71,1.48,8.77,8.77,0,0,0-.39,1.61A11,11,0,0,0,165,108a.14.14,0,0,0,.27,0c.11-.51.25-1,.4-1.53a8.28,8.28,0,0,1,.56-1.41c.24-.44.52-.86.82-1.31a3.54,3.54,0,0,0,.34-.58c.34.42.68.81,1,1.18l.65.72-.06.19,0,.11a.15.15,0,0,0,0,.06l0,.07c-.09.12-.15.25-.22.36a10.78,10.78,0,0,0-.62,1.5,10.42,10.42,0,0,0-.57,3.13.12.12,0,0,0,.1.12.12.12,0,0,0,.16-.09,16.43,16.43,0,0,1,1-2.89,11.82,11.82,0,0,1,.72-1.31,2.73,2.73,0,0,1,.21-.3l.06-.09.06-.1.09.1.73.77c.13.15.26.31.39.45a6,6,0,0,0-.55,1.27l-.5,1.46c-.16.51-.26,1-.37,1.53a11.44,11.44,0,0,0-.13,1.55.13.13,0,0,0,.26,0h0a13.06,13.06,0,0,1,.94-2.83l.67-1.37a7.36,7.36,0,0,0,.33-.7,1.32,1.32,0,0,0,.12.2c.16.29.31.6.48.91.3.62.59,1.26.85,1.9.13.32.26.64.38,1a1.5,1.5,0,0,0,.07.2c0,.05,0,.17.06.27a5.14,5.14,0,0,0,.2.59,3,3,0,0,0,.35.61,1.26,1.26,0,0,0,.37.35,1.1,1.1,0,0,0,.41.14,1.06,1.06,0,0,0,.48-.08,1.74,1.74,0,0,0,.66-.59l.08-.12.16.09a2.66,2.66,0,0,1,.33.21l.68-.22a3.61,3.61,0,0,1-.59-.52,3,3,0,0,1-.26-.34,8.24,8.24,0,0,0,.23-2.06,1.93,1.93,0,0,0,0-.24l.43-.16.85-.27.87-.29.31-.1c0,.11.05.22.07.33h0a7.55,7.55,0,0,1,.05,1.72l-.05.65c0,.13,0,.2,0,.29s0,.17-.07.26a5,5,0,0,1-.53,1.09,1.88,1.88,0,0,1-.16.23,4.32,4.32,0,0,1-.45-.19,3.8,3.8,0,0,1-.66-.41l-.68.22.31.25a4.76,4.76,0,0,1,.55.55c.09.13.19.26.27.4a3.52,3.52,0,0,1-.41.36c-.07.06-.16.11-.24.17l-.28.17c-.36.21-.75.42-1.14.66a6.58,6.58,0,0,0-.57.4,5,5,0,0,0-.55.48,3.8,3.8,0,0,0-.55.65,1.85,1.85,0,0,0-.31,1,2.1,2.1,0,0,0,.19.94,4.34,4.34,0,0,0,.39.68,2,2,0,0,0,.68.63l0,0c0,.18,0,.39-.11.48l-.19.09c-.36.15-.89.29-1.08.63s.17.44.79,1h0c.14.13.31.27.47.44a0,0,0,0,1,0,0l.1.12c.11.1.2.21.3.31l.26.26h0c.35.36.7.7,1.07,1l0,0,.23.23c-.31-.06-.63-.1-.94-.13s-.74-.06-1.11-.07-1,0-1.57,0a.15.15,0,0,0-.12.13.13.13,0,0,0,.13.14l.92.08c.3,0,.59.07.88.12l.77.13.07,0c.37.09.74.19,1.09.31l0,0h0a7.25,7.25,0,0,1,.9.4h0c0,.26.06.54.07.84,0,0,0,0,0,.07v.33c0,.11,0,.22,0,.34s0,.49,0,.75a2.45,2.45,0,0,1,0,.27,1.48,1.48,0,0,0-.29-.12l-.06,0a2.72,2.72,0,0,0-.53-.17h-.08l-.34-.07-.3,0-.15,0H176c-.2,0-.39,0-.6,0a.13.13,0,0,0-.12.11h0s0,0,0,.06a0,0,0,0,1,0,0s0,0,0,0l0,0h0a5.18,5.18,0,0,1,.66.14h0a6.38,6.38,0,0,1,.87.3h0a3.53,3.53,0,0,1,1,.63c-.11,1-.24,2-.35,3-.07.62-.15,1.23-.18,1.87,0,.23,0,.44,0,.64s0,.18,0,.27,0,.28,0,.41l0,.17h0s0,0,0,0-.08,0-.1,0a1,1,0,0,0-.31.2l-.21.17-.34.33-.33.31c-.22.2-.44.41-.67.6l-.34.29-.32.27a2.13,2.13,0,0,1-.63.33.82.82,0,0,1-.32.06c-.13,0-.31,0-.5.05l-.18,0a1.47,1.47,0,0,1-.23-.54,2.66,2.66,0,0,1,0-.39,1.09,1.09,0,0,1,.06-.36h0a3.1,3.1,0,0,1,.39-.74c.17-.24.36-.47.55-.7h0a.1.1,0,0,0,0-.17.13.13,0,0,0-.18,0c-.21.21-.42.43-.62.65a3.75,3.75,0,0,0-.56.79,1.66,1.66,0,0,0-.12.31,1.06,1.06,0,0,0,0,.19c0,.17-.05.33-.07.52a1.41,1.41,0,0,0,.06.54c0,.05,0,.09,0,.13h0a1.65,1.65,0,0,1-.67.06,3.87,3.87,0,0,1-1.46-.55l-.14-.07A.27.27,0,0,1,170,139s0,0,0,0l-.08-.08h0l-.05-.09a.52.52,0,0,1-.06-.16.51.51,0,0,1,0-.17.63.63,0,0,1,.07-.3,3.72,3.72,0,0,1,.21-.39c.13-.21.27-.41.42-.61s.31-.36.46-.54h0a.11.11,0,0,0,0-.16.16.16,0,0,0-.2,0,8.48,8.48,0,0,0-1.18,1h0a4,4,0,0,0-.61.78l-.09-.07-.32-.3-.09-.08-.19-.21c-.07-.1-.15-.19-.22-.3a.36.36,0,0,1-.06-.31,1.62,1.62,0,0,1,.19-.44,2.33,2.33,0,0,1,.5-.41,5.4,5.4,0,0,1,1.32-.58.15.15,0,0,0,.09-.13.12.12,0,0,0-.11-.14h0a4.27,4.27,0,0,0-.8,0,3.31,3.31,0,0,0-.8.15,1.87,1.87,0,0,0-.5.2,2.39,2.39,0,0,1,.82-1,3.87,3.87,0,0,1,1.44-.59,5.45,5.45,0,0,1,.81-.12l.42,0,.22,0a1.32,1.32,0,0,0,.34,0,2,2,0,0,0,1.24-.66,1.67,1.67,0,0,0,.23-.39,1.29,1.29,0,0,0,.11-.46,1.76,1.76,0,0,0-.12-.74l-.09-.24a3.37,3.37,0,0,0-.32-.59,1.3,1.3,0,0,0-.1-.15,3,3,0,0,0-.28-.41,4,4,0,0,0-.29-.39c-.35-.44-.69-.83-1-1.24a5.76,5.76,0,0,1,.85-.33,7.4,7.4,0,0,1,.81-.21c.29-.07.57-.11.85-.16a.13.13,0,0,0,.11-.12.13.13,0,0,0-.12-.14h-.1l-.78,0c-.3,0-.59,0-.9,0a6,6,0,0,0-.91.13,3.45,3.45,0,0,0-.43.12c-.55-.64-1.09-1.28-1.64-1.9-.17-.19-.33-.37-.49-.57a4.55,4.55,0,0,1-.35-.4,3.89,3.89,0,0,1,.41-.17,7,7,0,0,1,1.07-.35c.38-.1.76-.18,1.14-.26s.78-.12,1.16-.17h0a.13.13,0,0,0,.11-.12.11.11,0,0,0,0-.06.05.05,0,0,0,0,0,.09.09,0,0,0-.09,0q-.6,0-1.2,0c-.4,0-.8,0-1.21.07a10.46,10.46,0,0,0-1.22.16c-.19,0-.4.09-.6.15l-.24.08c-.42-.46-.82-.93-1.24-1.4l-.17-.18c.2-.07.4-.14.59-.19.49-.13,1-.25,1.49-.35s1-.18,1.53-.23,1-.09,1.54-.12h0a.13.13,0,0,0,.12-.13.12.12,0,0,0-.11-.14c-.52,0-1-.1-1.59-.11s-1,0-1.58,0a14.18,14.18,0,0,0-1.59.12c-.42,0-.83.1-1.25.19l-.23-.24-.63-.69c-.19-.2-.37-.4-.59-.6.73-.15,1.48-.28,2.22-.4,1-.18,2.05-.34,3.08-.46a.14.14,0,0,0,.11-.14.13.13,0,0,0-.13-.13c-1.06,0-2.1,0-3.13.09s-1.94.12-2.9.19c0,0,0-.09,0-.14a11.54,11.54,0,0,1-.75-2l.45-.09.79-.11c.52,0,1.06-.08,1.61-.09s1.08,0,1.62,0,1.1.06,1.64.1a.16.16,0,0,0,.15-.11.13.13,0,0,0-.11-.15c-.53-.13-1.07-.25-1.61-.36s-1.09-.2-1.65-.27-1.11-.13-1.67-.16l-.86,0-.43,0h-.18a7,7,0,0,1-.08-.8,27,27,0,0,1-.09-5.5,0,0,0,0,1,0,0c.1-.21.2-.39.28-.59s.11-.34.17-.52a7,7,0,0,1,.39-1,12.65,12.65,0,0,1,1-1.9c.4-.6.85-1.18,1.29-1.79a.12.12,0,0,0,0-.08.11.11,0,0,0,0-.08.13.13,0,0,0-.19,0,13.52,13.52,0,0,0-1.6,1.61l-.36.45-.33.47c-.2.33-.39.65-.57,1a11.2,11.2,0,0,0-.45,1.08,5.62,5.62,0,0,0-.15.55,3.77,3.77,0,0,0,0,.58v.13a.46.46,0,0,1-.1.07c-.42.17-.76-.2-1.58-1.06a14.08,14.08,0,0,0-1.57-1.78,18.3,18.3,0,0,0-1.9-1.58,5.94,5.94,0,0,0-1.11-.63,4.07,4.07,0,0,0-.82-.25,2,2,0,0,0-.05-.45s0-.1,0-.16l-.06-.09a.87.87,0,0,0-.09-.17,1.4,1.4,0,0,0-.17-.22c-.12-.14-.22-.27-.33-.38s-.45-.46-.69-.68l-.32-.32a1.79,1.79,0,0,1-.24-.24.52.52,0,0,1-.1-.22.88.88,0,0,0,.44,0,.81.81,0,0,0,.22-.07,2.76,2.76,0,0,1,.73.36,1.53,1.53,0,0,1,.22.16l.25.19.5.39c.33.26.66.51,1,.79a18.09,18.09,0,0,1,1.79,1.72c.55.61,1.09,1.26,1.63,1.91a.13.13,0,0,0,.22-.14,17,17,0,0,0-1.37-2.18,13.8,13.8,0,0,0-1.74-1.93c-.32-.29-.66-.57-1-.84l-.51-.39a2.54,2.54,0,0,0-.24-.2,3.13,3.13,0,0,0-.3-.2,2.34,2.34,0,0,0-.56-.25l0-.08c.12-.19.23-.38.34-.59.19-.39.33-.81.46-1.16a1.07,1.07,0,0,1,.55-.69,2.5,2.5,0,0,1,1.05-.16c.4,0,.77,0,1.23,0a1.35,1.35,0,0,0,.72-.18,2.51,2.51,0,0,0,.52-.42,4.57,4.57,0,0,0,.44-.44,2,2,0,0,1,.39-.39h0a.12.12,0,0,0,.07-.14.14.14,0,0,0-.16-.11,1.68,1.68,0,0,0-.59.33l-.48.36c-.17.13-.32.25-.45.33a.84.84,0,0,1-.45.07c-.37,0-.81-.09-1.22-.11a3.4,3.4,0,0,0-1.38.13,1.46,1.46,0,0,0-.63.46,2.79,2.79,0,0,0-.37.63c-.17.41-.29.78-.46,1.11a3,3,0,0,1-.47.78c-.43,0-.39,0-.84,0h0c-.24,0-.42,0-.63,0h-.57a2.06,2.06,0,0,0-.34,0l-.34.07a3.42,3.42,0,0,0-.61.28l-.3.19c-.07.06-.37.27-.81.64a15.51,15.51,0,0,0-1.58,1.62c-1.16,1.42-1.22,1.09-1.51.78a2.67,2.67,0,0,1-.6-1.29,1.75,1.75,0,0,1-.42,1.08,3.51,3.51,0,0,1-.78.56,1.82,1.82,0,0,1-2.24-.28,1.36,1.36,0,0,1-.48-1.53c.15-.53,2.39-1.09,2.39-1.09a12.35,12.35,0,0,0-2,.32c-.29.14-.55.34-.67.13s-.28-1.14,0-1.43a8.74,8.74,0,0,1,2.76-.57s-1.46,0-2,0c-.28,0-.58.07-.64-.27s.14-.61.74-1l.2-.1h0a4.79,4.79,0,0,1,1.15-.22l.6-.05h.1l.36,0,.38,0Zm-18.48,7.23.87-2.67.86,2.67h2.8L129,107l.86,2.66L127.64,108l-2.28,1.65.87-2.66L124,105.33Zm-2.42,7.44.87,2.67H128l-2.27,1.65.87,2.67-2.27-1.65-2.27,1.65.87-2.67-2.27-1.65h2.8Zm-6.18-13.68.86-2.66.87,2.66h2.81l-2.27,1.65.87,2.66L119,101.75l-2.26,1.65.86-2.66-2.26-1.65Zm-.78,16.35-2.27,1.65.87,2.67-2.27-1.65-2.27,1.65.87-2.67-2.27-1.65h2.81l.86-2.67.87,2.67Zm-7.82-10.11.87-2.67.87,2.67h2.8L111.84,107l.86,2.66L110.44,108l-2.27,1.65L109,107l-2.28-1.66Zm-5.78,8.7c1.34,7.79,7.66,13.68,15.24,13.68s13.91-5.89,15.26-13.68a18.74,18.74,0,0,1,.26,3.11c0,9.27-6.94,16.78-15.52,16.78s-15.51-7.51-15.51-16.78A18.73,18.73,0,0,1,103.79,114ZM74.6,89.16a4.68,4.68,0,0,0-.16-.67l-.34-1.21-.95.82a1.82,1.82,0,0,1-1.24.47h-.07a8.89,8.89,0,0,0,.88-3.13l.1-1.27-1.19.46a4.55,4.55,0,0,1-1.58.36,1.59,1.59,0,0,1-.57-.09,3.43,3.43,0,0,0,1-2.32,1.24,1.24,0,0,0-.71-1,2.53,2.53,0,0,0-1-.19h-.11c0-1.36.1-3.78.14-4.42l.08-1.09-1.07.26a1.52,1.52,0,0,1-.21,0,2.22,2.22,0,0,1-1.09-.41,22,22,0,0,0,2.34-2.61l.16-.23a13.3,13.3,0,0,1,3.29-3.56,5.11,5.11,0,0,1,3.06-.73l1.08,0c.62,0,1.18.09,1.73.14a18.63,18.63,0,0,0,1.9.12,5.35,5.35,0,0,0,1.32-.14,19.12,19.12,0,0,1,0,2.42l0,.31.19.25c.07.09.16.23.27.37A6,6,0,0,0,85.69,75l-.08.1a3.88,3.88,0,0,0-.72,1,1.87,1.87,0,0,0,1.46,2.67l.39,0a3.55,3.55,0,0,0,.68-.07,4.26,4.26,0,0,1-.68,2l-.16.26,0,.29a3.14,3.14,0,0,0,1.14,1.52,4.92,4.92,0,0,0,.83.58,6.75,6.75,0,0,1-.66.37,3.3,3.3,0,0,1-1.23.32h0l-.79,0-.05.8a5.81,5.81,0,0,0,.69,2.7,5.25,5.25,0,0,1-1.32.18,2,2,0,0,1-1.12-.27l-1.49-1,.23,1.8A3.54,3.54,0,0,1,82,91.11,6.51,6.51,0,0,1,81.42,90l-1-2.32-.55,2.47a3.14,3.14,0,0,1-1.11,1.91,9.61,9.61,0,0,0-1.17-3.78l-.47-.57L76.52,87,76,86.33l.1,1.11.11,1.33,0,.12a1.32,1.32,0,0,1-.54,1.19,5,5,0,0,1-.68.48c-.1-.27-.16-.52-.22-.73S74.64,89.37,74.6,89.16ZM63.6,107a8.64,8.64,0,0,1-1,.65,3.48,3.48,0,0,1-.33.17A33.9,33.9,0,0,1,64.93,96a7,7,0,0,1,1.66-2.48,3.59,3.59,0,0,1,1.12-.79,2.22,2.22,0,0,1,.31-.1c.1,0,.21,0,.31,0a2.76,2.76,0,0,1,.65.09,2.06,2.06,0,0,1,.55.29c.83.79.93,1.12.73,3.15a.36.36,0,0,1-.28.3s0,0-.09,0a.55.55,0,0,1-.15-.18l-.48-.88A8.59,8.59,0,0,0,69,96.83c0,.6-.32,4-.84,4.5a1,1,0,0,1-.61.07c-.19,0-.31-.14-.43-.43l-.54-1.15,0,1.26C66.39,103.19,66.28,104.66,63.6,107Zm-.09,22.35h0l-1.32-.57c-.17-.07-.35-.14-.51-.22l-.47-.22-.18-.08-.47-.22-.25-.12c-.34-.16-.65-.32-1-.48l-.12-.06c-.19-.1-.4-.2-.59-.31l-.57-.3c-.45-.25-.86-.5-1.22-.72s-.57-.35-.81-.51l-.35-.24-.2-.14-.64-.48,10.71,3.21a1.63,1.63,0,0,0-.11.17,5.6,5.6,0,0,1-.45.54,2.4,2.4,0,0,1-.24.22,2.11,2.11,0,0,1-.27.18A3.07,3.07,0,0,1,63.51,129.31Zm0,4.57a3.88,3.88,0,0,0-.42-.39l.44-.13a2.35,2.35,0,0,0,1.25-1.12,1.43,1.43,0,0,0,.13-.91v0a.81.81,0,0,0-.07-.22,1.57,1.57,0,0,0-.18-.42,1,1,0,0,0-.1-.17h0a0,0,0,0,0,0,0,4.29,4.29,0,0,0-.33-.38l0,0,.54-.23h0l.17-.09a3.44,3.44,0,0,0,.39-.24,3.28,3.28,0,0,0,.33-.3,6.75,6.75,0,0,0,.55-.65,4.32,4.32,0,0,0,.27-.42,2.81,2.81,0,0,0,.17-.42,1,1,0,0,0,0-.16l0-.11c0-.08,0-.16,0-.25a2,2,0,0,0-.1-.53,2.64,2.64,0,0,0-.31-.53,3,3,0,0,0,.66-.16,4.77,4.77,0,0,0,.86-.38s0,0,.06,0h0a2.46,2.46,0,0,0,.34-.22l.35-.22s0,0,0,0h0a4.36,4.36,0,0,0,.62-.53,3.29,3.29,0,0,0,.63-.9,2.65,2.65,0,0,0,.29-1c0-.33,0-.6,0-.89s0-.57,0-.85A5.66,5.66,0,0,0,70,120a12.14,12.14,0,0,1-.24-1.68l-.12-1.69-.06-.84,0-.43c0-.14,0-.27,0-.44l-.12-1.12-.68.9a3.65,3.65,0,0,1-.83.78c-.32.24-.68.46-1,.68a5.93,5.93,0,0,1-2.17.91,5.65,5.65,0,0,1-.59,0h-.62a1.82,1.82,0,0,1-1-.3A5.86,5.86,0,0,1,61,115.15a4.07,4.07,0,0,0,.35-1.07l-.77-.11a9.37,9.37,0,0,1-.31.89,5.86,5.86,0,0,1-.32.67c-.12.14-.24.29-.37.42a10.32,10.32,0,0,1-.81.81c-.39.36-.81.7-1.23,1,0-.42,0-.85,0-1.28,0-.16,0-.34,0-.5l-.73-.06.73.06q.06-.75.18-1.5l.19-1.35-.9,1c-.28.32-.56.63-.84,1a5.77,5.77,0,0,0-.75,1.16,4.47,4.47,0,0,0-.25.64c-.07.2-.12.38-.17.58q-.07-.26-.12-.48a3.73,3.73,0,0,1-.05-1.72,4.79,4.79,0,0,1,.82-1.56l1.12-1.56c.37-.52.75-1,1.1-1.62a9.3,9.3,0,0,0,.82-1.82c.2-.64.35-1.26.49-1.9s.29-1.24.44-1.86c.3-1.24.62-2.47,1-3.68.18-.6.37-1.21.6-1.79.1-.3.23-.59.35-.87L62,97.8a29.69,29.69,0,0,1,1.68-3.39,11.47,11.47,0,0,1,2.29-2.9,3.68,3.68,0,0,1,3.2-1A4.3,4.3,0,0,1,72,92.38c.07.13.15.25.21.38l.16.4a3.2,3.2,0,0,1,.22.86,5.27,5.27,0,0,1,.09.89,3.4,3.4,0,0,1,0,.45c0,.15,0,.3,0,.44-.06.31-.1.61-.18.9s-.16.61-.25.9l-.32.89-.37.86a26.62,26.62,0,0,1-1.8,3.32c-.35.54-.71,1-1.08,1.56-.2.26-.37.51-.55.77s-.37.52-.53.79a16.82,16.82,0,0,1-1.11,1.55l-.38.38a18.23,18.23,0,0,0,2.74-6,32.61,32.61,0,0,0,.91-4.41c0-.07.08-.13.14-.2a.88.88,0,0,0,.28,0,1,1,0,0,0,.54-.26.88.88,0,0,0,.19-.24l.08-.15,0-.08v-.05a8.44,8.44,0,0,0,.26-1.66,3.23,3.23,0,0,0-.53-1.7,2.72,2.72,0,0,0-.63-.68,2.3,2.3,0,0,0-.83-.41,3,3,0,0,0-.89-.13,4,4,0,0,0-.47,0,2.7,2.7,0,0,0-.43.12A4.12,4.12,0,0,0,66,93a8,8,0,0,0-1,1.28c-.3.46-.56.93-.81,1.4a44.08,44.08,0,0,0-1.74,5.27l-.15.77c-.2,1-.35,2.06-.51,3.11-.09.67-.17,1.35-.24,2a9.13,9.13,0,0,0,.5,4.77v0l.23.38a6.23,6.23,0,0,0,.73,1.08,2.79,2.79,0,0,0,1.22.81,4,4,0,0,0,1.3.21,1,1,0,0,1-.15.14,2.46,2.46,0,0,1-.53.33,2.29,2.29,0,0,1-.76.22,2.44,2.44,0,0,1-.38,0,1.43,1.43,0,0,1-.35-.06,2.62,2.62,0,0,1-1.25-.91,9.35,9.35,0,0,1-1-1.49L61,112l-.09.34c-.07.22-.09.45-.14.65s-.08.43-.14.64-.06.2-.08.3l.77.11.13.23a3,3,0,0,0,1.67,1.31,2.33,2.33,0,0,0,.59.08,2.5,2.5,0,0,0,.55,0,3,3,0,0,0,1-.36,2.79,2.79,0,0,0,.79-.7,2.57,2.57,0,0,0,.34-.54c.18,0,.34,0,.53-.06a3,3,0,0,0,.71-.22,1.66,1.66,0,0,0,.64-.59,5.49,5.49,0,0,0,.3-.59,5.42,5.42,0,0,0,.26-.6,12,12,0,0,0,.35-1.23l.06-.3.06-.32c0-.2.07-.39.12-.56a4.7,4.7,0,0,1,1.17-1.9c.27-.28.56-.55.86-.83l.92-.82a13.88,13.88,0,0,0,1.74-1.84,6.23,6.23,0,0,0,1.16-2.33,5.42,5.42,0,0,0,.14-.65l.09-.58c.08-.39.17-.78.27-1.19A10.22,10.22,0,0,0,76,96.92a20.72,20.72,0,0,0-.18-2.5c-.1-.82-.24-1.63-.29-2.42a8.06,8.06,0,0,1,0-.85A2.45,2.45,0,0,0,77,89.05a1.62,1.62,0,0,0,0-.22,12,12,0,0,1,1.19,4.8c1.58-1.2,2.2-1.86,2.51-3.29.58,1.34,1.07,1.63,1.21,2.26a12.59,12.59,0,0,0,1.42-2.11h0a.29.29,0,0,0,.18,0c1.8-.15,3.1,1.51,4.12,3.16a.3.3,0,0,0,.08.08c.3.51.61,1,.95,1.47a16.46,16.46,0,0,0,1.13,1.43l.31.34.3.31L91,98a6.46,6.46,0,0,0,1.49,1.21,3.36,3.36,0,0,0,1,.37,5.06,5.06,0,0,0,.52.08h.17l.27,0h1.8a3.73,3.73,0,0,1,1.5.26,2,2,0,0,1,.5.38,1.36,1.36,0,0,1,.12.12l0,0h0a4.29,4.29,0,0,0-.87-.06c-.21,0-.41,0-.62,0l-.3,0c-.27,0-.52.06-.78.1h-.06v.12h.07c.1,0,.2,0,.3,0s.48,0,.72,0,.42,0,.63.06a4,4,0,0,1,.78.16h0a2.66,2.66,0,0,1,.39.16,3.68,3.68,0,0,1,.42,1.32v.26a1.34,1.34,0,0,1-.76,1.23s0,0,0,0a1.89,1.89,0,0,0-.27-.2l-.05,0a2.58,2.58,0,0,0-.44-.22l0,0a7.23,7.23,0,0,0-1.09-.27c-.37-.06-.73-.1-1.1-.13H95l-.77,0h-.07v.12h.06l.4.07.67.12c.26,0,.51.12.76.19.09,0,.19,0,.28.08a5.05,5.05,0,0,1,1,.38,3.94,3.94,0,0,1,.4.26v0l.13.13h0a3.28,3.28,0,0,1-.36,1.12.86.86,0,0,1-.13.14l0,0-.16.1a1.19,1.19,0,0,1-.49.1,3.12,3.12,0,0,1-.61,0,3.41,3.41,0,0,1-.59-.13,2.37,2.37,0,0,1-.46-.2,2,2,0,0,1-.4-.31l-.08-.08-.16-.2-.19,0L94,105h0a1.52,1.52,0,0,1-.39.07,1.92,1.92,0,0,1-.24,0l-.24,0a2.25,2.25,0,0,1-.87-.33,2.54,2.54,0,0,1-.7-.65,7,7,0,0,1-.56-.88l-.09-.13a1.1,1.1,0,0,0,.07-.74,3.76,3.76,0,0,0-.73.61,1.25,1.25,0,0,1-.67.35,2.61,2.61,0,0,1-1.58-.33,8.06,8.06,0,0,1-1.51-1c-.25-.2-.47-.4-.71-.6l-.35.39.35-.39-.34-.3-.16-.15-.11-.12-.53.08c-.09.38-.14.74-.21,1.1a3.22,3.22,0,0,1-.32,1,.75.75,0,0,1-.53.43.47.47,0,0,1-.27-.06A.84.84,0,0,1,83,103a3.18,3.18,0,0,1-.38-.89,6.25,6.25,0,0,1-.23-1.06c-.12-.73-.2-1.47-.35-2.22a0,0,0,0,0,0,0H81.5a3.55,3.55,0,0,0-.09.47,5.56,5.56,0,0,1-.65,1.74,1.64,1.64,0,0,1-.71.68.87.87,0,0,1-.41.09.24.24,0,0,1-.21-.11,1,1,0,0,1-.19-.39c0-.17-.09-.35-.13-.54-.06-.39-.09-.8-.12-1.22,0-.83,0-1.68-.08-2.53v-.43h-.82l0,.43,0,1.28c0,.43,0,.86,0,1.29a10.08,10.08,0,0,0,.11,1.33,3.7,3.7,0,0,0,.16.7,2,2,0,0,0,.4.73,1.3,1.3,0,0,0,.91.42,1.94,1.94,0,0,0,.83-.19,2.49,2.49,0,0,0,1-.91,5.49,5.49,0,0,0,.17.76,3.62,3.62,0,0,0,.55,1.21,2,2,0,0,0,.6.53,1.44,1.44,0,0,0,.86.13,1.53,1.53,0,0,0,.77-.36,1.93,1.93,0,0,0,.44-.61,3.69,3.69,0,0,0,.33-1.25.66.66,0,0,1,0-.14h0a5.3,5.3,0,0,0,.67.67,8.28,8.28,0,0,0,1.7,1.14,4.59,4.59,0,0,0,.73.28c-.47.26-.93.55-1.38.83l-.46.29-.46.31c-1.11.72-2.17,1.48-3.21,2.31-.3.25-.58.5-.87.76-.07.09-.14.15-.2.22a9.55,9.55,0,0,0-1.79,2,7.06,7.06,0,0,0-.84,2.66c0,.14,0,.29,0,.43a10.77,10.77,0,0,0,0,2.27c.09.92.29,1.78.43,2.61a7.89,7.89,0,0,1,.12,2.41,6.35,6.35,0,0,1-.75,2.26c-.4.71-.88,1.43-1.36,2.13-.25.35-.51.69-.76,1l-.12.14a4.92,4.92,0,0,0-.37.59s0,.08-.07.13a5.64,5.64,0,0,0-.75.32h0l-.25.13-.22.11-.17.1c-.42.22-.83.47-1.24.7l-.61.37c-.34.2-.68.4-1,.63h0a7.92,7.92,0,0,0-1.08.87,4.49,4.49,0,0,0-.81,1.08c0,.11-.11.22-.16.34a2.49,2.49,0,0,0-.11.29s0,0,0,0h0a2.47,2.47,0,0,0-.1.29s0,0,0,0,0,.19-.07.27h0a4.54,4.54,0,0,0-.1.74,3,3,0,0,0,.44,1.73,2.77,2.77,0,0,0,.59.69,1.33,1.33,0,0,0,.19.14l.17.2a2.86,2.86,0,0,0-.42,0,4.46,4.46,0,0,0-.51.07c-.34,0-.67.07-1,.11l0,.25h0c.27,0,.54,0,.82,0h.17a8.77,8.77,0,0,1,1,.09,3.22,3.22,0,0,1,1.44.52.13.13,0,0,1,0,.09s0,.08,0,.11,0,.07,0,.12a1.07,1.07,0,0,1-.22.46,2.46,2.46,0,0,1-.48.49,4.8,4.8,0,0,1-.52.36h-.06a1,1,0,0,1-.25-.08c-.17-.07-.32-.16-.48-.24s-.6-.36-.89-.56L69,138a3.25,3.25,0,0,0-.45-.32,1.4,1.4,0,0,0-.55-.21,1.88,1.88,0,0,0-.55.07v.09a4.46,4.46,0,0,1,.49.14,1.44,1.44,0,0,1,.34.28l.36.36a2.81,2.81,0,0,0,.44.35c.3.22.61.4.91.6l.33.23h0l-.73.34h0a12,12,0,0,1-1.42.6l-.24.06-.1,0h-.14a3.31,3.31,0,0,1-.44,0h-.15l-.1,0-.41-.13a1.61,1.61,0,0,1-.28-.17l-.14-.1c-.17-.14-.33-.29-.5-.46a3.61,3.61,0,0,1-.84-1.18,1.12,1.12,0,0,1-.08-.26,5.6,5.6,0,0,1-.17-1.2,9,9,0,0,0-.19-1.65A3.49,3.49,0,0,0,63.52,133.88ZM38,155.22c-1.6-1.09-2.18-2-2.28-2.73l.23,0,.62-.09a4.26,4.26,0,0,1,.67-.11h.09c.24,0,.49,0,.76,0s.41,0,.63,0H39l.17,0h.15l.3,0,.14,0,.29,0,.26,0,.27.05.28.05.31.06.07,0,.07,0,.47.1.15,0,.26.08a1,1,0,0,1,.21.06l.2.06.06,0,.09,0,.24.07.4.13.3.1.06,0,.13,0,.13,0,.13,0,.64.22.31.11.42.15.34.11.19.07,1.34.47,2,.73.74.27.81.3,1.89.71,2.63,1,1.28.47,0,0,.1,0-4.93,1.47-1.92.58-1.24.37-1.93.58C43.16,158.57,39.76,156.41,38,155.22Zm-20.58,1.85.19,0a20.65,20.65,0,0,1,2.71-.35h.13c.45,0,.91,0,1.37,0H22l1.14,0h.07l1.26.09.86.11c4.82.71,10.53,3.06,13.42,6.65l-.43.12a13.22,13.22,0,0,0-2.51-2.32A23.8,23.8,0,0,0,29.4,158a16,16,0,0,0-7.06-.91l-4.07.5-4.35.52a22.16,22.16,0,0,1,2.3-.75C16.62,157.24,17,157.16,17.44,157.07Zm-6.65,2.62-.19.14.19-.14ZM5,168.81a9.15,9.15,0,0,1,2-5.67H7a15.7,15.7,0,0,1,3.52-1.74,12.41,12.41,0,0,1,8.09.36c-.34,0-.72-.05-1.11-.05-7.74,0-9.22,7.27-9.25,8.78,0,1.35.27,2.63,1.62,3.2h0a3.12,3.12,0,0,0,.49.17,1.9,1.9,0,0,1-.2.22l-.11.11-.1.1-.15.13-.14.12-.26.22-.57.45-.1.07-.15.11-.11.07-.08,0s0,0,0,0h0a.26.26,0,0,1-.09.05h0L8,174.75a.75.75,0,0,1,.42,0,4.6,4.6,0,0,1-.75-.76l-.48-.6-.57.32-.32-.12A9.39,9.39,0,0,1,5,168.81ZM16.1,180.19a4.24,4.24,0,0,1-2.16,1c-1,.25-1.86.49-4.23,1.26a10.47,10.47,0,0,0-2,.9,2.71,2.71,0,0,1-1.79.43c-1.56,0-2-1.68-2-1.89l.05-.73L3.25,181c-1.2-.32-1.35-.79-1.44-1.53-.07-.52.19-.9.83-1.56s.87-.85.87-.86l1-.83-.83-.47a3.35,3.35,0,0,1,.35-.3,2,2,0,0,1,2.15,0l.23.15a5.46,5.46,0,0,0,2.72,3.46l.29.14c1.62.8,3.07,1.26,7.56.24a5.24,5.24,0,0,0-.61.5ZM25,170.43a2.37,2.37,0,0,0-.2.35,1.93,1.93,0,0,0-.09.31,3.61,3.61,0,0,0,0,1.13c.07.46.16,1,.23,1.57l-.2.17a3.18,3.18,0,0,1-1.44-1.11,3,3,0,0,1-.62-1.73c-.77.27-1.62.55-2.48.81-.39.21-.75.38-1.06.56a4.26,4.26,0,0,0-.55.38,1.35,1.35,0,0,0-.26.32,1.12,1.12,0,0,0-.12.48,3.59,3.59,0,0,0,0,.72c.07.54.2,1.14.31,1.8l-.21.17a3.83,3.83,0,0,1-1.49-1.47,3.13,3.13,0,0,1-.38-1.09,2.59,2.59,0,0,1,0-.92c-1,.19-2,.34-2.85.46l0,.12a3.06,3.06,0,0,0-.68.35,1.24,1.24,0,0,0-.37.4,3.94,3.94,0,0,0-.23.46c0,.09-.07.19-.09.28a.54.54,0,0,0-.05.22.36.36,0,0,0,0,.11s0,.08,0,.12,0,.08,0,.12,0,.09,0,.14a3.43,3.43,0,0,0,.2.59,12.63,12.63,0,0,0,.78,1.38l-.15.23A3.14,3.14,0,0,1,11.4,177a2.68,2.68,0,0,1-.6-.83,2.52,2.52,0,0,1-.22-1,5.66,5.66,0,0,0,.65-.65l.82-1,.22-.27-1.6-.43c-.84-.22-1.35-.68-1.31-2.32a9.5,9.5,0,0,1,1.54-4.38,7.5,7.5,0,0,1,6.63-3.35c.33,0,.66,0,1,0A5.76,5.76,0,0,1,22.87,165a12.63,12.63,0,0,1,1.82,3.76l.26.76c.08.24.16.47.23.7l0,.08h0A.34.34,0,0,0,25,170.43Zm14.78,4.18a1.26,1.26,0,0,0,.28.19.71.71,0,0,0,.16.07.58.58,0,0,0,.25,0A1.63,1.63,0,0,1,42,173.26c1.16,0,2.36.37,2.36,2.42,0,1.29-1.42,1.61-1.73,1.61a6.25,6.25,0,0,1-4.18-1.67h-.07l-.12,0-.11,0h.1l-.14,0h0l-.16,0a1.47,1.47,0,0,0-.24.13c-.38.26-1.47.38-3.57.38h-1.5a7.61,7.61,0,0,1-1.38-.22l-.18-.05-.25-.08s0,0-.08,0l-.35-.13-.08,0h0a.07.07,0,0,1-.06,0h0l-.35-.18-.05,0a2.7,2.7,0,0,1-.33-.22l0,0-.24-.16h0l-.1-.09-.07-.06,0,0h0l-.05,0h0a5.26,5.26,0,0,1-.48-.47h0a.93.93,0,0,1-.16-.18h0l-.16-.2a1.33,1.33,0,0,1-.14-.19,2.61,2.61,0,0,1-.19-.27,3.7,3.7,0,0,1-.31-.46.41.41,0,0,1-.05-.09c-.1-.16-.19-.33-.28-.51a4.71,4.71,0,0,1-.22-.45,2.17,2.17,0,0,1-.15-.35l0-.06a5.37,5.37,0,0,1-.21-.56l0,0v0a2.09,2.09,0,0,1-.08-.23.05.05,0,0,1,0,0l0,0-.12-.33c0-.11-.07-.21-.11-.32h0c-.07-.23-.16-.46-.23-.7h0l0-.12h0a15.18,15.18,0,0,0-2.19-4.65,6.49,6.49,0,0,0-2.51-2,6.42,6.42,0,0,1,2.51,2,10.61,10.61,0,0,0-2-3L21.4,161l-.36-.33a10.65,10.65,0,0,0-1.29-.93l-.44-.24a4.59,4.59,0,0,0-.5-.24,5,5,0,0,0-.53-.23l3.25.33.84.08a14.31,14.31,0,0,1,8.84,4.94h0c.19.23.37.48.55.73.07.09.14.17.2.26s.21.34.32.5.26.4.38.62v.1c0,.39,0,.73,0,1a9.76,9.76,0,0,0,.27,2.67,2.36,2.36,0,0,0,.24.53,4,4,0,0,0,2.52,2,3,3,0,0,0,.43.12,2.76,2.76,0,0,0,.51.05h.28l.13-.05.06,0,.11,0,.43-.15H38l.15-.15.16-.05,1.63-.5.56-.17c-.4,1.87-1.29,2.09-1.29,2.09A2.88,2.88,0,0,0,39.79,174.61Zm54.69,8a15.82,15.82,0,0,0-5.45,3L88.88,183s0,0,0,0h0a12.68,12.68,0,0,0,1.41-1.71C91.67,181.72,93.07,182.18,94.48,182.61Zm50.48-.43c-.1.33-.17.61-.23.83a11,11,0,0,0-1.14-.4Zm59.75-6.08h-.77c-2.1,0-3.2-.12-3.57-.38l-.25-.13a.27.27,0,0,0-.12,0l-.08,0-.09,0h0c-.1,0-.17,0-.24,0a6.25,6.25,0,0,1-4.18,1.67c-.32,0-1.74-.32-1.74-1.61,0-2.05,1.2-2.42,2.36-2.42a1.64,1.64,0,0,1,1.57,1.66,1.08,1.08,0,0,0,.68-.31,2.8,2.8,0,0,0,.59-.62.79.79,0,0,1-.25-.12l-.1-.08-.14-.13-.14-.16c-.05-.06-.09-.14-.14-.21a.75.75,0,0,1-.07-.12c-.06-.1-.11-.23-.17-.35a2.2,2.2,0,0,1-.13-.34,4.93,4.93,0,0,1-.13-.49.29.29,0,0,0,0-.09l2.18.67.15.05.17.15h.33l.73.25h.28a2.7,2.7,0,0,0,.93-.17,4,4,0,0,0,2.53-2,5.91,5.91,0,0,0,.51-3.06c0-.36,0-.74,0-1.18v-.09a14.25,14.25,0,0,1,9.06-6.84,11.07,11.07,0,0,1,1.24-.23l.77-.07,3.25-.31-.05,0a5.11,5.11,0,0,0-.47.21,1.15,1.15,0,0,0-.25.12l-.24.12c-.18.09-.35.19-.5.28l-.09.06h0c-.11.06-.2.13-.29.19h0c-.12.08-.23.17-.34.26a1.76,1.76,0,0,0-.3.24l-.05,0-.12.09-.34.32c-.14.14-.28.27-.41.42h0l0,0c-.12.14-.24.27-.35.41l-.34.44c-.12.15-.22.31-.32.46s0,0,0,0-.16.24-.23.37-.15.25-.22.38-.25.49-.37.74h0a2.16,2.16,0,0,0-.21.29,1.77,1.77,0,0,0-.16.22l-.3.47-.34.65c-.08.15-.15.31-.22.47s-.18.41-.26.62-.13.32-.19.48-.18.47-.25.69-.17.51-.25.76h0l0,.1s0,0,0,0h0c-.08.23-.15.46-.23.69l0,.09c0,.1-.07.19-.1.28l0,.13-.06.14-.06.16s0,.09,0,.13a.06.06,0,0,1,0,.05h0s0,0,0,0a.11.11,0,0,1,0,0s0,0,0,.07a0,0,0,0,1,0,0,2,2,0,0,1-.09.22,1,1,0,0,1-.07.18,2.65,2.65,0,0,1-.18.42,4.69,4.69,0,0,1-.21.45,6.75,6.75,0,0,1-.38.66.59.59,0,0,1,0,.08s0,0,0,0h0l0,0v0s0,0,0,0l0,.07h0a.86.86,0,0,1-.07.1l0,0-.11.16a2.47,2.47,0,0,1-.21.27l-.05.07-.11.13s0,0,0,0h0l-.13.14h0a.68.68,0,0,1-.12.12,2.89,2.89,0,0,1-.35.35h0l-.05,0-.22.19h0a5.25,5.25,0,0,1-1,.62h0s0,0,0,0h0l-.07,0a5.78,5.78,0,0,1-.7.24l-.17.05-.18,0a.85.85,0,0,1-.17,0l-.35.06a5,5,0,0,1-.54.06l-.29,0h-.57Z"/><path class="cls-1" d="M235.2,178.44a.14.14,0,0,0-.14,0l0,0a1.73,1.73,0,0,1-.92.47,5,5,0,0,1-1.1.07,4.11,4.11,0,0,1-1.1-.2,3.72,3.72,0,0,1-1-.52h0a.13.13,0,0,0-.18,0,.14.14,0,0,0,0,.15,2.67,2.67,0,0,0,1,.86,3.36,3.36,0,0,0,2.59.18,1.58,1.58,0,0,0,1-.93A.15.15,0,0,0,235.2,178.44Z"/><path class="cls-1" d="M97.58,158.67a.8.8,0,0,0,.44-.3,1.49,1.49,0,0,0,.26-.71,1.54,1.54,0,0,0,0-.72.77.77,0,0,0-.34-.43,3.76,3.76,0,0,0-1-.23l-1-.17-.37,2.31.93.15A4,4,0,0,0,97.58,158.67Z"/><polygon class="cls-1" points="121.35 158.66 120.61 162.1 122.33 162.03 121.35 158.66"/><polygon class="cls-1" points="135.83 157.18 135.57 160.69 137.27 160.4 135.83 157.18"/><path class="cls-1" d="M130,163.55a2.15,2.15,0,0,0,.86-.23,1.05,1.05,0,0,0,.4-.48,2.27,2.27,0,0,0,.2-.91,9.24,9.24,0,0,0-.06-1.59,8.12,8.12,0,0,0-.31-1.58,2.27,2.27,0,0,0-.46-.88,1.11,1.11,0,0,0-.66-.37,3.63,3.63,0,0,0-1,0l-.58.06.68,6.05Z"/><polygon class="cls-1" points="175.43 148.61 173.47 145.69 173.82 149.19 175.43 148.61"/><polygon class="cls-1" points="65.27 147.44 63.3 150.36 64.92 150.94 65.27 147.44"/><path class="cls-1" d="M84.06,156l.16.05.51.14.57.13a1.08,1.08,0,0,0,.39,0,.89.89,0,0,0,.4-.2,1.2,1.2,0,0,0,.12-.11h0a1.18,1.18,0,0,0,.2-.28,1,1,0,0,0,.06-.16,2.18,2.18,0,0,0,.09-.23,1,1,0,0,0,0-.15,1.62,1.62,0,0,0,0-.65.93.93,0,0,0-.28-.5s0,0,0,0a1.77,1.77,0,0,0-.35-.19l-.63-.19-.59-.17-.22.8h0L84.06,156Z"/><polygon class="cls-1" points="160.96 152.68 161.03 153.4 161.08 153.91 161.83 153.65 162.7 153.33 162.6 153.18 162.01 152.3 160.74 150.4 160.9 151.97 160.96 152.68"/><path class="cls-1" d="M161.66,76.36c-.13.19-.29.36-.44.54s-.31.34-.48.5c-.32.34-.7.63-1.07,1a3.55,3.55,0,0,0,1.43-.53,4.81,4.81,0,0,0,.62-.47,4.69,4.69,0,0,0,.52-.57,4.79,4.79,0,0,0,.75-1.34,3.73,3.73,0,0,0,.23-1.51c-.26.44-.49.86-.75,1.25A11.7,11.7,0,0,1,161.66,76.36Z"/><path class="cls-1" d="M156.89,80.76c1.54-1.68,1.61-2.93,1.48-3.46a2.27,2.27,0,0,0,.44-.37,2.22,2.22,0,0,0,.45-.84h0a1.63,1.63,0,0,1-.67.51,1.47,1.47,0,0,1-.64.13.57.57,0,0,0-.16-.71,4.57,4.57,0,0,0-.86-.56h0a2.88,2.88,0,0,0,2.31-1.12,6,6,0,0,1-2.69.19c-.7-.22-1.18-1.08-1.32-1.22a2.19,2.19,0,0,0,.35,1.13,6,6,0,0,0,.64.72,9.17,9.17,0,0,0-1.37-.16c-.34,0-.44.21-.56.48s-.4,0-.4,0a.17.17,0,0,0-.1,0,3.44,3.44,0,0,0-.42-.65c-.12-.14-.26-.28-.39-.41l-.1-.09-.07-.06a.44.44,0,0,1-.1-.15.8.8,0,0,1-.05-.38,1.79,1.79,0,0,1,0-.23.53.53,0,0,0,0-.12.41.41,0,0,0,0-.08,1.08,1.08,0,0,1,.15-.13.5.5,0,0,1,.26,0,.38.38,0,0,0,.22-.1.33.33,0,0,0,.08-.19.36.36,0,0,0,0-.19.75.75,0,0,0-.27-.33c-.19-.12-.35-.17-.5-.25a1,1,0,0,1-.21-.1.47.47,0,0,1-.13-.11.37.37,0,0,1-.06-.28,2.34,2.34,0,0,1,.07-.45c.18-.66.46-1.33.69-2l-.08,0c-.38.6-.75,1.2-1.08,1.85a1.86,1.86,0,0,0-.17.58,1,1,0,0,0,.18.7,1.49,1.49,0,0,0,.28.24l.28.13.45.19,0,0a.54.54,0,0,1-.17.09.72.72,0,0,0-.26.18.35.35,0,0,0-.1.16l-.08.12a1,1,0,0,0-.12.28,1.14,1.14,0,0,0,0,.66.9.9,0,0,0,.17.3,1.47,1.47,0,0,0,.1.13l.09.1.32.37a5.5,5.5,0,0,1,.39.72,4.87,4.87,0,0,0-.7,3.31c.73-.79.94-1,.94-.51s0,.63.29.75l1,.37,1,.32c.28.08.42-.06.69-.41S156.81,79.7,156.89,80.76Zm-3.9-8s0,0,0,0,0,0,0,0A.19.19,0,0,1,153,72.72Zm.84,4.44c-.09.38-.17.58-.84,1.15-.14-1.27.44-1.67.62-1.78C153.88,76.78,153.92,76.78,153.83,77.16Zm4.13.89c.08.2.28.87-.63,1.77a1.9,1.9,0,0,1,.06-1.41C157.56,78.06,157.59,78.08,158,78.05Zm-1.8,1.24c-.16.26-.45.73-.74.63l-1.28-.51c-.25-.11-.15-.82-.09-1.22s.29-.16.52,0a6.09,6.09,0,0,0,1.51.5C156.41,78.72,156.31,79,156.16,79.29Zm-.8-1.06c-1.15-.4-1.27-.73-1.29-1a3.31,3.31,0,0,1,.53-1.52c.27-.34,1-.25,1.66,0s1.27.62,1.27,1.07a3.37,3.37,0,0,1-.53,1.52C156.8,78.45,156.49,78.63,155.36,78.23Z"/><path class="cls-1" d="M157.68,70.15l-3.48-1.3-.08,1.93,2.51.8Zm-3,.24,0-.77,2.13.78-.41.55Z"/><path class="cls-1" d="M163,72.67l-3.4-1.5-.24,1.76,2.36,1.18Zm-3.05,0,.08-.68,2.08.93-.52.57Z"/><path class="cls-1" d="M77,117.28a2.87,2.87,0,0,0,1.22-1.39,6.16,6.16,0,0,0,.45-1.81l0-.28c0-.5.1-1,.11-1.49a9.24,9.24,0,0,0-.09-1.66A6.83,6.83,0,0,1,80,108.86a13.89,13.89,0,0,1,1.89-1.6A25,25,0,0,1,84,105.9c.55-.33,1.11-.63,1.68-.94l.55-.3a13.22,13.22,0,0,0-2.43.85,20.08,20.08,0,0,0-2.31,1.18,15.52,15.52,0,0,0-2.13,1.54,8.85,8.85,0,0,0-1.76,2.07l0,0,0,.22a10.47,10.47,0,0,0-.11,1.76c0,.58.09,1.18.13,1.74a7.69,7.69,0,0,1,0,1.66A3.33,3.33,0,0,1,77,117.28Z"/><path class="cls-1" d="M76.54,122.61a3.4,3.4,0,0,1-.52,1,22.41,22.41,0,0,1-1.7,1.85l-.4.41-.29.26-.21.2a.24.24,0,0,1-.08.06,2.27,2.27,0,0,1-.87.42h0l-.09,0v.06A1.56,1.56,0,0,0,73,127H73a2.11,2.11,0,0,0,.68-.24l.23-.15.2-.14c.17-.12.35-.23.5-.36l.16-.12c.33-.28.64-.56,1-.86a9.71,9.71,0,0,0,.93-1,3.94,3.94,0,0,0,.41-.6,4.26,4.26,0,0,0,.28-.7,3.17,3.17,0,0,0,.09-.73c0-.23,0-.46,0-.68s0-.44-.07-.66a3.82,3.82,0,0,0-.15-.67,2.18,2.18,0,0,0-.78-1.14l0,0a2.7,2.7,0,0,1,.17.6,4.2,4.2,0,0,1,.08.62c0,.2,0,.4,0,.61s0,.41,0,.62A5.45,5.45,0,0,1,76.54,122.61Z"/><path class="cls-1" d="M72.37,117.48a5.75,5.75,0,0,0,.25.77,2.29,2.29,0,0,0,.49.76,1.42,1.42,0,0,0,.45.3,1.21,1.21,0,0,0,.57.06,1.59,1.59,0,0,0,.84-.46,2.4,2.4,0,0,0,.51-.65,4.19,4.19,0,0,0,.34-.71,5.19,5.19,0,0,0,.3-1.49v-.14l-.19,0-.07.13a6.74,6.74,0,0,0-.35.64c-.11.21-.21.42-.33.63a4.18,4.18,0,0,1-.74,1,.88.88,0,0,1-.42.24.37.37,0,0,1-.31-.13,2.56,2.56,0,0,1-.48-1.13,14.61,14.61,0,0,1-.26-2.83c0-1,0-1.94,0-2.91v-.14l-.22,0,0,.13a7.37,7.37,0,0,0-.41,1.44,10.82,10.82,0,0,0-.18,1.49c0,.5,0,1,0,1.51A10.16,10.16,0,0,0,72.37,117.48Z"/><path class="cls-1" d="M74.06,75.33l-.57-1.7-3,2.15L72,76.93Zm-.85-.84.23.64L72,76.26l-.63-.46Z"/><path class="cls-1" d="M78.87,72.76l-.32-1.89-3.3,1.71,1.23,1.29Zm-.73-1.07.13.77-1.67.77-.47-.51Z"/><path class="cls-1" d="M74.94,82c0,.78.46,2.39,2.9,4.16,0,0,0,0,.06,0s0,0,0-.06c-.19-1.39-.19-1.76.28-1.38s.7.54,1,.36l1.26-.71s.88-.55,1.21-.79.29-.49.17-1.08.22-.42,1.4.42c-.34-2.53-1.25-3.78-1.94-4.33a3.45,3.45,0,0,1,.06-.66,2.34,2.34,0,0,0,0-.26.77.77,0,0,1,.26-.49l.35-.48a1.41,1.41,0,0,0,.14-1.51L82,74.73c-.24-.85-.44-1-.88-1.27L81,73.38a.3.3,0,1,0-.33.51l.13.07c.34.23.43.28.61.93,0,.19.11.35.15.49.17.47.21.57-.06,1a3.67,3.67,0,0,1-.34.45,1.52,1.52,0,0,0-.36.79c0,.08,0,.15,0,.23l-.06.43c-.14,0-.24,0-.28,0s-.33.41-.56.08a.81.81,0,0,0-.89-.48,7.68,7.68,0,0,0-1.35.43A2.19,2.19,0,0,0,76.81,75a.08.08,0,0,0-.1.11c.81,1.46.6,1.82,0,2.15a3.32,3.32,0,0,1-1.91.09h-.41a5.62,5.62,0,0,1,.88.77,1.92,1.92,0,0,0,1.43.54A10.67,10.67,0,0,0,75.38,80a.78.78,0,0,0,0,1c.12.26-.1.38-.23.43a3.39,3.39,0,0,0-1-.68l-.23-.1a1.44,1.44,0,0,0-.85-.16,4.49,4.49,0,0,1-.55,0c-.47,0-.53-.1-.82-.5-.09-.14-.19-.26-.31-.42-.43-.54-.42-.63-.39-1v-.14a.29.29,0,0,0-.27-.32.3.3,0,0,0-.32.28v.14A1.69,1.69,0,0,0,70.94,80c.11.14.21.27.28.38a1.38,1.38,0,0,0,1.31.76c.25,0,.45,0,.59,0a.8.8,0,0,1,.55.08l.23.12a2.71,2.71,0,0,1,.86.57A.25.25,0,0,0,74.94,82ZM81,79.35c.27.09,1.13.45,1.29,2.14-1-.54-1.19-.79-1.4-1.26S80.74,79.76,81,79.35ZM77.3,79.1c.77-.47,1.77-.8,2.25-.42a4.57,4.57,0,0,1,1.13,1.9c.06.39,0,.88-1.44,1.73s-1.89.7-2.2.48a4.68,4.68,0,0,1-1.15-1.9C75.77,80.29,76.52,79.58,77.3,79.1Zm-1.51,3.42c.49-.07.53-.11.84.3a2.53,2.53,0,0,1,.45,1.83C75.66,83.72,75.74,82.79,75.79,82.52Z"/><path class="cls-1" d="M294.41,86.81a1.92,1.92,0,0,0-.42-1c-.85-.77-4.5-.07-5.14,1-2.72,4.42-5.41,8.84-8.13,13.26-1.52,2.47-3.06,4.93-4.73,7.62-.71-1.16-1.25-2-1.77-2.88-3.14-5.28-6.48-10.46-9.33-15.89-1.51-2.88-3.41-3.81-6.38-3.23-.06,0-.11,0-.49.18-1.92,10.43-3.84,20.91-5.81,31.61a19.72,19.72,0,0,1,2.33,0c1.86.27,2.84-.3,2.85-2.37a37.45,37.45,0,0,1,.54-4.57c.61-4.66,1.23-9.32,1.92-14.52.8,1.32,1.33,2.17,1.84,3q5,8.52,10,17c1.21,2.06,2.61,2,3.82,0q4.8-8.1,9.58-16.2l2.24-3.75c.15.81.23,1.16.27,1.51.74,6,1.44,12.07,2.23,18.1.08.61.63,1.63,1,1.65,2.66.15,5.33.08,8.13.08-1.42-9.48-2.81-18.71-4.19-27.94C294.68,88.58,294.58,87.69,294.41,86.81Z"/><path class="cls-1" d="M415.7,86.69a25,25,0,0,0-5.67-.93c-6-.16-12-.08-18-.23-1.82,0-2.41.44-2.39,2.32.09,9.09.05,18.18.06,27.28,0,.68.06,1.37.11,2.35,8-.49,15.85.92,23.6-1.07a17.46,17.46,0,0,0,10.87-7.69C429.79,99.85,425.75,89.38,415.7,86.69Zm.54,19.19c-1.09,4.9-4.61,7.73-9.58,8.43-2.69.38-5.45.31-8.33.45V88c3.89.38,7.67.44,11.31,1.2a8.46,8.46,0,0,1,6.89,7.42A27,27,0,0,1,416.24,105.88Z"/><path class="cls-1" d="M343.41,95.08c.68.54,1.09.84,1.46,1.17,7.28,6.46,14.65,12.82,21.78,19.44,2.26,2.09,4.52,1.75,7,1.59V85.69H369.2V107.4c-.92-.76-1.51-1.21-2.06-1.7-6.86-6.07-13.82-12-20.5-18.28-2.48-2.33-5-1.81-7.73-1.77v31.61h4.5Z"/><path class="cls-1" d="M463.16,114H450.54V102.69h12.4V99.25H450.58V88.93h12.48c.58-3.34.55-3.37-2.49-3.37H444.05c-.67,0-1.35.06-2,.09V117.3h21.11Z"/><path class="cls-1" d="M500,88.83V85.74H478.75V117.3h8.52V102.67h12.45V99.29c-3.74,0-7.26,0-10.77,0-.56,0-1.6-.46-1.61-.74-.12-3.16-.08-6.33-.08-9.69Z"/><path class="cls-1" d="M316.32,85.53c-1.63-.1-2.05.49-2,2.06.07,9.21,0,18.43,0,27.65,0,.67.08,1.35.12,2h8.4V85.57C320.52,85.57,318.41,85.67,316.32,85.53Z"/><path class="cls-1" d="M435,133.44c-5.85,0-9.59,3.26-9.68,8.53-.08,5.11,3.2,8.39,8.79,8.45,3.83.05,7.25-1.19,9.14-4.83C446.32,139.58,442.13,133.49,435,133.44Zm3.71,13.2a4.62,4.62,0,0,1-4.74,2.27,4.55,4.55,0,0,1-4.05-3.3,8.75,8.75,0,0,1-.72-3.62,8.45,8.45,0,0,1,1.31-4.55,5.08,5.08,0,0,1,4.31-2.63,4.53,4.53,0,0,1,4.2,2.53A9.07,9.07,0,0,1,438.66,146.64Z"/><path class="cls-1" d="M470.36,141.15a4.17,4.17,0,0,0,1.82-4.33,3.14,3.14,0,0,0-3-2.83c-2.71-.18-5.45-.05-8.21-.05v16h3.66v-6.9a26.15,26.15,0,0,1,3,4.42c1.7,2.93,2.16,3.12,5.73,2.24l-4.85-7.6A19.61,19.61,0,0,0,470.36,141.15Zm-5.66.23v-6c2.45-.47,3.6.22,3.8,2.2C468.73,140,467.48,141.31,464.7,141.38Z"/><path class="cls-1" d="M313.89,144.94c-3.43-3.64-6.47-6.82-9.44-10.07a2.79,2.79,0,0,0-3.44-.94V150l1.88-.11V138.59c3.48,3.69,6.56,7,9.74,10.23a15.33,15.33,0,0,0,3.14,1.83V133.8h-1.88Z"/><path class="cls-1" d="M345.38,142.47c0,1.53.08,3-.05,4.43a2.29,2.29,0,0,1-.88,1.64,5.46,5.46,0,0,1-6.64-1.86c-1.67-2.58-1.47-7.57.69-9.74a8.19,8.19,0,0,1,3.78-2c2.22-.54,4.07.56,5.76,2.46.29-1,.48-1.75.69-2.5a12.87,12.87,0,0,0-11.69-.19,8.5,8.5,0,0,0-4.38,8.33c.42,3.58,2.42,5.81,6,6.86,3.21.94,6.34.45,9.45-.41.35-.1.85-.53.86-.82.07-2.07,0-4.15,0-6.23Z"/><path class="cls-1" d="M406.29,134.09c-2.75-.36-5.54-.37-8.37-.53V150h3.5v-6.61a41.19,41.19,0,0,0,4.91-1.05c2-.68,2.81-2.39,2.71-4.78C409,135.65,408.07,134.32,406.29,134.09Zm-2.44,7a13,13,0,0,1-2.45.74c0-2.14-.08-3.85.07-5.54,0-.4.82-1,1.29-1.05a2.19,2.19,0,0,1,2.37,2C405.42,138.71,405.36,140.18,403.85,141.05Z"/><path class="cls-1" d="M373.38,133.74a1.8,1.8,0,0,0-1.2.95c-1,2.27-2,4.58-2.94,6.88-1.16,2.74-2.59,6.11-3.74,8.86l2.26,0s.55-1.27.79-1.9c.43-1.15,1.46-3.42,1.46-3.42l5.24,0,1.74,5.26,4.1,0s-4.28-11-6.39-16A1.61,1.61,0,0,0,373.38,133.74Zm-3,9.91c.69-1.71,1.34-3.3,2.18-5.36l2.13,5.36Z"/><path class="cls-1" d="M498.44,135.38c.35,0,.66-.53,1-.81-.33-.3-.64-.84-1-.85-2.66-.07-5.33,0-8,0v16.37c2.72,0,5.28,0,7.83,0,.4,0,.78-.55,1.16-.84-.43-.26-.84-.69-1.29-.72-1.32-.1-2.65,0-4.09,0v-5.64c5.15-1,5.15-1,5-2.07h-5v-5.28C495.65,135.42,497.05,135.48,498.44,135.38Z"/><path class="cls-1" d="M259.57,140.29a8.42,8.42,0,0,1-2.46-1.45,3.41,3.41,0,0,1-1-2.56,2.58,2.58,0,0,1,2.17-1.32,13.93,13.93,0,0,1,3.58,1.46c.13-.42.37-1.12.78-2.37a35.61,35.61,0,0,0-5.18-.52,4.52,4.52,0,0,0-4.43,3.82,4.73,4.73,0,0,0,2.68,5.39c1.07.57,2.37.89,3.19,1.7a3.62,3.62,0,0,1,1.11,2.87,2.91,2.91,0,0,1-2.46,1.51c-1.4-.25-2.67-1.22-4-1.89-1.13,2.35-.85,2.93,2.11,3.44a6.31,6.31,0,0,0,.76.09c3,.19,6-1.48,6.67-3.81C263.92,144.06,262.74,142,259.57,140.29Z"/><path class="cls-1" d="M280.36,150h3.32V133.8h-3.32Z"/></g></svg>