<svg xmlns="http://www.w3.org/2000/svg" viewBox="0 0 500 230"><defs><style>.cls-1{fill:#fff;}</style></defs><g id="redjasper"><path class="cls-1" d="M94.32,22.27A92.73,92.73,0,1,0,187.05,115,92.73,92.73,0,0,0,94.32,22.27Zm0,166.33a73.6,73.6,0,1,1,73.6-73.6A73.61,73.61,0,0,1,94.32,188.6Z"/><path class="cls-1" d="M65.6,52.47v77.39l27.25-15.73V46A68.48,68.48,0,0,0,65.6,52.47Z"/><path class="cls-1" d="M122.57,95.33V51.72a68.35,68.35,0,0,0-27.24-5.8V79.6Z"/><path class="cls-1" d="M162.34,121.24l-67-38.69V114l59,34.08A68.37,68.37,0,0,0,162.34,121.24Z"/><path class="cls-1" d="M96.75,149.15,134.51,171a68.48,68.48,0,0,0,18.65-20.69L124,133.42Z"/><path class="cls-1" d="M54.44,170.57l67-38.69L94.21,116.15l-59,34.09A68.28,68.28,0,0,0,54.44,170.57Z"/><path class="cls-1" d="M63.07,99.81,25.3,121.62a68.36,68.36,0,0,0,8.6,26.49l29.17-16.84Z"/><path class="cls-1" d="M94.32,22.27A92.73,92.73,0,1,0,187.05,115,92.73,92.73,0,0,0,94.32,22.27Zm0,166.33a73.6,73.6,0,1,1,73.6-73.6A73.61,73.61,0,0,1,94.32,188.6Z"/><path class="cls-1" d="M216.7,145.85V84.61h17.06q6.45,0,9,3.23c1.73,2.15,2.59,5.17,2.59,9v8.39a12,12,0,0,1-1.66,6.73,7.58,7.58,0,0,1-4.61,3.23v.37a7.42,7.42,0,0,1,4.84,3q1.61,2.31,1.61,6.92v20.38h-8.11v-21a6.72,6.72,0,0,0-1.11-4.29c-.74-.89-2.09-1.33-4.06-1.33h-7.47v26.65Zm20.65-48a6.4,6.4,0,0,0-1.24-4.29c-.83-1-2.23-1.43-4.2-1.43h-7.1v20.2H232a5.39,5.39,0,0,0,3.91-1.38c1-.93,1.43-2.55,1.43-4.89Z"/><path class="cls-1" d="M250.17,145.85V84.61h22.14v7.47h-14V110h12.82v7.57H258.29v20.84H273v7.47Z"/><path class="cls-1" d="M277.1,145.85V84.61h15.12q13.93,0,13.93,14.11v32.19q0,7.65-3.5,11.3t-10.43,3.64Zm14.57-7.47q3.78,0,5-2.58a16.91,16.91,0,0,0,1.24-7.2V101.67a15.36,15.36,0,0,0-1.33-7c-.9-1.73-2.69-2.59-5.4-2.59h-6v46.3Z"/><path class="cls-1" d="M330.87,84.61H339v46.3q0,7.47-3.6,11.48t-10.78,4q-14,0-14-15.31v-7.47h7.74v7.93q0,7.2,6.18,7.2,6.38,0,6.37-7.29Z"/><path class="cls-1" d="M366.46,145.85l-2.39-14.39H352.81l-2.21,14.39h-8L353,84.61h11.16l10.42,61.24Zm-12.54-21.49h9l-4.33-26.84h-.37Z"/><path class="cls-1" d="M397.73,102.69v-3.5a8.62,8.62,0,0,0-1.53-5.4c-1-1.32-2.69-2-5-2a6.08,6.08,0,0,0-4.89,1.84,6.78,6.78,0,0,0-1.57,4.52v2.4a7.19,7.19,0,0,0,.74,3.41,11.61,11.61,0,0,0,2.86,3.14c1.05.8,2.2,1.61,3.46,2.44s2.5,1.65,3.73,2.44,2.43,1.6,3.6,2.4a34.68,34.68,0,0,1,3,2.31,12.79,12.79,0,0,1,3.28,4.33,16.26,16.26,0,0,1,1.15,6.73v3.78q0,7.2-3.55,11t-11.67,3.82q-8.12,0-11.62-3.92T376.24,131v-3.5h7.84v3.59c0,2.53.55,4.43,1.66,5.72s2.92,1.94,5.44,1.94a7,7,0,0,0,5-1.66q1.75-1.67,1.75-5.35V129a14.74,14.74,0,0,0-.18-2.44,6.72,6.72,0,0,0-.65-1.94,7.25,7.25,0,0,0-1.24-1.66c-.53-.52-1.16-1.09-1.89-1.7a57.4,57.4,0,0,0-6.55-4.71,35.41,35.41,0,0,1-6.18-4.79,18.46,18.46,0,0,1-3.51-5,14.83,14.83,0,0,1-1.19-6.27V97.8A14.22,14.22,0,0,1,380,87.89q3.46-3.83,11.12-3.83a17.4,17.4,0,0,1,6.91,1.2,11.13,11.13,0,0,1,4.43,3.32,12.76,12.76,0,0,1,2.35,5.07,27.93,27.93,0,0,1,.69,6.36v2.68Z"/><path class="cls-1" d="M419.49,121.5v24.35h-8.3V84.61h17.06q6.38,0,9,3.23c1.76,2.15,2.63,5.17,2.63,9v12.36c0,3.87-.87,6.88-2.63,9s-4.74,3.23-9,3.23Zm0-7.19h7.1c2,0,3.37-.55,4.2-1.66A7.73,7.73,0,0,0,432,108V97.8a6.4,6.4,0,0,0-1.24-4.24c-.83-1-2.23-1.48-4.2-1.48h-7.1Z"/><path class="cls-1" d="M444.21,145.85V84.61h22.13v7.47h-14V110h12.82v7.57H452.32v20.84h14.76v7.47Z"/><path class="cls-1" d="M471.13,145.85V84.61H488.2q6.45,0,9,3.23c1.72,2.15,2.59,5.17,2.59,9v8.39a12,12,0,0,1-1.66,6.73,7.57,7.57,0,0,1-4.62,3.23v.37a7.42,7.42,0,0,1,4.85,3q1.61,2.31,1.61,6.92v20.38h-8.11v-21a6.72,6.72,0,0,0-1.11-4.29c-.74-.89-2.09-1.33-4.06-1.33h-7.47v26.65Zm20.66-48a6.4,6.4,0,0,0-1.24-4.29c-.83-1-2.23-1.43-4.2-1.43h-7.1v20.2h7.19a5.4,5.4,0,0,0,3.92-1.38c1-.93,1.43-2.55,1.43-4.89Z"/></g></svg>