<svg id="Layer_1" data-name="Layer 1" xmlns="http://www.w3.org/2000/svg" viewBox="0 0 521.71 170.66"><defs><style>.cls-1{fill:#2d3142;}.cls-2{fill:#fff;}</style></defs><rect class="cls-1" width="521.71" height="170.66" rx="23.06"/><path class="cls-2" d="M140.19,127.48a84,84,0,0,1-7.64,14.26c-5,7.55-12,17-20.62,17-7.7.07-9.67-5-20.12-5s-12.63,5.05-20.34,5c-8.66-.08-15.29-8.58-20.25-16.13C37.35,121.55,35.9,96.76,44.45,83.59c6.09-9.37,15.68-14.85,24.7-14.85,9.18,0,15,5,22.55,5,7.36,0,11.85-5,22.47-5,8,0,16.53,4.37,22.59,11.93C116.91,91.54,120.13,119.9,140.19,127.48Z" transform="translate(-4.15 -14.67)"/><path class="cls-2" d="M106.12,60.29c3.85-4.95,6.78-11.94,5.72-19.09-6.3.44-13.67,4.45-18,9.67C90,55.62,86.73,62.66,88,69.49,94.87,69.71,102,65.6,106.12,60.29Z" transform="translate(-4.15 -14.67)"/><path class="cls-2" d="M182.46,83.27l-19.87,58.5h9.1l5.93-18h19.25l6.1,18h9.35l-20-58.5Zm4.72,9.62c.67,2.61,1.39,5.32,2.32,8.25l5.36,15.51H179.62L184.9,101C185.7,98.51,186.47,95.77,187.18,92.89Z" transform="translate(-4.15 -14.67)"/><path class="cls-2" d="M238,98.43c-6,0-10.86,2.33-14.07,6.75l-.35-5.82h-8.1l0,.75c.24,3.62.34,7.61.34,13.34v45.1h8.85V137.5a15.52,15.52,0,0,0,12.1,5.2,18.26,18.26,0,0,0,13.41-5.7c3.88-4.1,5.92-10,5.92-17,0-6.22-1.78-11.59-5.14-15.54A16.85,16.85,0,0,0,238,98.43Zm-2.21,7.33c7.9,0,11.43,7.31,11.43,14.55,0,9.34-4.51,15.15-11.76,15.15a10.73,10.73,0,0,1-10.43-8.22,11.51,11.51,0,0,1-.31-2.86v-7.12a12.9,12.9,0,0,1,.28-2.18c0-.25.09-.49.12-.72A11.22,11.22,0,0,1,235.83,105.76Z" transform="translate(-4.15 -14.67)"/><path class="cls-2" d="M283.62,98.43c-6,0-10.86,2.33-14.07,6.75l-.36-5.82H261.1l0,.75c.24,3.63.34,7.61.34,13.34v45.1h8.85V137.5a15.51,15.51,0,0,0,12.09,5.2,18.29,18.29,0,0,0,13.42-5.7c3.87-4.1,5.92-10,5.92-17,0-6.22-1.78-11.59-5.14-15.54A16.85,16.85,0,0,0,283.62,98.43Zm-2.2,7.33c7.88,0,11.42,7.31,11.42,14.55,0,9.34-4.51,15.15-11.76,15.15a10.73,10.73,0,0,1-10.43-8.22,11.51,11.51,0,0,1-.31-2.86v-7.12a13,13,0,0,1,.28-2.19c0-.24.09-.48.13-.71A11.19,11.19,0,0,1,281.42,105.76Z" transform="translate(-4.15 -14.67)"/><path class="cls-2" d="M340.72,108.06c-8.26-3.2-10.9-5.72-10.9-10.37,0-3.91,3.1-7.86,10.06-7.86a20.07,20.07,0,0,1,10.39,2.61l.75.46,2.49-7.38-.49-.29c-1.48-.87-5.71-2.9-12.89-2.9C328.84,82.33,321,89,321,98.54c0,7.69,4.94,13.07,15.53,16.92,7.52,2.81,10.31,5.68,10.31,10.61,0,5.58-4.31,9.05-11.25,9.05a24.23,24.23,0,0,1-12.76-3.62L322,131l-2.38,7.56.44.29c3.34,2.23,9.63,3.84,15,3.84,15.21,0,20.6-9.28,20.6-17.22C355.65,117.29,351.33,112.24,340.72,108.06Z" transform="translate(-4.15 -14.67)"/><path class="cls-2" d="M371.59,89.28,362.91,92v7.35h-6.36v7.08h6.36v21.67c0,5.24,1,8.91,3.06,11.23a11.34,11.34,0,0,0,8.56,3.36,20.74,20.74,0,0,0,6.85-1.06l.49-.17-.42-7.09-.85.26a13.15,13.15,0,0,1-4.12.48c-3.43,0-4.89-2.17-4.89-7.27V106.44h10.67V99.36H371.59Z" transform="translate(-4.15 -14.67)"/><path class="cls-2" d="M404.2,98.43c-12.38,0-21,9.25-21,22.47,0,12.84,8.37,21.8,20.35,21.8h.08c10.14,0,21-7.06,21-22.56,0-6.3-1.95-11.71-5.64-15.65A19.72,19.72,0,0,0,404.2,98.43Zm-.26,7c8,0,11.59,7.76,11.59,15,0,8.87-4.95,15.31-11.75,15.31h-.09c-6.71,0-11.59-6.33-11.59-15.06C392.1,113.07,395.77,105.42,403.94,105.42Z" transform="translate(-4.15 -14.67)"/><path class="cls-2" d="M451.75,98.84l-.53-.13a8.3,8.3,0,0,0-2.2-.28,12.63,12.63,0,0,0-11.1,7.13l-.26-6.2h-7.94l0,.75c.23,3.5.33,7.44.33,12.74L430,141.77h8.85V119.21a22.79,22.79,0,0,1,.24-3.43c1-5.42,4.66-8.92,9.32-8.92a21,21,0,0,1,2.37.15l.95.1Z" transform="translate(-4.15 -14.67)"/><path class="cls-2" d="M471.65,98.35c-11.78,0-20,9.41-20,22.89,0,13,8.18,21.38,20.86,21.38a34,34,0,0,0,14-2.69l.53-.24-1.7-6.6-.74.3a27.41,27.41,0,0,1-11.09,2c-3.84,0-12.71-1.26-13.25-12.83l28.57.09.11-.57a19.6,19.6,0,0,0,.27-3.69C489.21,109.13,484.61,98.35,471.65,98.35Zm-.59,6.73a8.77,8.77,0,0,1,6.5,2.48c2.54,2.59,3,6.41,3.05,8.24H460.42C461.24,110.69,464.44,105.08,471.06,105.08Z" transform="translate(-4.15 -14.67)"/><path class="cls-2" d="M162.59,43.3a64.13,64.13,0,0,1,8.49-.57c5.7,0,9.77,1.15,12.46,3.41s4.38,5.5,4.38,10a14,14,0,0,1-4.43,10.76c-2.92,2.59-7.67,4-13.64,4a60.87,60.87,0,0,1-7.26-.33Zm4,24.53a29.49,29.49,0,0,0,4,.16c8.49,0,13.1-4.27,13.1-11.75.05-6.61-4.06-10.68-12.46-10.68a25.56,25.56,0,0,0-4.66.37Z" transform="translate(-4.15 -14.67)"/><path class="cls-2" d="M202.16,71.07c-5.94,0-10.59-3.94-10.59-10.23,0-6.65,4.88-10.55,11-10.55,6.35,0,10.64,4.14,10.64,10.18,0,7.4-5.71,10.6-10.95,10.6Zm.14-2.71c3.83,0,6.71-3.24,6.71-7.76,0-3.37-1.88-7.6-6.62-7.6s-6.76,3.94-6.76,7.72c0,4.35,2.74,7.64,6.62,7.64Z" transform="translate(-4.15 -14.67)"/><path class="cls-2" d="M219.51,50.74l3,10.06c.59,2.22,1.19,4.32,1.6,6.37h.14c.5-2,1.23-4.15,2-6.33l3.6-10.1h3.38l3.43,9.94c.82,2.34,1.46,4.48,2,6.49h.14a54,54,0,0,1,1.69-6.45l3.14-10h4l-7.12,19.88h-3.66l-3.37-9.49a64.5,64.5,0,0,1-2-6.57h-.09a54.38,54.38,0,0,1-2,6.61l-3.56,9.45h-3.65l-6.66-19.88Z" transform="translate(-4.15 -14.67)"/><path class="cls-2" d="M251.52,56.12c0-2.1-.05-3.74-.19-5.38h3.56l.23,3.24h.09a8.38,8.38,0,0,1,7.31-3.69c3.05,0,7.8,1.64,7.8,8.46V70.62h-4V59.16c0-3.21-1.33-5.92-5.12-5.92a5.73,5.73,0,0,0-5.38,3.7,4.72,4.72,0,0,0-.28,1.69v12h-4Z" transform="translate(-4.15 -14.67)"/><path class="cls-2" d="M276.85,41.45h4V70.62h-4Z" transform="translate(-4.15 -14.67)"/><path class="cls-2" d="M296.53,71.07c-5.94,0-10.59-3.94-10.59-10.23,0-6.65,4.88-10.55,10.95-10.55,6.35,0,10.64,4.14,10.64,10.18,0,7.4-5.71,10.6-11,10.6Zm.13-2.71c3.84,0,6.71-3.24,6.71-7.76,0-3.37-1.87-7.6-6.62-7.6S290,56.94,290,60.72c0,4.35,2.74,7.64,6.62,7.64Z" transform="translate(-4.15 -14.67)"/><path class="cls-2" d="M328.16,65.86a29.87,29.87,0,0,0,.32,4.76h-3.61l-.36-2.5h-.14a8.46,8.46,0,0,1-6.75,2.95c-4.47,0-6.76-2.83-6.76-5.71,0-4.8,4.75-7.43,13.28-7.39v-.41c0-1.65-.5-4.64-5-4.6a11.55,11.55,0,0,0-5.79,1.47L312.41,52a15.53,15.53,0,0,1,7.31-1.72c6.8,0,8.44,4.14,8.44,8.13Zm-3.92-5.39c-4.39-.08-9.36.62-9.36,4.48,0,2.38,1.73,3.45,3.74,3.45a5.57,5.57,0,0,0,5.43-3.33,3.27,3.27,0,0,0,.19-1.15Z" transform="translate(-4.15 -14.67)"/><path class="cls-2" d="M353.68,41.45v24c0,1.77.05,3.78.18,5.14h-3.6l-.19-3.45H350c-1.23,2.22-3.88,3.9-7.48,3.9-5.34,0-9.5-4.06-9.5-10.1-.05-6.66,4.57-10.68,9.91-10.68,3.42,0,5.7,1.44,6.66,3h.09V41.45Zm-4,17.38a5.94,5.94,0,0,0-.18-1.56,5.8,5.8,0,0,0-5.8-4.15c-4.15,0-6.62,3.29-6.62,7.64,0,4.07,2.24,7.39,6.53,7.39a6,6,0,0,0,5.89-4.31,5.52,5.52,0,0,0,.18-1.56Z" transform="translate(-4.15 -14.67)"/><path class="cls-2" d="M379,71.07c-5.93,0-10.59-3.94-10.59-10.23,0-6.65,4.89-10.55,11-10.55,6.35,0,10.64,4.14,10.64,10.18,0,7.4-5.71,10.6-11,10.6Zm.14-2.71c3.84,0,6.71-3.24,6.71-7.76,0-3.37-1.87-7.6-6.62-7.6s-6.75,3.94-6.75,7.72c0,4.35,2.74,7.64,6.62,7.64Z" transform="translate(-4.15 -14.67)"/><path class="cls-2" d="M395.09,56.12c0-2.1,0-3.74-.19-5.38h3.56l.23,3.24h.09a8.37,8.37,0,0,1,7.31-3.69c3.06,0,7.8,1.64,7.8,8.46V70.62h-4V59.16c0-3.21-1.33-5.92-5.12-5.92a5.73,5.73,0,0,0-5.38,3.7,4.72,4.72,0,0,0-.28,1.69v12h-4Z" transform="translate(-4.15 -14.67)"/><path class="cls-2" d="M434.94,46v4.77h5.75v2.75h-5.75V64.21c0,2.47.78,3.86,3,3.86a8.48,8.48,0,0,0,2.33-.24l.18,2.75a11.94,11.94,0,0,1-3.56.49,6.07,6.07,0,0,1-4.34-1.52c-1.09-1.11-1.55-2.87-1.55-5.22V53.49h-3.42V50.74H431V47.08Z" transform="translate(-4.15 -14.67)"/><path class="cls-2" d="M445.21,41.45h4V53.86h.09a6.85,6.85,0,0,1,2.88-2.55,8.5,8.5,0,0,1,4.1-1c3,0,7.72,1.64,7.72,8.5V70.62h-4V59.2c0-3.25-1.32-5.92-5.11-5.92a5.79,5.79,0,0,0-5.39,3.62,4,4,0,0,0-.27,1.73v12h-4Z" transform="translate(-4.15 -14.67)"/><path class="cls-2" d="M472.83,61.3c.09,4.88,3.51,6.9,7.53,6.9a16.8,16.8,0,0,0,6.12-1l.73,2.55a19.88,19.88,0,0,1-7.4,1.27C473.06,71,469,67,469,61s4-10.77,10.4-10.77c7.22,0,9.09,5.71,9.09,9.37a7.82,7.82,0,0,1-.14,1.73Zm11.73-2.59c0-2.26-1.05-5.88-5.52-5.88-4.11,0-5.85,3.37-6.17,5.88Z" transform="translate(-4.15 -14.67)"/></svg>