<svg id="Layer_1" data-name="Layer 1" xmlns="http://www.w3.org/2000/svg" xmlns:xlink="http://www.w3.org/1999/xlink" viewBox="0 0 511.48 167.31"><defs><style>.cls-1{fill:#2d3142;}.cls-2{fill:url(#linear-gradient);}.cls-3{fill:url(#linear-gradient-2);}.cls-4{fill:url(#linear-gradient-3);}.cls-5{fill:url(#linear-gradient-4);}.cls-6{fill:none;}.cls-7{fill:#f9f9f9;}</style><linearGradient id="linear-gradient" x1="76.19" y1="50.43" x2="76.19" y2="160.45" gradientUnits="userSpaceOnUse"><stop offset="0" stop-color="#257db0"/><stop offset="0.21" stop-color="#3c90b3"/><stop offset="0.74" stop-color="#73bdb9"/><stop offset="1" stop-color="#89cebc"/></linearGradient><linearGradient id="linear-gradient-2" x1="49.51" y1="77.77" x2="120.11" y2="77.77" gradientUnits="userSpaceOnUse"><stop offset="0" stop-color="#51bfac"/><stop offset="1" stop-color="#dee899"/></linearGradient><linearGradient id="linear-gradient-3" x1="84.57" y1="105.21" x2="84.57" y2="160.56" gradientUnits="userSpaceOnUse"><stop offset="0" stop-color="#eb403d"/><stop offset="0.19" stop-color="#d64252"/><stop offset="0.74" stop-color="#9f4887"/><stop offset="1" stop-color="#894a9c"/></linearGradient><linearGradient id="linear-gradient-4" x1="124.45" y1="89.99" x2="124.45" y2="120.42" gradientUnits="userSpaceOnUse"><stop offset="0" stop-color="#f48779"/><stop offset="0.61" stop-color="#fab076"/><stop offset="1" stop-color="#fdc674"/></linearGradient></defs><path class="cls-1" d="M520.74,161a22.61,22.61,0,0,1-22.61,22.62H31.87A22.61,22.61,0,0,1,9.26,161V39A22.61,22.61,0,0,1,31.87,16.34H498.13A22.61,22.61,0,0,1,520.74,39Z" transform="translate(-9.26 -16.34)"/><path class="cls-2" d="M104.76,105.21,49.05,160.45a2.3,2.3,0,0,1-1.42-2.39V53.41c0-1.67.77-2.67,1.88-3Z" transform="translate(-9.26 -16.34)"/><path class="cls-3" d="M120.11,90l-15.35,15.22L49.51,50.43a4,4,0,0,1,3.05.56l1.67,1,1,.55,4.59,2.65,1.6.92.85.49,1.76,1,1.84,1.06L97,76.68Z" transform="translate(-9.26 -16.34)"/><path class="cls-4" d="M120.1,120.42,97,133.74,51.53,160h0a3,3,0,0,1-2.45.42l55.71-55.24Z" transform="translate(-9.26 -16.34)"/><path class="cls-5" d="M142.27,107.62l-.29.17-.61.35-.51.3-.59.34-1,.58-.75.43-.39.23-.83.48-.87.5-10,5.77-.88.51-5.45,3.14-15.34-15.21L120.11,90l1.33.77.84.49.66.38,19.37,11.19.12.06a3.64,3.64,0,0,1,.39.23C144.64,104.32,144.71,106.21,142.27,107.62Z" transform="translate(-9.26 -16.34)"/><path class="cls-6" d="M142.27,107.62l-.29.17-.61.35-.51.3-.59.34-1,.58-.75.43-.39.23-.83.48-.87.5-10,5.77-.88.51-5.45,3.14L97,133.74,51.53,160h0a3,3,0,0,1-2.45.42,2.3,2.3,0,0,1-1.42-2.39V53.41c0-1.67.77-2.67,1.88-3a4,4,0,0,1,3.05.56l1.67,1,1,.55,4.59,2.65,1.6.92.85.49,1.76,1,1.84,1.06L97,76.68,120.11,90l1.33.77.84.49.66.38,1.1.64,1.23.71c5.76,3.35,14.58,8.47,16.82,9.72l.22.12.12.06a3.64,3.64,0,0,1,.39.23C144.64,104.32,144.71,106.21,142.27,107.62Z" transform="translate(-9.26 -16.34)"/><path class="cls-7" d="M407.32,127.36a14.27,14.27,0,0,1-5.88-1.19,11.06,11.06,0,0,1-4.46-3.65h-.37A42.36,42.36,0,0,1,397,128v13.56h-5V93.8H396l.7,4.51H397a11.63,11.63,0,0,1,4.48-3.91,13.6,13.6,0,0,1,5.86-1.2q6.56,0,10.12,4.48T421,110.25q0,8.11-3.62,12.61A12.21,12.21,0,0,1,407.32,127.36Zm-.72-29.92q-5.06,0-7.31,2.8t-2.31,8.9v1.11q0,6.94,2.31,9.94c1.55,2,4,3,7.43,3a7.75,7.75,0,0,0,6.69-3.46q2.41-3.45,2.42-9.53t-2.42-9.46A8,8,0,0,0,406.6,97.44Z" transform="translate(-9.26 -16.34)"/><path class="cls-7" d="M432.55,126.75h-5V80h5Z" transform="translate(-9.26 -16.34)"/><path class="cls-7" d="M461.25,126.75l-1-4.69H460a13.8,13.8,0,0,1-4.91,4.2,15.05,15.05,0,0,1-6.12,1.1,11,11,0,0,1-7.68-2.53c-1.86-1.68-2.78-4.08-2.78-7.18q0-10,16-10.47l5.59-.18v-2c0-2.59-.55-4.5-1.67-5.73s-2.89-1.85-5.33-1.85a21.62,21.62,0,0,0-9.32,2.53l-1.54-3.82A24.21,24.21,0,0,1,447.55,94a23.18,23.18,0,0,1,5.82-.75q5.89,0,8.73,2.62c1.9,1.74,2.84,4.54,2.84,8.39v22.48ZM450,123.24a10.09,10.09,0,0,0,7.32-2.56,9.43,9.43,0,0,0,2.66-7.16v-3l-5,.21q-6,.21-8.58,1.85a5.56,5.56,0,0,0-2.63,5.1,5.1,5.1,0,0,0,1.64,4.11A6.75,6.75,0,0,0,450,123.24Z" transform="translate(-9.26 -16.34)"/><path class="cls-7" d="M467.84,93.8h5.35l7.22,18.79a71.35,71.35,0,0,1,2.94,9.3h.24c.27-1,.81-2.78,1.64-5.25s3.56-10.09,8.16-22.84h5.36l-14.16,37.52q-2.11,5.56-4.92,7.9a10.47,10.47,0,0,1-6.9,2.33,20.12,20.12,0,0,1-4.51-.51v-4a17.46,17.46,0,0,0,3.7.36q5.15,0,7.33-5.77l1.84-4.69Z" transform="translate(-9.26 -16.34)"/><path class="cls-7" d="M314.87,96.86c1.58,1.32,4.89,4.07,4.89,9.31s-2.89,7.51-5.79,9.79c-.9.89-1.93,1.86-1.93,3.38a3.78,3.78,0,0,0,1.79,3l2.49,1.92c3,2.55,5.78,4.9,5.78,9.66,0,6.48-6.27,13-18.12,13-10,0-14.82-4.75-14.82-9.86,0-2.48,1.24-6,5.31-8.4,4.27-2.62,10.06-3,13.16-3.18-1-1.24-2.07-2.55-2.07-4.68a6.26,6.26,0,0,1,.69-2.69c-.76.07-1.51.14-2.21.14-7.3,0-11.43-5.45-11.43-10.82A12.38,12.38,0,0,1,297,98.18c3.93-3.24,8.61-3.8,12.34-3.8h14.19l-4.41,2.48ZM310,127.47a10.92,10.92,0,0,0-1.58-.07,27.76,27.76,0,0,0-7.24,1.1c-1.51.55-5.92,2.2-5.92,7.1S300,144,307.36,144c6.61,0,10.13-3.18,10.13-7.45C317.49,133,315.21,131.19,310,127.47Zm2-13.1a6.94,6.94,0,0,0,1.72-5c0-5-3-12.68-8.68-12.68a6.42,6.42,0,0,0-4.82,2.27,8,8,0,0,0-1.52,5.1c0,4.62,2.69,12.27,8.62,12.27A7,7,0,0,0,312,114.37Z" transform="translate(-9.26 -16.34)"/><path class="cls-7" d="M271.48,126.36a16.24,16.24,0,0,1-16.79-16.24c0-9,7.36-16.72,17.83-16.72A16.09,16.09,0,0,1,289,109.64C289,117.76,282.7,126.36,271.48,126.36Zm8.6-5.57a12.46,12.46,0,0,0,2.07-7.64c0-6.06-2.89-17.61-11.43-17.61a9.56,9.56,0,0,0-6.19,2.34c-2.68,2.4-3.17,5.43-3.17,8.4,0,6.8,3.38,18,11.71,18A8.79,8.79,0,0,0,280.08,120.79Z" transform="translate(-9.26 -16.34)"/><path class="cls-7" d="M234.19,126.36c-10.95,0-16.8-8.53-16.8-16.24,0-9,7.37-16.72,17.83-16.72a16.09,16.09,0,0,1,16.44,16.24C251.66,117.76,245.4,126.36,234.19,126.36Zm8.6-5.57a12.45,12.45,0,0,0,2.06-7.64c0-6.06-2.89-17.61-11.42-17.61a9.56,9.56,0,0,0-6.19,2.34c-2.69,2.4-3.17,5.43-3.17,8.4,0,6.8,3.37,18,11.7,18A8.82,8.82,0,0,0,242.79,120.79Z" transform="translate(-9.26 -16.34)"/><path class="cls-7" d="M212.14,125.29l-9.9,2.28a73.75,73.75,0,0,1-11.41,1.17c-19.09,0-26.36-14-26.36-25,0-13.42,10.31-25.87,27.95-25.87A39.9,39.9,0,0,1,203,79.28a27,27,0,0,1,9.13,4.29L206.39,89l-2.42.55,1.73-2.77c-2.35-2.28-6.64-6.5-14.8-6.5-10.93,0-19.16,8.3-19.16,20.41,0,13,9.41,25.25,24.48,25.25a20.63,20.63,0,0,0,8.79-1.73V113.11l-10.44.55,5.53-3h14.67l-1.8,1.72a1.59,1.59,0,0,0-.69,1.11c-.08.62-.14,2.63-.14,3.32Z" transform="translate(-9.26 -16.34)"/><path class="cls-7" d="M336.73,123.29c-2.28-.2-2.76-.62-2.76-3.32V80.82c0-.15,0-.3,0-.45.28-2.42,1-2.83,3.12-4.08h-9.9L322,78.78h5.29v42.71c0,1.39-.27,1.6-1.86,3.67H337.7l2.56-1.52C339.09,123.5,337.91,123.43,336.73,123.29Z" transform="translate(-9.26 -16.34)"/><path class="cls-7" d="M364.88,123.93c-.75.41-1.51.9-2.26,1.24a16,16,0,0,1-6.67,1.3,14.69,14.69,0,0,1-9.14-2.68c-4.87-3.44-7-9.34-7-14.5,0-10.64,8.66-15.86,15.73-15.86a13.31,13.31,0,0,1,7.08,1.92,11.34,11.34,0,0,1,4.8,6.8l-16.14,6.53-5.29.41c1.72,8.72,7.63,13.81,14.16,13.81a17.73,17.73,0,0,0,8.38-2.41Zm-6.45-20.48c1.3-.48,2-.89,2-1.85,0-2.75-3.09-5.91-6.8-5.91-2.76,0-7.9,2.13-7.9,9.55,0,1.17.13,2.41.2,3.65Z" transform="translate(-9.26 -16.34)"/><path class="cls-7" d="M371.52,93.9v4.53H371V93.9h-1.5v-.47H373v.47Z" transform="translate(-9.26 -16.34)"/><path class="cls-7" d="M377.7,98.43V93.85h0l-1.4,4.58h-.43l-1.41-4.58h0v4.58h-.5v-5h.85l1.28,4h0l1.25-4h.87v5Z" transform="translate(-9.26 -16.34)"/><path class="cls-7" d="M178.21,64.36h-3.43a23.16,23.16,0,0,0-1-4h-5a20.2,20.2,0,0,0-1,4h-3.24q0-.42,2.51-6.88a54.08,54.08,0,0,0,2.51-7.11h4.06a59.56,59.56,0,0,0,2.27,7A60,60,0,0,1,178.21,64.36Zm-5-6.07c-1.22-3.7-1.84-5.69-1.84-6h-.17q0,.41-1.9,6Z" transform="translate(-9.26 -16.34)"/><path class="cls-7" d="M192.07,64.36h-2.66c0-.3-1-1.84-2.95-4.65s-3.24-5-3.53-6.07h-.17a37.55,37.55,0,0,1,.27,4.25q0,2.65.15,6.47h-2.64q.17-3.33.16-7.32t-.16-6.67h3.19q0,.57,2.65,4.55a26.56,26.56,0,0,1,3.25,5.72h.16a41,41,0,0,1-.26-4.29q0-2.93-.15-6h2.69q-.15,2.67-.15,6.67C191.92,59.74,192,62.17,192.07,64.36Z" transform="translate(-9.26 -16.34)"/><path class="cls-7" d="M207.64,56.88a7.94,7.94,0,0,1-2,5.33,6.82,6.82,0,0,1-5.48,2.28c-1.06,0-2.52,0-4.38-.13Q196,61.12,196,57c0-2.6-.05-4.83-.14-6.67h1.88l1.37,0,1.2,0c2.58,0,4.46.64,5.62,1.93A6.71,6.71,0,0,1,207.64,56.88Zm-2.94.46a5.18,5.18,0,0,0-1.2-3.47,4.56,4.56,0,0,0-3.67-1.41,12.17,12.17,0,0,0-1.27.09c.07,1.44.11,2.93.11,4.49,0,1.72,0,3.41.1,5.1a7.37,7.37,0,0,0,1.4.13,4,4,0,0,0,3.42-1.43A5.55,5.55,0,0,0,204.7,57.34Z" transform="translate(-9.26 -16.34)"/><path class="cls-7" d="M222,64.36h-3.18a21.41,21.41,0,0,0-1.91-4.7,2.51,2.51,0,0,0-2.15-.89h-1.19c0,1.84,0,3.7.1,5.58h-3q.14-3.24.14-7.32c0-2.6-.05-4.83-.14-6.67h1.86l1.35,0,1.89,0q4.93,0,4.93,3.37a3.79,3.79,0,0,1-2.81,3.73v.16a3.33,3.33,0,0,1,1.9,1.69A37.69,37.69,0,0,1,222,64.36Zm-4-9.88c0-1.43-.91-2.14-2.75-2.14a9.46,9.46,0,0,0-1.78.15c.08,1.11.12,2.56.12,4.34l1,0C216.83,56.85,218,56.06,218,54.48Z" transform="translate(-9.26 -16.34)"/><path class="cls-7" d="M237.39,57.11a7.71,7.71,0,0,1-2,5.47,6.57,6.57,0,0,1-5,2.17,6.31,6.31,0,0,1-4.75-2,7,7,0,0,1-1.91-5.06,7.71,7.71,0,0,1,2-5.47,6.52,6.52,0,0,1,5-2.17,6.32,6.32,0,0,1,4.75,2A7,7,0,0,1,237.39,57.11Zm-3,.31a5.57,5.57,0,0,0-1.15-3.64,3.56,3.56,0,0,0-2.84-1.4,3.26,3.26,0,0,0-2.66,1.41,5.61,5.61,0,0,0-1.1,3.55A5.54,5.54,0,0,0,227.84,61a3.53,3.53,0,0,0,2.83,1.4A3.27,3.27,0,0,0,233.33,61,5.63,5.63,0,0,0,234.43,57.42Z" transform="translate(-9.26 -16.34)"/><path class="cls-7" d="M243.46,64.36h-3c.1-2.22.14-4.66.14-7.32s0-4.83-.14-6.67h3q-.14,2.72-.14,6.67T243.46,64.36Z" transform="translate(-9.26 -16.34)"/><path class="cls-7" d="M259,56.88a7.93,7.93,0,0,1-1.95,5.33,6.82,6.82,0,0,1-5.48,2.28c-1.06,0-2.52,0-4.38-.13q.14-3.24.14-7.32c0-2.6-.05-4.83-.14-6.67h1.88l1.37,0,1.2,0q3.87,0,5.62,1.93A6.71,6.71,0,0,1,259,56.88Zm-2.93.46a5.18,5.18,0,0,0-1.2-3.47,4.57,4.57,0,0,0-3.68-1.41,12,12,0,0,0-1.26.09c.07,1.44.1,2.93.1,4.49,0,1.72,0,3.41.11,5.1a7.37,7.37,0,0,0,1.4.13A4,4,0,0,0,255,60.84,5.55,5.55,0,0,0,256.1,57.34Z" transform="translate(-9.26 -16.34)"/><path class="cls-7" d="M279.69,64.36h-3.44a22.17,22.17,0,0,0-1-4h-5a21,21,0,0,0-1,4h-3.23a72.68,72.68,0,0,1,2.51-6.88,53.07,53.07,0,0,0,2.5-7.11h4.07a57.37,57.37,0,0,0,2.27,7A62.43,62.43,0,0,1,279.69,64.36Zm-5-6.07a60,60,0,0,1-1.84-6h-.17c0,.27-.64,2.27-1.9,6Z" transform="translate(-9.26 -16.34)"/><path class="cls-7" d="M292.22,54a4.19,4.19,0,0,1-1.91,3.79,8.52,8.52,0,0,1-4.67,1.22,6.48,6.48,0,0,1-.72,0c0,1.35,0,3.12.11,5.33h-3q.14-3.11.13-7.32c0-2.57,0-4.8-.13-6.67h1.86l1.53,0,1.95,0a6.18,6.18,0,0,1,3.45.92A3.13,3.13,0,0,1,292.22,54Zm-2.77.59c0-1.54-1-2.3-3.05-2.3a8.36,8.36,0,0,0-1.61.16c.08,1.35.11,2.88.11,4.6l.63,0Q289.45,57.11,289.45,54.63Z" transform="translate(-9.26 -16.34)"/><path class="cls-7" d="M305.1,54a4.19,4.19,0,0,1-1.9,3.79,8.53,8.53,0,0,1-4.68,1.22,6.48,6.48,0,0,1-.72,0c0,1.35,0,3.12.12,5.33h-3Q295,61.26,295,57c0-2.57-.05-4.8-.14-6.67h1.87l1.52,0,2,0a6.21,6.21,0,0,1,3.45.92A3.12,3.12,0,0,1,305.1,54Zm-2.77.59c0-1.54-1-2.3-3.05-2.3a8.44,8.44,0,0,0-1.61.16c.08,1.35.12,2.88.12,4.6l.62,0C301,57.11,302.33,56.28,302.33,54.63Z" transform="translate(-9.26 -16.34)"/><path class="cls-7" d="M326.17,57.11a7.71,7.71,0,0,1-2,5.47,6.58,6.58,0,0,1-5,2.17,6.29,6.29,0,0,1-4.74-2,7,7,0,0,1-1.92-5.06,7.75,7.75,0,0,1,2-5.47,6.56,6.56,0,0,1,5-2.17,6.32,6.32,0,0,1,4.75,2A7,7,0,0,1,326.17,57.11Zm-3,.31a5.51,5.51,0,0,0-1.15-3.64,3.53,3.53,0,0,0-2.83-1.4,3.28,3.28,0,0,0-2.67,1.41,5.61,5.61,0,0,0-1.09,3.55A5.53,5.53,0,0,0,316.61,61a3.56,3.56,0,0,0,2.83,1.4A3.28,3.28,0,0,0,322.11,61,5.63,5.63,0,0,0,323.2,57.42Z" transform="translate(-9.26 -16.34)"/><path class="cls-7" d="M340.73,64.36h-2.65c0-.3-1-1.84-3-4.65s-3.24-5-3.52-6.07h-.17a37.55,37.55,0,0,1,.27,4.25c0,1.77,0,3.93.15,6.47H329.2q.17-3.33.16-7.32t-.16-6.67h3.19q0,.57,2.66,4.55a26.82,26.82,0,0,1,3.24,5.72h.16a41,41,0,0,1-.26-4.29q0-2.93-.15-6h2.69q-.15,2.67-.15,6.67C340.58,59.74,340.63,62.17,340.73,64.36Z" transform="translate(-9.26 -16.34)"/></svg>